<svg width="341" height="207" viewBox="0 0 341 207" fill="none" xmlns="http://www.w3.org/2000/svg">
<path d="M138.702 4.06117C128.656 7.66645 119.136 17.5911 110.386 29.5006C105.89 35.6174 31.7993 167.595 26.8978 174.198C8.34479 199.434 0 194.735 0 200.69C0 207.577 30.8676 208.873 48.4889 202.594C58.535 199.029 68.0546 189.064 76.8044 177.155C81.2604 171.078 155.391 39.1012 160.252 32.4577C178.846 7.22085 187.15 11.9199 187.15 5.96508C187.15 -0.880881 156.282 -2.25818 138.661 4.06117" fill="#CB2E28"/>
<path d="M291.989 4.06117C281.984 7.66645 272.424 17.5911 263.674 29.5006C259.218 35.6174 185.087 167.595 180.226 174.198C161.673 199.434 153.328 194.735 153.328 200.69C153.328 207.577 184.196 208.873 201.817 202.594C211.823 199.029 221.383 189.064 230.133 177.155C234.588 171.078 308.719 39.1012 313.58 32.4577C332.133 7.22085 340.478 11.9199 340.478 5.96508C340.478 -0.880881 309.611 -2.25818 291.989 4.06117Z" fill="#1D4289"/>
<path d="M162.923 115.864C154.902 116.674 146.152 110.598 142.263 107.6C142.223 107.56 142.182 107.519 142.142 107.479C123.589 140.047 105.886 171.077 103.577 174.196C85.0245 199.433 76.6797 194.694 76.6797 200.689C76.6797 207.575 107.507 208.912 125.169 202.593C135.215 199.028 144.694 189.063 153.444 177.153C155.51 174.399 172.078 145.273 189.982 113.879C187.916 112.866 186.215 112.218 183.217 112.218C174.346 112.218 168.229 115.864 162.923 115.864Z" fill="#1D4289"/>
<path d="M215.348 4.06117C205.302 7.66645 195.783 17.5911 187.033 29.5006C185.088 32.1337 170.06 58.4643 153.289 87.9546C155.639 89.98 159.122 92.9372 163.578 92.9372C169.33 92.9372 174.111 90.1826 175.69 89.656C178.688 88.6432 187.6 86.5773 194.365 89.4939C196.755 90.5472 199.671 91.965 201.818 93.1397C219.035 62.8797 234.752 35.4149 236.899 32.4577C255.452 7.22085 263.797 11.9199 263.797 5.96508C263.797 -0.880881 232.97 -2.25818 215.308 4.06117" fill="#CB2E28"/>
</svg>
