<svg width="414" height="207" viewBox="0 0 414 207" fill="none" xmlns="http://www.w3.org/2000/svg">
<path d="M267.475 64.732L302.069 206.715H310.374L267.515 30.9072L224.414 206.715H232.678L267.475 64.732Z" fill="#92BED4"/>
<path d="M173.127 33.8247L215.296 206.716H223.56L173.167 0L122.531 206.716H130.795L173.127 33.8247Z" fill="#92BED4"/>
<path d="M172.407 79.6011L149.641 206.717H193.795L172.407 79.6011Z" fill="#92BED4"/>
<path d="M267.235 106.093L248.398 206.717H285.018L267.235 106.093Z" fill="#92BED4"/>
<path d="M413.836 52.7837C413.836 52.7837 183.423 82.9221 0 206.676H104.715C103.783 203.678 217.491 89.363 413.836 52.7837Z" fill="#4580A6"/>
<path d="M196.948 97.5732L189.156 99.4756L198.61 138.199L206.402 136.296L196.948 97.5732Z" fill="#92BED4"/>
<path d="M278.214 74.8067L270.422 76.709L276.09 99.9271L283.882 98.0248L278.214 74.8067Z" fill="#92BED4"/>
</svg>
