<svg width="230" height="230" viewBox="0 0 230 230" fill="none" xmlns="http://www.w3.org/2000/svg">
<path d="M114.834 -0.000174937L0 114.833L114.834 229.667L229.667 114.833L114.834 -0.000174937Z" fill="#F08300"/>
<path d="M114.822 229.671L15.2109 130.061C15.2109 130.061 45.3494 62.4111 114.822 62.4111C184.294 62.4111 214.554 128.764 214.554 128.764L114.822 229.671Z" fill="#F08300"/>
<path d="M114.822 62.8579C184.133 62.8579 214.393 128.968 214.393 128.968L114.822 229.673L15.4141 130.264C15.4141 130.264 45.512 62.8579 114.822 62.8579Z" fill="#F08300"/>
<path d="M114.817 63.2627C183.965 63.2627 214.184 129.17 214.184 129.17L114.817 229.672L15.5703 130.426C15.5703 130.426 45.6682 63.2222 114.817 63.2222V63.2627Z" fill="#F08400"/>
<path d="M114.825 63.665C183.771 63.665 213.99 129.37 213.99 129.37L114.825 229.71L15.7812 130.666C15.7812 130.666 45.8792 63.665 114.825 63.665Z" fill="#F08400"/>
<path d="M114.825 64.0728C183.609 64.0728 213.829 129.575 213.829 129.575L114.825 229.713L15.9844 130.872C15.9844 130.872 46.0418 64.1133 114.825 64.1133V64.0728Z" fill="#F08500"/>
<path d="M114.812 64.4761C183.434 64.4761 213.613 129.776 213.613 129.776L114.812 229.711L16.1328 131.032C16.1328 131.032 46.1902 64.4761 114.812 64.4761Z" fill="#F08500"/>
<path d="M114.82 64.8804C183.239 64.8804 213.418 129.937 213.418 129.937L114.82 229.67L16.3438 131.193C16.3438 131.193 46.4012 64.8398 114.82 64.8398V64.8804Z" fill="#F08600"/>
<path d="M114.805 65.2866C183.062 65.2866 213.241 130.141 213.241 130.141L114.805 229.711L16.5312 131.437C16.5312 131.437 46.5481 65.3271 114.805 65.3271V65.2866Z" fill="#F08600"/>
<path d="M114.823 65.6904C182.918 65.6904 213.056 130.342 213.056 130.342L114.823 229.71L16.7109 131.598C16.7109 131.598 46.7279 65.6904 114.823 65.6904Z" fill="#F08700"/>
<path d="M114.823 66.0586C182.757 66.0586 212.854 130.508 212.854 130.508L114.823 229.673L16.9141 131.764C16.9141 131.764 46.931 66.0586 114.823 66.0586Z" fill="#F18700"/>
<path d="M114.808 66.4619C182.539 66.4619 212.677 130.709 212.677 130.709L114.808 229.671L17.1016 131.964C17.1016 131.964 47.078 66.5024 114.808 66.5024V66.4619Z" fill="#F18800"/>
<path d="M114.826 66.8662C182.395 66.8662 212.492 130.87 212.492 130.87L114.826 229.63L17.2812 132.085C17.2812 132.085 47.2576 66.8257 114.826 66.8257V66.8662Z" fill="#F18800"/>
<path d="M114.811 67.2729C182.217 67.2729 212.275 131.074 212.275 131.074L114.811 229.672L17.4688 132.33C17.4688 132.33 47.4452 67.2729 114.811 67.2729Z" fill="#F18902"/>
<path d="M114.812 67.6768C182.015 67.6768 212.113 131.275 212.113 131.275L114.812 229.671L17.6719 132.491C17.6719 132.491 47.6078 67.6768 114.812 67.6768Z" fill="#F18905"/>
<path d="M114.806 68.084C181.848 68.084 211.905 131.48 211.905 131.48L114.806 229.673L17.8281 132.695C17.8281 132.695 47.764 68.084 114.806 68.084Z" fill="#F18A07"/>
<path d="M114.814 68.4873C181.694 68.4873 211.711 131.681 211.711 131.681L114.814 229.671L18.0391 132.896C18.0391 132.896 47.9344 68.4873 114.814 68.4873Z" fill="#F18A0A"/>
<path d="M114.815 68.8911C181.492 68.8911 211.549 131.882 211.549 131.882L114.815 229.71L18.2422 133.097C18.2422 133.097 48.1376 68.8911 114.815 68.8911Z" fill="#F18B0C"/>
<path d="M114.817 69.2983C181.332 69.2983 211.349 132.046 211.349 132.046L114.817 229.672L18.4062 133.262C18.4062 133.262 48.3016 69.2983 114.817 69.2983Z" fill="#F18B0F"/>
<path d="M114.81 69.7017C181.163 69.7017 211.139 132.247 211.139 132.247L114.81 229.67L18.6016 133.462C18.6016 133.462 48.4564 69.7017 114.81 69.7017Z" fill="#F18C11"/>
<path d="M114.818 70.1064C180.969 70.1064 210.986 132.449 210.986 132.449L114.818 229.67L18.8125 133.624C18.8125 133.624 48.6673 70.0659 114.818 70.0659V70.1064Z" fill="#F18C13"/>
<path d="M114.812 70.5127C180.801 70.5127 210.777 132.653 210.777 132.653L114.812 229.671L18.9688 133.828C18.9688 133.828 48.8236 70.5127 114.812 70.5127Z" fill="#F18D15"/>
<path d="M114.813 70.9165C180.639 70.9165 210.575 132.854 210.575 132.854L114.813 229.71L19.1719 134.069C19.1719 134.069 48.9862 70.957 114.813 70.957V70.9165Z" fill="#F18D16"/>
<path d="M114.815 71.3247C180.479 71.3247 210.415 133.019 210.415 133.019L114.815 229.673L19.3359 134.194C19.3359 134.194 49.1504 71.2842 114.774 71.2842L114.815 71.3247Z" fill="#F18E18"/>
<path d="M114.815 71.7275C180.277 71.7275 210.213 133.22 210.213 133.22L114.815 229.671L19.5391 134.394C19.5391 134.394 49.3534 71.7275 114.815 71.7275Z" fill="#F18F1A"/>
<path d="M114.824 72.1348C180.124 72.1348 210.019 133.424 210.019 133.424L114.824 229.673L19.75 134.599C19.75 134.599 49.5239 72.1348 114.824 72.1348Z" fill="#F28F1B"/>
<path d="M114.818 72.5381C179.956 72.5381 209.851 133.625 209.851 133.625L114.818 229.712L19.9062 134.8C19.9062 134.8 49.6802 72.5381 114.778 72.5381H114.818Z" fill="#F2901C"/>
<path d="M114.819 72.9419C179.754 72.9419 209.649 133.826 209.649 133.826L114.819 229.71L20.1094 135.001C20.1094 135.001 49.8833 72.9824 114.819 72.9824V72.9419Z" fill="#F2901E"/>
<path d="M114.827 73.3491C179.6 73.3491 209.455 133.991 209.455 133.991L114.827 229.672L20.3203 135.165C20.3203 135.165 50.0536 73.3491 114.827 73.3491Z" fill="#F2911F"/>
<path d="M114.821 73.7534C179.433 73.7534 209.287 134.192 209.287 134.192L114.821 229.671L20.4766 135.327C20.4766 135.327 50.21 73.7129 114.821 73.7129V73.7534Z" fill="#F29120"/>
<path d="M114.822 74.1597C179.231 74.1597 209.085 134.396 209.085 134.396L114.822 229.672L20.6797 135.53C20.6797 135.53 50.413 74.1597 114.822 74.1597Z" fill="#F29222"/>
<path d="M114.807 74.5635C179.053 74.5635 208.868 134.597 208.868 134.597L114.807 229.712L20.8672 135.772C20.8672 135.772 50.56 74.604 114.807 74.604V74.5635Z" fill="#F29223"/>
<path d="M114.824 74.9673C178.909 74.9673 208.723 134.799 208.723 134.799L114.824 229.71L21.0469 135.933C21.0469 135.933 50.7397 74.9673 114.824 74.9673Z" fill="#F29324"/>
<path d="M114.809 75.3745C178.692 75.3745 208.506 135.003 208.506 135.003L114.809 229.712L21.2344 136.137C21.2344 136.137 50.9272 75.3745 114.809 75.3745Z" fill="#F29325"/>
<path d="M114.81 75.7778C178.53 75.7778 208.304 135.164 208.304 135.164L114.81 229.67L21.4375 136.298C21.4375 136.298 51.0898 75.7778 114.81 75.7778Z" fill="#F29426"/>
<path d="M114.812 76.1855C178.37 76.1855 208.144 135.369 208.144 135.369L114.812 229.713L21.6016 136.503C21.6016 136.503 51.2538 76.1855 114.812 76.1855Z" fill="#F29428"/>
<path d="M114.813 76.5889C178.168 76.5889 207.942 135.569 207.942 135.569L114.813 229.712L21.8047 136.704C21.8047 136.704 51.457 76.5889 114.813 76.5889Z" fill="#F29529"/>
<path d="M114.821 76.9927C178.014 76.9927 207.748 135.771 207.748 135.771L114.821 229.71L22.0156 136.864C22.0156 136.864 51.6275 76.9927 114.821 76.9927Z" fill="#F2952A"/>
<path d="M114.815 77.3608C177.847 77.3608 207.58 135.936 207.58 135.936L114.815 229.673L22.1719 137.03C22.1719 137.03 51.7837 77.3608 114.815 77.3608Z" fill="#F3962B"/>
<path d="M114.816 77.7646C177.685 77.7646 207.378 136.097 207.378 136.097L114.816 229.632L22.375 137.191C22.375 137.191 51.9463 77.7241 114.816 77.7241V77.7646Z" fill="#F3962C"/>
<path d="M114.824 78.167C177.491 78.167 207.184 136.297 207.184 136.297L114.824 229.669L22.5859 137.391C22.5859 137.391 52.1572 78.167 114.824 78.167Z" fill="#F3972D"/>
<path d="M114.818 78.5747C177.323 78.5747 207.016 136.502 207.016 136.502L114.818 229.672L22.7422 137.596C22.7422 137.596 52.3134 78.5747 114.818 78.5747Z" fill="#F3972E"/>
<path d="M114.811 78.978C177.154 78.978 206.806 136.703 206.806 136.703L114.811 229.67L22.9375 137.797C22.9375 137.797 52.4683 78.978 114.811 78.978Z" fill="#F39830"/>
<path d="M114.82 79.3857C176.96 79.3857 206.612 136.908 206.612 136.908L114.82 229.673L23.1484 137.961C23.1484 137.961 52.6793 79.3857 114.82 79.3857Z" fill="#F39831"/>
<path d="M114.814 79.7896C176.792 79.7896 206.444 137.069 206.444 137.069L114.814 229.672L23.3047 138.163C23.3047 138.163 52.8355 79.7896 114.814 79.7896Z" fill="#F39932"/>
<path d="M114.822 80.1934C176.638 80.1934 206.25 137.27 206.25 137.27L114.822 229.67L23.5156 138.364C23.5156 138.364 53.006 80.1934 114.822 80.1934Z" fill="#F39933"/>
<path d="M114.816 80.6006C176.43 80.6006 206.042 137.475 206.042 137.475L114.816 229.672L23.6719 138.528C23.6719 138.528 53.1623 80.6006 114.776 80.6006H114.816Z" fill="#F39A34"/>
<path d="M114.817 81.0039C176.268 81.0039 205.88 137.676 205.88 137.676L114.817 229.671L23.875 138.729C23.875 138.729 53.3652 81.0039 114.817 81.0039Z" fill="#F39A35"/>
<path d="M114.825 81.4116C176.115 81.4116 205.686 137.881 205.686 137.881L114.825 229.673L24.0859 138.934C24.0859 138.934 53.5357 81.4116 114.825 81.4116Z" fill="#F39B36"/>
<path d="M114.819 81.8149C175.907 81.8149 205.478 138.081 205.478 138.081L114.819 229.712L24.2422 139.135C24.2422 139.135 53.692 81.8149 114.779 81.8149H114.819Z" fill="#F39B37"/>
<path d="M114.82 82.2188C175.745 82.2188 205.316 138.242 205.316 138.242L114.82 229.67L24.4453 139.295C24.4453 139.295 53.8951 82.2188 114.82 82.2188Z" fill="#F39C38"/>
<path d="M114.813 82.6255C175.576 82.6255 205.107 138.446 205.107 138.446L114.813 229.672L24.6406 139.5C24.6406 139.5 54.0498 82.6255 114.813 82.6255Z" fill="#F49C39"/>
<path d="M114.823 83.0303C175.424 83.0303 204.914 138.649 204.914 138.649L114.823 229.672L24.8125 139.661C24.8125 139.661 54.2219 82.9897 114.782 82.9897L114.823 83.0303Z" fill="#F49D3A"/>
<path d="M114.823 83.4365C175.222 83.4365 204.752 138.852 204.752 138.852L114.823 229.713L25.0156 139.906C25.0156 139.906 54.4248 83.477 114.823 83.477V83.4365Z" fill="#F49D3B"/>
<path d="M114.808 83.8403C175.045 83.8403 204.535 139.054 204.535 139.054L114.808 229.712L25.2031 140.107C25.2031 140.107 54.5719 83.8808 114.808 83.8808V83.8403Z" fill="#F49E3C"/>
<path d="M114.826 84.2446C174.9 84.2446 204.35 139.215 204.35 139.215L114.826 229.671L25.3828 140.228C25.3828 140.228 54.7516 84.2041 114.785 84.2041L114.826 84.2446Z" fill="#F49E3D"/>
<path d="M114.811 84.6514C174.683 84.6514 204.173 139.419 204.173 139.419L114.811 229.672L25.5703 140.432C25.5703 140.432 54.9391 84.6514 114.811 84.6514Z" fill="#F49F3E"/>
<path d="M114.819 85.0547C174.529 85.0547 203.979 139.62 203.979 139.62L114.819 229.671L25.7812 140.633C25.7812 140.633 55.1094 85.0547 114.819 85.0547Z" fill="#F49F3F"/>
<path d="M114.813 85.4619C174.361 85.4619 203.77 139.825 203.77 139.825L114.813 229.713L25.9375 140.837C25.9375 140.837 55.2658 85.4619 114.813 85.4619Z" fill="#F4A040"/>
<path d="M114.814 85.8657C174.159 85.8657 203.609 140.026 203.609 140.026L114.814 229.712L26.1406 141.039C26.1406 141.039 55.4688 85.9062 114.814 85.9062V85.8657Z" fill="#F4A041"/>
<path d="M114.822 86.2705C174.006 86.2705 203.415 140.188 203.415 140.188L114.822 229.671L26.3516 141.16C26.3516 141.16 55.6393 86.23 114.822 86.23V86.2705Z" fill="#F4A142"/>
<path d="M114.817 86.6777C173.838 86.6777 203.207 140.392 203.207 140.392L114.817 229.673L26.5078 141.364C26.5078 141.364 55.7955 86.6372 114.817 86.6372V86.6777Z" fill="#F4A143"/>
<path d="M114.817 87.0801C173.636 87.0801 203.045 140.592 203.045 140.592L114.817 229.711L26.7109 141.605C26.7109 141.605 55.9987 87.1206 114.817 87.1206V87.0801Z" fill="#F4A244"/>
<path d="M114.818 87.4873C173.474 87.4873 202.843 140.797 202.843 140.797L114.818 229.713L26.9141 141.769C26.9141 141.769 56.1612 87.4873 114.818 87.4873Z" fill="#F4A245"/>
<path d="M114.82 87.8911C173.314 87.8911 202.643 140.998 202.643 140.998L114.82 229.712L27.0781 141.97C27.0781 141.97 56.3254 87.8911 114.82 87.8911Z" fill="#F4A346"/>
<path d="M114.82 88.2944C173.153 88.2944 202.481 141.199 202.481 141.199L114.82 229.71L27.2812 142.171C27.2812 142.171 56.4879 88.2944 114.82 88.2944Z" fill="#F4A347"/>
<path d="M114.821 88.7031C172.951 88.7031 202.279 141.364 202.279 141.364L114.821 229.673L27.4844 142.296C27.4844 142.296 56.6911 88.6626 114.821 88.6626V88.7031Z" fill="#F5A448"/>
<path d="M114.806 89.0664C172.774 89.0664 202.102 141.525 202.102 141.525L114.846 229.672L27.6719 142.497C27.6719 142.497 56.8786 89.0664 114.846 89.0664H114.806Z" fill="#F5A449"/>
<path d="M114.824 89.4697C172.629 89.4697 201.917 141.726 201.917 141.726L114.824 229.67L27.8516 142.698C27.8516 142.698 57.0178 89.4697 114.824 89.4697Z" fill="#F5A54A"/>
<path d="M114.824 89.8774C172.427 89.8774 201.715 141.931 201.715 141.931L114.824 229.673L28.0547 142.863C28.0547 142.863 57.2208 89.8774 114.824 89.8774Z" fill="#F5A54B"/>
<path d="M114.809 90.2808C172.25 90.2808 201.538 142.132 201.538 142.132L114.85 229.671L28.2422 143.064C28.2422 143.064 57.4084 90.2808 114.85 90.2808H114.809Z" fill="#F5A64C"/>
<path d="M114.827 90.688C172.106 90.688 201.353 142.296 201.353 142.296L114.827 229.673L28.4219 143.268C28.4219 143.268 57.5475 90.688 114.827 90.688Z" fill="#F5A64D"/>
<path d="M114.821 91.0918C171.898 91.0918 201.145 142.497 201.145 142.497L114.821 229.672L28.5781 143.429C28.5781 143.429 57.704 91.0918 114.781 91.0918H114.821Z" fill="#F5A74E"/>
<path d="M114.812 91.4946C171.727 91.4946 200.974 142.698 200.974 142.698L114.853 229.67L28.8125 143.629C28.8125 143.629 57.9382 91.4946 114.853 91.4946H114.812Z" fill="#F5A74F"/>
<path d="M114.807 91.9023C171.559 91.9023 200.766 142.903 200.766 142.903L114.807 229.672L28.9688 143.834C28.9688 143.834 58.054 91.9023 114.807 91.9023Z" fill="#F5A850"/>
<path d="M114.824 92.3062C171.374 92.3062 200.581 143.104 200.581 143.104L114.824 229.671L29.1484 143.995C29.1484 143.995 58.2337 92.3062 114.784 92.3062H114.824Z" fill="#F5A851"/>
<path d="M114.823 92.7134C171.211 92.7134 200.418 143.309 200.418 143.309L114.864 229.714L29.3906 144.24C29.3906 144.24 58.4759 92.7539 114.864 92.7539L114.823 92.7134Z" fill="#F5A952"/>
<path d="M114.818 93.1172C171.044 93.1172 200.21 143.469 200.21 143.469L114.818 229.672L29.5469 144.401C29.5469 144.401 58.5915 93.1172 114.818 93.1172Z" fill="#F5A953"/>
<path d="M114.812 93.5205C170.876 93.5205 200.001 143.67 200.001 143.67L114.812 229.67L29.7031 144.561C29.7031 144.561 58.7478 93.5205 114.771 93.5205H114.812Z" fill="#F5AA54"/>
<path d="M114.826 93.9277C170.688 93.9277 199.854 143.875 199.854 143.875L114.867 229.672L29.9609 144.766C29.9609 144.766 59.0056 93.9277 114.867 93.9277H114.826Z" fill="#F5AA55"/>
<path d="M114.813 94.3315C170.512 94.3315 199.638 144.076 199.638 144.076L114.813 229.711L30.1094 145.008C30.1094 145.008 59.1136 94.3721 114.813 94.3721V94.3315Z" fill="#F5AB56"/>
<path d="M114.815 94.7388C170.352 94.7388 199.438 144.281 199.438 144.281L114.815 229.714L30.2734 145.172C30.2734 145.172 59.2777 94.7388 114.775 94.7388H114.815Z" fill="#F6AB57"/>
<path d="M114.822 95.1426C170.157 95.1426 199.283 144.442 199.283 144.442L114.863 229.672L30.5234 145.333C30.5234 145.333 59.5277 95.1426 114.863 95.1426H114.822Z" fill="#F6AC57"/>
<path d="M114.816 95.5454C169.989 95.5454 199.074 144.642 199.074 144.642L114.816 229.67L30.6797 145.533C30.6797 145.533 59.6433 95.5454 114.816 95.5454Z" fill="#F6AC58"/>
<path d="M114.81 95.9502C169.821 95.9502 198.866 144.844 198.866 144.844L114.81 229.669L30.8359 145.695C30.8359 145.695 59.7996 95.9097 114.77 95.9097L114.81 95.9502Z" fill="#F6AD59"/>
<path d="M114.825 96.3569C169.633 96.3569 198.718 145.048 198.718 145.048L114.866 229.711L31.0938 145.94C31.0938 145.94 60.0574 96.3974 114.866 96.3974L114.825 96.3569Z" fill="#F6AD5A"/>
<path d="M114.819 96.7642C169.466 96.7642 198.51 145.253 198.51 145.253L114.819 229.714L31.25 146.104C31.25 146.104 60.1732 96.7642 114.819 96.7642Z" fill="#F6AE5B"/>
<path d="M114.814 97.1684C169.298 97.1684 198.302 145.414 198.302 145.414L114.814 229.672L31.4062 146.265C31.4062 146.265 60.3294 97.1279 114.814 97.1279V97.1684Z" fill="#F6AE5C"/>
<path d="M114.813 97.5713C169.094 97.5713 198.139 145.615 198.139 145.615L114.853 229.67L31.6484 146.465C31.6484 146.465 60.5311 97.5713 114.853 97.5713H114.813Z" fill="#F6AF5D"/>
<path d="M114.823 97.9785C168.942 97.9785 197.946 145.819 197.946 145.819L114.823 229.713L31.8203 146.67C31.8203 146.67 60.7029 97.9785 114.823 97.9785Z" fill="#F6AF5E"/>
<path d="M114.817 98.3823C168.774 98.3823 197.738 146.021 197.738 146.021L114.817 229.711L31.9766 146.871C31.9766 146.871 60.8592 98.3823 114.817 98.3823Z" fill="#F6B05F"/>
<path d="M114.816 98.7896C168.611 98.7896 197.575 146.225 197.575 146.225L114.856 229.714L32.2188 147.076C32.2188 147.076 61.0609 98.8301 114.856 98.8301L114.816 98.7896Z" fill="#F6B060"/>
<path d="M114.81 99.1934C168.403 99.1934 197.367 146.426 197.367 146.426L114.81 229.712L32.375 147.237C32.375 147.237 61.2172 99.1934 114.81 99.1934Z" fill="#F6B161"/>
<path d="M114.82 99.5981C168.251 99.5981 197.174 146.588 197.174 146.588L114.82 229.671L32.5469 147.398C32.5469 147.398 61.389 99.5576 114.82 99.5576V99.5981Z" fill="#F6B162"/>
<path d="M114.811 100.005C168.08 100.005 197.003 146.792 197.003 146.792L114.852 229.714L32.7812 147.643C32.7812 147.643 61.5829 100.045 114.852 100.045L114.811 100.005Z" fill="#F7B263"/>
<path d="M114.823 100.368C167.889 100.368 196.812 146.953 196.812 146.953L114.823 229.671L32.9141 147.763C32.9141 147.763 61.7158 100.368 114.782 100.368H114.823Z" fill="#F7B264"/>
<path d="M114.823 100.771C167.727 100.771 196.61 147.154 196.61 147.154L114.823 229.67L33.1172 147.964C33.1172 147.964 61.9188 100.771 114.823 100.771Z" fill="#F7B365"/>
<path d="M114.814 101.179C167.557 101.179 196.439 147.359 196.439 147.359L114.855 229.673L33.3516 148.169C33.3516 148.169 62.1127 101.179 114.855 101.179H114.814Z" fill="#F7B366"/>
<path d="M114.818 101.583C167.358 101.583 196.24 147.519 196.24 147.519L114.818 229.671L33.4766 148.33C33.4766 148.33 62.2377 101.583 114.777 101.583H114.818Z" fill="#F7B467"/>
<path d="M114.811 101.986C167.188 101.986 196.031 147.72 196.031 147.72L114.811 229.669L33.6719 148.53C33.6719 148.53 62.433 101.986 114.811 101.986Z" fill="#F7B468"/>
<path d="M114.825 102.394C167.041 102.394 195.883 147.925 195.883 147.925L114.866 229.672L33.9297 148.735C33.9297 148.735 62.6504 102.394 114.866 102.394H114.825Z" fill="#F7B569"/>
<path d="M114.813 102.797C166.826 102.797 195.669 148.127 195.669 148.127L114.813 229.67L34.0391 148.896C34.0391 148.896 62.7598 102.797 114.773 102.797H114.813Z" fill="#F7B56A"/>
<path d="M114.814 103.205C166.665 103.205 195.467 148.331 195.467 148.331L114.814 229.673L34.2422 149.101C34.2422 149.101 62.9628 103.205 114.814 103.205Z" fill="#F7B66B"/>
<path d="M114.829 103.608C166.518 103.608 195.319 148.492 195.319 148.492L114.869 229.671L34.5 149.302C34.5 149.302 63.1801 103.608 114.869 103.608H114.829Z" fill="#F7B66C"/>
<path d="M114.816 104.011C166.343 104.011 195.105 148.692 195.105 148.692L114.816 229.669L34.6094 149.462C34.6094 149.462 63.2895 104.011 114.776 104.011H114.816Z" fill="#F7B76D"/>
<path d="M114.817 104.418C166.142 104.418 194.903 148.897 194.903 148.897L114.817 229.671L34.8125 149.667C34.8125 149.667 63.4926 104.418 114.817 104.418Z" fill="#F7B86E"/>
<path d="M114.808 104.822C165.971 104.822 194.732 149.098 194.732 149.098L114.849 229.67L35.0469 149.868C35.0469 149.868 63.6865 104.822 114.849 104.822H114.808Z" fill="#F7B86F"/>
<path d="M114.812 105.23C165.812 105.23 194.533 149.303 194.533 149.303L114.812 229.713L35.1719 150.073C35.1719 150.073 63.8116 105.27 114.771 105.27L114.812 105.23Z" fill="#F7B970"/>
<path d="M114.82 105.634C165.618 105.634 194.339 149.505 194.339 149.505L114.82 229.712L35.3828 150.274C35.3828 150.274 64.0224 105.674 114.82 105.674V105.634Z" fill="#F7B971"/>
<path d="M114.812 106.038C165.447 106.038 194.168 149.666 194.168 149.666L114.852 229.67L35.6172 150.395C35.6172 150.395 64.2163 105.998 114.852 105.998L114.812 106.038Z" fill="#F8BA72"/>
<path d="M114.815 106.444C165.289 106.444 193.969 149.87 193.969 149.87L114.815 229.672L35.7422 150.599C35.7422 150.599 64.3413 106.444 114.775 106.444H114.815Z" fill="#F8BA73"/>
<path d="M114.823 106.848C165.095 106.848 193.775 150.071 193.775 150.071L114.823 229.67L35.9531 150.8C35.9531 150.8 64.5117 106.848 114.823 106.848Z" fill="#F8BB74"/>
<path d="M114.815 107.255C164.924 107.255 193.604 150.276 193.604 150.276L114.855 229.713L36.1875 151.005C36.1875 151.005 64.7462 107.255 114.855 107.255H114.815Z" fill="#F8BB75"/>
<path d="M114.818 107.659C164.765 107.659 193.405 150.477 193.405 150.477L114.818 229.712L36.3125 151.206C36.3125 151.206 64.8712 107.659 114.778 107.659H114.818Z" fill="#F8BC76"/>
<path d="M114.827 108.062C164.571 108.062 193.211 150.637 193.211 150.637L114.827 229.669L36.5234 151.366C36.5234 151.366 65.0415 108.062 114.827 108.062Z" fill="#F8BC77"/>
<path d="M114.818 108.471C164.401 108.471 193.04 150.843 193.04 150.843L114.858 229.673L36.7578 151.532C36.7578 151.532 65.2759 108.431 114.858 108.431L114.818 108.471Z" fill="#F8BC78"/>
<path d="M114.821 108.873C164.242 108.873 192.841 151.043 192.841 151.043L114.821 229.71L36.8828 151.772C36.8828 151.772 65.4009 108.873 114.821 108.873Z" fill="#F8BD79"/>
<path d="M114.814 109.281C164.073 109.281 192.631 151.248 192.631 151.248L114.814 229.713L37.0781 151.977C37.0781 151.977 65.5557 109.321 114.814 109.321V109.281Z" fill="#F8BD7A"/>
<path d="M114.807 109.684C163.863 109.684 192.462 151.449 192.462 151.449L114.847 229.711L37.2734 152.137C37.2734 152.137 65.751 109.684 114.807 109.684Z" fill="#F8BE7B"/>
<path d="M114.809 110.089C163.703 110.089 192.262 151.61 192.262 151.61L114.809 229.67L37.4375 152.299C37.4375 152.299 65.9151 110.048 114.809 110.048V110.089Z" fill="#F8BE7C"/>
<path d="M114.817 110.495C163.549 110.495 192.067 151.814 192.067 151.814L114.817 229.672L37.6484 152.503C37.6484 152.503 66.0855 110.495 114.817 110.495Z" fill="#F8BF7D"/>
<path d="M114.81 110.899C163.34 110.899 191.898 152.015 191.898 152.015L114.851 229.711L37.8438 152.704C37.8438 152.704 66.2808 110.899 114.81 110.899Z" fill="#F8BF7E"/>
<path d="M114.812 111.306C163.18 111.306 191.698 152.22 191.698 152.22L114.812 229.713L38.0078 152.909C38.0078 152.909 66.4449 111.306 114.812 111.306Z" fill="#F8C07F"/>
<path d="M114.821 111.71C163.026 111.71 191.503 152.421 191.503 152.421L114.821 229.712L38.2188 153.11C38.2188 153.11 66.6153 111.75 114.821 111.75V111.71Z" fill="#F8C080"/>
<path d="M114.821 112.074C162.824 112.074 191.342 152.583 191.342 152.583L114.862 229.671L38.4219 153.231C38.4219 153.231 66.8184 112.074 114.821 112.074Z" fill="#F8C181"/>
<path d="M114.815 112.481C162.656 112.481 191.134 152.747 191.134 152.747L114.815 229.673L38.5781 153.436C38.5781 153.436 66.9747 112.481 114.815 112.481Z" fill="#F8C182"/>
<path d="M114.816 112.884C162.495 112.884 190.932 152.947 190.932 152.947L114.816 229.671L38.7812 153.636C38.7812 153.636 67.1373 112.925 114.816 112.925V112.884Z" fill="#F9C283"/>
<path d="M114.824 113.288C162.301 113.288 190.778 153.149 190.778 153.149L114.865 229.669L38.9922 153.797C38.9922 153.797 67.3483 113.288 114.824 113.288Z" fill="#F9C284"/>
<path d="M114.819 113.695C162.133 113.695 190.57 153.353 190.57 153.353L114.819 229.672L39.1484 154.001C39.1484 154.001 67.5045 113.695 114.819 113.695Z" fill="#F9C385"/>
<path d="M114.819 114.099C161.971 114.099 190.368 153.555 190.368 153.555L114.819 229.67L39.3516 154.203C39.3516 154.203 67.6671 114.099 114.819 114.099Z" fill="#F9C386"/>
<path d="M114.828 114.507C161.777 114.507 190.214 153.719 190.214 153.719L114.868 229.673L39.5625 154.367C39.5625 154.367 67.878 114.507 114.828 114.507Z" fill="#F9C487"/>
<path d="M114.822 114.91C161.609 114.91 190.006 153.92 190.006 153.92L114.822 229.671L39.7188 154.568C39.7188 154.568 68.0343 114.91 114.822 114.91Z" fill="#F9C488"/>
<path d="M114.822 115.315C161.448 115.315 189.804 154.122 189.804 154.122L114.822 229.671L39.9219 154.73C39.9219 154.73 68.1969 115.274 114.822 115.274V115.315Z" fill="#F9C589"/>
<path d="M114.807 115.721C161.271 115.721 189.627 154.326 189.627 154.326L114.848 229.672L40.1094 154.934C40.1094 154.934 68.3844 115.721 114.807 115.721Z" fill="#F9C58A"/>
<path d="M114.817 116.125C161.078 116.125 189.434 154.527 189.434 154.527L114.817 229.711L40.2812 155.175C40.2812 155.175 68.5563 116.166 114.817 116.166V116.125Z" fill="#F9C68A"/>
<path d="M114.81 116.529C160.909 116.529 189.224 154.688 189.224 154.688L114.81 229.67L40.4766 155.296C40.4766 155.296 68.7111 116.489 114.81 116.489V116.529Z" fill="#F9C68B"/>
<path d="M114.818 116.936C160.755 116.936 189.071 154.893 189.071 154.893L114.859 229.672L40.6875 155.5C40.6875 155.5 68.922 116.936 114.818 116.936Z" fill="#F9C78C"/>
<path d="M114.812 117.339C160.547 117.339 188.862 155.093 188.862 155.093L114.812 229.669L40.8438 155.701C40.8438 155.701 69.0377 117.339 114.812 117.339Z" fill="#F9C78D"/>
<path d="M114.813 117.747C160.385 117.747 188.66 155.299 188.66 155.299L114.813 229.672L41.0469 155.866C41.0469 155.866 69.2409 117.707 114.813 117.707V117.747Z" fill="#F9C88E"/>
<path d="M114.822 118.15C160.232 118.15 188.507 155.499 188.507 155.499L114.862 229.711L41.2578 156.107C41.2578 156.107 69.4519 118.19 114.822 118.19V118.15Z" fill="#F9C88F"/>
<path d="M114.816 118.558C160.023 118.558 188.298 155.704 188.298 155.704L114.816 229.713L41.4141 156.312C41.4141 156.312 69.5676 118.598 114.816 118.598V118.558Z" fill="#F9C990"/>
<path d="M114.816 118.962C159.862 118.962 188.097 155.865 188.097 155.865L114.816 229.672L41.6172 156.432C41.6172 156.432 69.7707 118.921 114.816 118.921V118.962Z" fill="#F9C991"/>
<path d="M114.825 119.365C159.708 119.365 187.943 156.066 187.943 156.066L114.865 229.67L41.8281 156.633C41.8281 156.633 69.9816 119.365 114.825 119.365Z" fill="#FACA92"/>
<path d="M114.811 119.772C159.492 119.772 187.727 156.27 187.727 156.27L114.811 229.712L41.9766 156.878C41.9766 156.878 70.0895 119.812 114.811 119.812V119.772Z" fill="#FACA93"/>
<path d="M114.805 120.176C159.324 120.176 187.518 156.472 187.518 156.472L114.805 229.711L42.1328 157.039C42.1328 157.039 70.2459 120.176 114.765 120.176H114.805Z" fill="#FACB94"/>
<path d="M114.82 120.583C159.177 120.583 187.371 156.676 187.371 156.676L114.861 229.713L42.3906 157.243C42.3906 157.243 70.5037 120.583 114.861 120.583H114.82Z" fill="#FACB95"/>
<path d="M114.814 120.986C159.009 120.986 187.163 156.836 187.163 156.836L114.814 229.671L42.5469 157.404C42.5469 157.404 70.6194 120.986 114.814 120.986Z" fill="#FACC96"/>
<path d="M114.808 121.391C158.801 121.391 186.954 157.039 186.954 157.039L114.808 229.671L42.7031 157.565C42.7031 157.565 70.7757 121.351 114.768 121.351L114.808 121.391Z" fill="#FACC97"/>
<path d="M114.823 121.797C158.654 121.797 186.807 157.242 186.807 157.242L114.864 229.712L42.9609 157.81C42.9609 157.81 71.0334 121.797 114.864 121.797H114.823Z" fill="#FACD98"/>
<path d="M114.817 122.201C158.486 122.201 186.599 157.443 186.599 157.443L114.817 229.711L43.1172 158.01C43.1172 158.01 71.1491 122.241 114.817 122.241V122.201Z" fill="#FACD99"/>
<path d="M114.812 122.608C158.278 122.608 186.391 157.648 186.391 157.648L114.812 229.713L43.2734 158.175C43.2734 158.175 71.3055 122.608 114.771 122.608H114.812Z" fill="#FACE9A"/>
<path d="M114.811 123.013C158.115 123.013 186.228 157.81 186.228 157.81L114.851 229.672L43.5156 158.336C43.5156 158.336 71.5477 122.972 114.851 122.972L114.811 123.013Z" fill="#FACE9B"/>
<path d="M114.821 123.375C157.962 123.375 186.035 157.97 186.035 157.97L114.821 229.67L43.6875 158.537C43.6875 158.537 71.679 123.416 114.821 123.416V123.375Z" fill="#FACF9C"/>
<path d="M114.806 123.783C157.745 123.783 185.858 158.175 185.858 158.175L114.846 229.673L43.875 158.702C43.875 158.702 71.8664 123.783 114.806 123.783Z" fill="#FACF9D"/>
<path d="M114.814 124.187C157.591 124.187 185.664 158.376 185.664 158.376L114.855 229.672L44.0859 158.903C44.0859 158.903 72.0774 124.187 114.855 124.187H114.814Z" fill="#FAD09E"/>
<path d="M114.824 124.59C157.439 124.59 185.471 158.577 185.471 158.577L114.824 229.67L44.2578 159.063C44.2578 159.063 72.2087 124.59 114.824 124.59Z" fill="#FAD09F"/>
<path d="M114.809 124.998C157.221 124.998 185.294 158.782 185.294 158.782L114.849 229.672L44.4453 159.268C44.4453 159.268 72.3963 124.998 114.809 124.998Z" fill="#FAD1A0"/>
<path d="M114.809 125.402C157.06 125.402 185.092 158.943 185.092 158.943L114.85 229.671L44.6484 159.47C44.6484 159.47 72.5995 125.402 114.85 125.402H114.809Z" fill="#FAD1A1"/>
<path d="M114.804 125.809C156.892 125.809 184.884 159.148 184.884 159.148L114.804 229.673L44.8047 159.634C44.8047 159.634 72.7151 125.809 114.804 125.809Z" fill="#FBD2A2"/>
<path d="M114.812 126.212C156.738 126.212 184.73 159.348 184.73 159.348L114.853 229.671L45.0156 159.834C45.0156 159.834 72.926 126.212 114.812 126.212Z" fill="#FBD2A3"/>
<path d="M114.813 126.615C156.537 126.615 184.528 159.549 184.528 159.549L114.853 229.669L45.2188 160.035C45.2188 160.035 73.0887 126.615 114.853 126.615H114.813Z" fill="#FBD3A4"/>
<path d="M114.807 127.023C156.369 127.023 184.32 159.754 184.32 159.754L114.807 229.712L45.375 160.24C45.375 160.24 73.2449 127.023 114.807 127.023Z" fill="#FBD3A5"/>
<path d="M114.815 127.426C156.215 127.426 184.166 159.914 184.166 159.914L114.856 229.67L45.5859 160.4C45.5859 160.4 73.4559 127.426 114.815 127.426Z" fill="#FBD4A6"/>
<path d="M114.824 127.834C156.021 127.834 183.972 160.119 183.972 160.119L114.864 229.673L45.7969 160.605C45.7969 160.605 73.6264 127.834 114.864 127.834H114.824Z" fill="#FBD4A7"/>
<path d="M114.818 128.239C155.853 128.239 183.764 160.322 183.764 160.322L114.818 229.672L45.9531 160.767C45.9531 160.767 73.7826 128.198 114.818 128.198V128.239Z" fill="#FBD5A8"/>
<path d="M114.818 128.642C155.692 128.642 183.602 160.522 183.602 160.522L114.859 229.67L46.1562 160.968C46.1562 160.968 73.9856 128.642 114.818 128.642Z" fill="#FBD5A9"/>
<path d="M114.827 129.049C155.497 129.049 183.408 160.727 183.408 160.727L114.867 229.713L46.3672 161.213C46.3672 161.213 74.1561 129.089 114.867 129.089L114.827 129.049Z" fill="#FBD6AA"/>
<path d="M114.815 129.453C155.323 129.453 183.193 160.888 183.193 160.888L114.815 229.672L46.4766 161.333C46.4766 161.333 74.2656 129.413 114.774 129.413L114.815 129.453Z" fill="#FBD6AB"/>
<path d="M114.822 129.86C155.168 129.86 183.038 161.092 183.038 161.092L114.862 229.673L46.7266 161.538C46.7266 161.538 74.5155 129.86 114.822 129.86Z" fill="#FBD6AC"/>
<path d="M114.806 130.263C154.951 130.263 182.821 161.293 182.821 161.293L114.847 229.671L46.9141 161.738C46.9141 161.738 74.6624 130.263 114.847 130.263H114.806Z" fill="#FBD7AD"/>
<path d="M114.81 130.666C154.792 130.666 182.622 161.493 182.622 161.493L114.81 229.71L47.0391 161.939C47.0391 161.939 74.7875 130.666 114.77 130.666H114.81Z" fill="#FBD7AE"/>
<path d="M114.825 131.074C154.645 131.074 182.474 161.699 182.474 161.699L114.865 229.713L47.2969 162.144C47.2969 162.144 75.0452 131.115 114.825 131.115V131.074Z" fill="#FBD8AF"/>
<path d="M114.81 131.478C154.468 131.478 182.257 161.9 182.257 161.9L114.85 229.711L47.4844 162.345C47.4844 162.345 75.1923 131.518 114.85 131.518L114.81 131.478Z" fill="#FBD8B0"/>
<path d="M114.813 131.882C154.269 131.882 182.058 162.061 182.058 162.061L114.813 229.67L47.6094 162.466C47.6094 162.466 75.3174 131.841 114.773 131.841L114.813 131.882Z" fill="#FBD9B1"/>
<path d="M114.812 132.289C154.106 132.289 181.895 162.265 181.895 162.265L114.853 229.671L47.8516 162.67C47.8516 162.67 75.5595 132.289 114.812 132.289Z" fill="#FBD9B2"/>
<path d="M114.813 132.692C153.944 132.692 181.693 162.466 181.693 162.466L114.853 229.711L48.0547 162.912C48.0547 162.912 75.7221 132.733 114.853 132.733L114.813 132.692Z" fill="#FBDAB3"/>
<path d="M114.816 133.1C153.745 133.1 181.494 162.671 181.494 162.671L114.816 229.713L48.1797 163.076C48.1797 163.076 75.8471 133.1 114.776 133.1H114.816Z" fill="#FBDAB4"/>
<path d="M114.815 133.503C153.582 133.503 181.331 162.872 181.331 162.872L114.856 229.711L48.4219 163.277C48.4219 163.277 76.0893 133.503 114.856 133.503H114.815Z" fill="#FCDBB5"/>
<path d="M114.816 133.908C153.421 133.908 181.129 163.033 181.129 163.033L114.857 229.67L48.625 163.398C48.625 163.398 76.2519 133.867 114.857 133.867L114.816 133.908Z" fill="#FCDBB6"/>
<path d="M114.827 134.314C153.23 134.314 180.938 163.237 180.938 163.237L114.827 229.712L48.7578 163.642C48.7578 163.642 76.3848 134.314 114.787 134.314H114.827Z" fill="#FCDCB7"/>
<path d="M114.811 134.678C153.051 134.678 180.759 163.398 180.759 163.398L114.851 229.671L48.9844 163.803C48.9844 163.803 76.6113 134.678 114.851 134.678H114.811Z" fill="#FCDCB8"/>
<path d="M114.819 135.085C152.897 135.085 180.565 163.603 180.565 163.603L114.86 229.673L49.1953 163.968C49.1953 163.968 76.7817 135.085 114.86 135.085H114.819Z" fill="#FCDDB9"/>
<path d="M114.831 135.489C152.706 135.489 180.374 163.804 180.374 163.804L114.831 229.671L49.3281 164.169C49.3281 164.169 76.9145 135.489 114.79 135.489H114.831Z" fill="#FCDDBA"/>
<path d="M114.814 135.893C152.528 135.893 180.195 163.966 180.195 163.966L114.855 229.63L49.5547 164.33C49.5547 164.33 77.1006 135.853 114.855 135.853L114.814 135.893Z" fill="#FCDEBB"/>
<path d="M114.815 136.299C152.366 136.299 179.993 164.169 179.993 164.169L114.855 229.672L49.7578 164.534C49.7578 164.534 77.3037 136.299 114.855 136.299H114.815Z" fill="#FCDEBC"/>
<path d="M114.81 136.703C152.2 136.703 179.786 164.371 179.786 164.371L114.81 229.67L49.875 164.735C49.875 164.735 77.421 136.703 114.77 136.703H114.81Z" fill="#FCDFBD"/>
<path d="M114.817 137.111C152.004 137.111 179.631 164.576 179.631 164.576L114.858 229.673L50.125 164.94C50.125 164.94 77.6304 137.111 114.858 137.111H114.817Z" fill="#FCDFBE"/>
<path d="M114.826 137.515C151.851 137.515 179.437 164.777 179.437 164.777L114.866 229.672L50.3359 165.101C50.3359 165.101 77.8413 137.515 114.866 137.515H114.826Z" fill="#FCE0BF"/>
<path d="M114.813 137.918C151.676 137.918 179.222 164.978 179.222 164.978L114.813 229.711L50.4453 165.342C50.4453 165.342 77.9507 137.958 114.773 137.958L114.813 137.918Z" fill="#FCE0BF"/>
<path d="M114.82 138.326C151.481 138.326 179.067 165.142 179.067 165.142L114.861 229.673L50.6953 165.507C50.6953 165.507 78.1602 138.326 114.861 138.326H114.82Z" fill="#FCE1C0"/>
<path d="M114.823 138.729C151.321 138.729 178.867 165.343 178.867 165.343L114.863 229.671L50.8594 165.667C50.8594 165.667 78.3243 138.729 114.823 138.729Z" fill="#FCE1C1"/>
<path d="M114.825 139.137C151.161 139.137 178.666 165.548 178.666 165.548L114.825 229.674L51.0234 165.872C51.0234 165.872 78.4884 139.137 114.784 139.137H114.825Z" fill="#FCE2C2"/>
<path d="M114.816 139.54C150.95 139.54 178.496 165.749 178.496 165.749L114.856 229.671L51.2578 166.073C51.2578 166.073 78.6822 139.54 114.856 139.54H114.816Z" fill="#FCE2C3"/>
<path d="M114.826 139.943C150.797 139.943 178.303 165.949 178.303 165.949L114.866 229.71L51.4297 166.273C51.4297 166.273 78.854 139.943 114.826 139.943Z" fill="#FCE3C4"/>
<path d="M114.82 140.351C150.63 140.351 178.094 166.114 178.094 166.114L114.82 229.672L51.5859 166.438C51.5859 166.438 79.0103 140.351 114.779 140.351H114.82Z" fill="#FCE3C5"/>
<path d="M114.811 140.754C150.418 140.754 177.924 166.315 177.924 166.315L114.852 229.67L51.8203 166.639C51.8203 166.639 79.2042 140.754 114.852 140.754H114.811Z" fill="#FDE4C6"/>
<path d="M114.813 141.159C150.258 141.159 177.723 166.517 177.723 166.517L114.854 229.67L51.9844 166.801C51.9844 166.801 79.3681 141.118 114.813 141.118V141.159Z" fill="#FDE4C7"/>
<path d="M114.815 141.565C150.098 141.565 177.523 166.721 177.523 166.721L114.815 229.712L52.1484 167.045C52.1484 167.045 79.5324 141.606 114.775 141.606L114.815 141.565Z" fill="#FDE5C8"/>
<path d="M114.814 141.969C149.935 141.969 177.36 166.922 177.36 166.922L114.855 229.711L52.3906 167.246C52.3906 167.246 79.734 142.009 114.855 142.009L114.814 141.969Z" fill="#FDE5C9"/>
<path d="M114.816 142.377C149.735 142.377 177.159 167.087 177.159 167.087L114.857 229.673L52.5547 167.371C52.5547 167.371 79.898 142.336 114.816 142.336V142.377Z" fill="#FDE6CA"/>
<path d="M114.818 142.78C149.575 142.78 176.959 167.288 176.959 167.288L114.818 229.671L52.7188 167.571C52.7188 167.571 80.0621 142.78 114.778 142.78H114.818Z" fill="#FDE6CB"/>
<path d="M114.818 143.184C149.412 143.184 176.796 167.489 176.796 167.489L114.858 229.67L52.9609 167.732C52.9609 167.732 80.2638 143.144 114.858 143.144L114.818 143.184Z" fill="#FDE6CC"/>
<path d="M114.829 143.591C149.221 143.591 176.605 167.693 176.605 167.693L114.829 229.712L53.0938 167.977C53.0938 167.977 80.3966 143.591 114.788 143.591H114.829Z" fill="#FDE7CD"/>
<path d="M114.814 143.994C149.044 143.994 176.387 167.894 176.387 167.894L114.814 229.71L53.2812 168.177C53.2812 168.177 80.5842 144.034 114.773 144.034L114.814 143.994Z" fill="#FDE7CE"/>
<path d="M114.821 144.401C148.889 144.401 176.232 168.099 176.232 168.099L114.861 229.713L53.5312 168.342C53.5312 168.342 80.7936 144.401 114.861 144.401H114.821Z" fill="#FDE8CF"/>
<path d="M114.809 144.806C148.674 144.806 176.017 168.26 176.017 168.26L114.809 229.671L53.6406 168.503C53.6406 168.503 80.9031 144.765 114.768 144.765L114.809 144.806Z" fill="#FDE8D0"/>
<path d="M114.809 145.212C148.512 145.212 175.815 168.464 175.815 168.464L114.809 229.713L53.8438 168.748C53.8438 168.748 81.0655 145.253 114.809 145.253V145.212Z" fill="#FDE9D1"/>
<path d="M114.824 145.616C148.365 145.616 175.668 168.666 175.668 168.666L114.865 229.712L54.1016 168.909C54.1016 168.909 81.3234 145.616 114.865 145.616H114.824Z" fill="#FDE9D2"/>
<path d="M114.812 146.02C148.15 146.02 175.453 168.866 175.453 168.866L114.812 229.71L54.2109 169.109C54.2109 169.109 81.4328 146.02 114.771 146.02H114.812Z" fill="#FDEAD3"/>
<path d="M114.812 146.388C147.989 146.388 175.251 169.032 175.251 169.032L114.812 229.673L54.4141 169.275C54.4141 169.275 81.5954 146.388 114.812 146.388Z" fill="#FDEAD4"/>
<path d="M114.812 146.792C147.826 146.792 175.089 169.193 175.089 169.193L114.852 229.632L54.6562 169.396C54.6562 169.396 81.8376 146.751 114.852 146.751L114.812 146.792Z" fill="#FDEBD5"/>
<path d="M114.815 147.194C147.668 147.194 174.89 169.393 174.89 169.393L114.815 229.67L54.7812 169.636C54.7812 169.636 81.9627 147.194 114.775 147.194H114.815Z" fill="#FDEBD6"/>
<path d="M114.777 147.602C147.427 147.602 174.648 169.598 174.648 169.598L114.777 229.673L54.9453 169.841C54.9453 169.841 82.0862 147.602 114.777 147.602Z" fill="#FDECD7"/>
<path d="M114.784 148.005C147.272 148.005 174.493 169.799 174.493 169.799L114.824 229.671L55.1953 170.002C55.1953 170.002 82.3361 148.005 114.824 148.005H114.784Z" fill="#FDECD8"/>
<path d="M114.771 148.413C147.097 148.413 174.279 170.004 174.279 170.004L114.771 229.673L55.3047 170.206C55.3047 170.206 82.4455 148.413 114.731 148.413H114.771Z" fill="#FEEDD9"/>
<path d="M114.772 148.816C146.895 148.816 174.077 170.204 174.077 170.204L114.772 229.712L55.5078 170.448C55.5078 170.448 82.6081 148.856 114.772 148.856V148.816Z" fill="#FEEDDA"/>
<path d="M114.773 149.22C146.734 149.22 173.915 170.365 173.915 170.365L114.813 229.67L55.7109 170.568C55.7109 170.568 82.8113 149.22 114.773 149.22Z" fill="#FEEEDB"/>
<path d="M114.775 149.627C146.574 149.627 173.715 170.57 173.715 170.57L114.775 229.672L55.875 170.772C55.875 170.772 82.9753 149.627 114.734 149.627H114.775Z" fill="#FEEEDC"/>
<path d="M114.775 150.031C146.372 150.031 173.513 170.771 173.513 170.771L114.775 229.671L56.0781 170.974C56.0781 170.974 83.138 150.031 114.775 150.031Z" fill="#FEEFDC"/>
<path d="M114.784 150.438C146.218 150.438 173.359 170.976 173.359 170.976L114.824 229.673L56.2891 171.138C56.2891 171.138 83.3489 150.438 114.784 150.438Z" fill="#FEEFDD"/>
<path d="M114.77 150.842C146.043 150.842 173.143 171.178 173.143 171.178L114.77 229.713L56.4375 171.38C56.4375 171.38 83.4973 150.883 114.73 150.883L114.77 150.842Z" fill="#FEEFDE"/>
<path d="M114.771 151.246C145.841 151.246 172.941 171.338 172.941 171.338L114.771 229.67L56.6406 171.54C56.6406 171.54 83.6599 151.246 114.771 151.246Z" fill="#FEF0DF"/>
<path d="M114.779 151.653C145.687 151.653 172.787 171.543 172.787 171.543L114.819 229.672L56.8516 171.705C56.8516 171.705 83.8709 151.653 114.779 151.653Z" fill="#FEF0E0"/>
<path d="M114.781 152.057C145.527 152.057 172.587 171.744 172.587 171.744L114.781 229.671L57.0156 171.906C57.0156 171.906 84.0349 152.057 114.74 152.057H114.781Z" fill="#FEF1E1"/>
<path d="M114.774 152.464C145.317 152.464 172.377 171.949 172.377 171.949L114.774 229.714L57.2109 172.111C57.2109 172.111 84.1898 152.464 114.774 152.464Z" fill="#FEF1E2"/>
<path d="M114.782 152.867C145.164 152.867 172.223 172.149 172.223 172.149L114.823 229.712L57.4219 172.311C57.4219 172.311 84.4007 152.867 114.782 152.867Z" fill="#FEF2E3"/>
<path d="M114.776 153.271C144.996 153.271 172.015 172.31 172.015 172.31L114.776 229.67L57.5781 172.472C57.5781 172.472 84.557 153.271 114.736 153.271H114.776Z" fill="#FEF2E4"/>
<path d="M114.785 153.675C144.842 153.675 171.821 172.512 171.821 172.512L114.785 229.67L57.7891 172.633C57.7891 172.633 84.7273 153.635 114.785 153.635V153.675Z" fill="#FEF3E5"/>
<path d="M114.77 154.082C144.625 154.082 171.644 172.716 171.644 172.716L114.81 229.672L57.9766 172.838C57.9766 172.838 84.9149 154.042 114.77 154.042V154.082Z" fill="#FEF3E6"/>
<path d="M114.78 154.489C144.472 154.489 171.451 172.921 171.451 172.921L114.78 229.714L58.1484 173.083C58.1484 173.083 85.0867 154.53 114.739 154.53L114.78 154.489Z" fill="#FEF4E7"/>
<path d="M114.772 154.893C144.303 154.893 171.241 173.121 171.241 173.121L114.772 229.712L58.3438 173.243C58.3438 173.243 85.2416 154.893 114.772 154.893Z" fill="#FEF4E8"/>
<path d="M114.773 155.296C144.101 155.296 171.08 173.323 171.08 173.323L114.813 229.711L58.5469 173.444C58.5469 173.444 85.4446 155.296 114.773 155.296Z" fill="#FEF5E9"/>
<path d="M114.775 155.704C143.941 155.704 170.879 173.487 170.879 173.487L114.775 229.672L58.7109 173.608C58.7109 173.608 85.5682 155.704 114.734 155.704H114.775Z" fill="#FEF5EA"/>
<path d="M114.768 156.107C143.772 156.107 170.67 173.688 170.67 173.688L114.768 229.712L58.9062 173.81C58.9062 173.81 85.7635 156.107 114.768 156.107Z" fill="#FEF6EB"/>
<path d="M114.776 156.515C143.578 156.515 170.516 173.893 170.516 173.893L114.817 229.714L59.1172 174.014C59.1172 174.014 85.9745 156.515 114.776 156.515Z" fill="#FFF6EC"/>
<path d="M114.77 156.918C143.41 156.918 170.308 174.094 170.308 174.094L114.77 229.712L59.2734 174.215C59.2734 174.215 86.0902 156.958 114.77 156.958V156.918Z" fill="#FFF7ED"/>
<path d="M114.771 157.321C143.249 157.321 170.106 174.294 170.106 174.294L114.771 229.71L59.4766 174.375C59.4766 174.375 86.2934 157.321 114.771 157.321Z" fill="#FFF7EE"/>
<path d="M114.779 157.686C143.054 157.686 169.952 174.417 169.952 174.417L114.82 229.63L59.6875 174.498C59.6875 174.498 86.5043 157.646 114.779 157.646V157.686Z" fill="#FFF7EF"/>
<path d="M114.774 158.093C142.887 158.093 169.744 174.62 169.744 174.62L114.774 229.672L59.8438 174.742C59.8438 174.742 86.6201 158.133 114.774 158.133V158.093Z" fill="#FFF8F0"/>
<path d="M114.782 158.497C142.733 158.497 169.59 174.822 169.59 174.822L114.822 229.67L60.0547 174.903C60.0547 174.903 86.8309 158.497 114.782 158.497Z" fill="#FFF8F0"/>
<path d="M114.775 158.904C142.564 158.904 169.38 175.026 169.38 175.026L114.815 229.672L60.25 175.107C60.25 175.107 87.0263 158.904 114.775 158.904Z" fill="#FFF9F1"/>
<path d="M114.777 159.308C142.363 159.308 169.18 175.228 169.18 175.228L114.777 229.671L60.4141 175.309C60.4141 175.309 87.1498 159.308 114.777 159.308Z" fill="#FFF9F2"/>
<path d="M114.785 159.711C142.21 159.711 169.026 175.388 169.026 175.388L114.826 229.669L60.625 175.469C60.625 175.469 87.3608 159.711 114.785 159.711Z" fill="#FFFAF3"/>
<path d="M114.778 160.119C142.04 160.119 168.816 175.593 168.816 175.593L114.818 229.672L60.8203 175.674C60.8203 175.674 87.5561 160.119 114.778 160.119Z" fill="#FFFAF4"/>
<path d="M114.78 160.522C141.84 160.522 168.616 175.794 168.616 175.794L114.78 229.671L60.9844 175.875C60.9844 175.875 87.6797 160.522 114.78 160.522Z" fill="#FFFBF5"/>
<path d="M114.788 160.93C141.686 160.93 168.462 175.999 168.462 175.999L114.829 229.673L61.1953 176.039C61.1953 176.039 87.8906 160.93 114.788 160.93Z" fill="#FFFBF6"/>
<path d="M114.773 161.333C141.509 161.333 168.245 176.199 168.245 176.199L114.814 229.671L61.3828 176.24C61.3828 176.24 88.0781 161.333 114.773 161.333Z" fill="#FFFCF7"/>
<path d="M114.783 161.736C141.316 161.736 168.052 176.4 168.052 176.4L114.783 229.71L61.5547 176.441C61.5547 176.441 88.2094 161.736 114.783 161.736Z" fill="#FFFCF8"/>
<path d="M114.768 162.144C141.139 162.144 167.875 176.565 167.875 176.565L114.809 229.671L61.7422 176.605C61.7422 176.605 88.397 162.144 114.768 162.144Z" fill="#FFFCF9"/>
<path d="M114.769 162.547C140.978 162.547 167.673 176.766 167.673 176.766L114.809 229.67L61.9453 176.806C61.9453 176.806 88.6 162.547 114.769 162.547Z" fill="#FFFDFA"/>
<path d="M114.771 162.952C140.777 162.952 167.472 176.968 167.472 176.968L114.771 229.67L62.1094 176.968C62.1094 176.968 88.7236 162.912 114.771 162.912V162.952Z" fill="#FFFDFB"/>
<path d="M114.779 163.358C140.624 163.358 167.319 177.172 167.319 177.172L114.819 229.712L62.3203 177.212C62.3203 177.212 88.9345 163.399 114.779 163.399V163.358Z" fill="#FFFEFC"/>
<path d="M114.772 163.762C140.454 163.762 167.109 177.373 167.109 177.373L114.812 229.71L62.5156 177.413C62.5156 177.413 89.1299 163.802 114.772 163.802V163.762Z" fill="#FFFEFD"/>
<path d="M114.774 164.17C140.294 164.17 166.909 177.538 166.909 177.538L114.774 229.673L62.6797 177.538C62.6797 177.538 89.2534 164.13 114.774 164.13V164.17Z" fill="#FFFEFD"/>
<path d="M114.782 164.573C140.1 164.573 166.755 177.739 166.755 177.739L114.823 229.671L62.8906 177.739C62.8906 177.739 89.4644 164.573 114.782 164.573Z" fill="#FFFFFE"/>
<path d="M114.775 164.98C139.931 164.98 166.545 177.943 166.545 177.943L114.815 229.673L63.0859 177.943C63.0859 177.943 89.6191 164.98 114.775 164.98Z" fill="white"/>
<path d="M166.391 178.145C166.391 178.145 139.777 165.384 114.824 165.384C89.8706 165.384 63.2969 178.145 63.2969 178.145L114.824 229.712L166.391 178.145Z" fill="white"/>
<path d="M78.9609 193.863L114.811 229.714L229.653 114.912C170.146 132.29 120.28 156.069 78.9609 193.904V193.863Z" fill="#6D6C6C"/>
</svg>
