<svg width="308" height="184" viewBox="0 0 308 184" fill="none" xmlns="http://www.w3.org/2000/svg">
<path d="M114.762 47.3135H94.1431C91.1859 47.3135 89.6871 47.597 88.5528 48.3667C87.054 49.4199 86.487 51.1618 86.0819 53.4708L72.7138 128.979C72.3492 131.085 72.1063 133.394 73.8482 135.055C75.104 136.23 76.8051 136.433 79.6812 136.433H96.2896C124.727 136.433 140.688 127.561 143.807 110.061C144.9 103.945 143.482 98.719 139.594 94.5871C138.014 92.8857 136.029 91.3869 133.68 90.0906C141.295 86.3638 145.913 80.247 147.412 71.7807C148.505 65.5424 147.371 60.2762 143.968 56.2254C138.945 50.2301 129.385 47.3135 114.762 47.3135ZM126.226 109.211C124.727 117.718 115.167 122.052 97.7884 122.052H91.6315L96.0063 97.4632H101.839C114.275 97.4632 120.068 99.3266 122.742 100.906C125.902 102.77 126.955 105.241 126.226 109.211ZM129.871 70.8085C129.183 74.5353 127.117 77.3709 123.431 79.4774C119.38 81.7863 113.466 83.0016 105.81 83.0016H98.8012L102.609 61.613H113.506C123.552 61.613 127.4 63.7195 128.899 65.5019C129.304 65.9475 130.479 67.3653 129.871 70.849" fill="#0C367F"/>
<path d="M229.317 54.849C226.765 52.4185 223.403 50.5146 219.231 49.1778C215.261 47.9221 210.44 47.2739 204.89 47.2739H178.924C177.831 47.2739 176.939 47.2739 176.332 47.3549C175.116 47.436 174.064 47.76 173.172 48.3677C172.16 49.0563 171.39 50.1095 171.066 51.4058C170.904 51.9324 170.742 52.6616 170.58 53.6338L156.969 130.479C156.685 132.018 157.05 133.476 157.982 134.611C158.67 135.421 160.007 136.433 162.275 136.433H168.473C171.552 136.433 173.82 134.611 174.306 131.815L179.694 101.434H188.241C191.037 101.353 193.345 101.272 195.128 101.231C196.262 101.15 197.437 101.069 198.693 100.948C199.26 102.204 199.948 103.621 200.677 105.282C201.771 107.875 203.311 111.399 205.295 115.774C207.28 120.149 209.671 125.78 212.587 132.707C213.64 135.097 215.868 136.474 218.745 136.474H225.874C227.616 136.474 229.114 135.745 230.046 134.449C231.018 133.152 231.262 131.532 230.776 130.033L214.977 96.6135C216.354 95.9653 217.691 95.2767 219.028 94.507C221.621 93.0487 224.011 91.3473 226.158 89.4839C228.345 87.58 230.208 85.4736 231.707 83.2051C233.287 80.7746 234.34 78.182 234.826 75.5085C235.556 71.4171 235.474 67.6093 234.664 64.166C233.773 60.5608 231.991 57.4011 229.317 54.849ZM217.205 74.2122C216.881 75.9946 216.152 77.5744 214.896 79.0327C213.559 80.6125 211.817 81.9898 209.711 83.2051C207.483 84.4204 204.891 85.3926 201.933 86.0407C198.895 86.7294 195.654 87.0534 192.171 87.0534H182.165L186.662 61.5735H197.68C202.379 61.5735 206.268 61.857 209.225 62.3837C211.817 62.8698 213.843 63.6394 215.18 64.6116C216.274 65.4623 216.922 66.4345 217.246 67.7713C217.61 69.4322 217.57 71.6196 217.124 74.2122" fill="#0C367F"/>
<path d="M153.69 18.9581C226.727 18.9581 288.421 52.3372 288.421 91.8736C288.421 131.41 226.727 164.789 153.69 164.789C80.6525 164.789 18.9578 131.41 18.9578 91.8736C18.9578 52.3372 80.6525 18.9581 153.69 18.9581ZM153.69 0C68.824 0 0 41.1163 0 91.8736C0 142.631 68.824 183.707 153.69 183.707C238.555 183.707 307.339 142.59 307.339 91.8736C307.339 41.1568 238.555 0 153.69 0Z" fill="#0C367F"/>
</svg>
