<svg width="483" height="127" viewBox="0 0 483 127" fill="none" xmlns="http://www.w3.org/2000/svg">
<path d="M0 4.416H26.0065L26.047 53.9581L70.8496 53.9176L70.8091 4.416L96.8561 4.37549L96.8966 126.023H70.8496L70.8091 74.2124L26.047 74.2934L26.0065 126.023H0V4.416Z" fill="#231815"/>
<path d="M127.849 126.022H100.992L147.051 9.23597C147.051 9.23597 149.927 0 161.674 0C173.422 0 176.622 9.19546 176.622 9.19546L222.275 126.103H195.458L161.674 35.8097L127.931 126.063L127.849 126.022Z" fill="#231815"/>
<path d="M139.955 126.308L156.361 84.4621C156.361 84.4621 158.71 77.4541 161.748 77.4136C164.867 77.4136 166.974 84.4621 166.974 84.4621L183.339 126.267H139.914L139.955 126.308Z" fill="#0068B7"/>
<path d="M249.624 4.37493V105.687H297.464V4.41544H323.43V105.687H369.408L407.324 9.15496C407.324 9.15496 410.2 0 421.947 0C433.695 0 436.652 9.23597 436.652 9.23597L482.549 126.022H455.731L441.432 89.6457H402.584L388.285 126.022H249.624C249.624 126.022 236.985 126.59 229.491 120.594C223.415 115.693 223.658 105.606 223.658 105.606V4.41544H249.624V4.37493ZM433.452 69.3103L421.988 35.8502L410.605 69.3508H433.452V69.3103Z" fill="#231815"/>
</svg>
