<svg width="230" height="230" viewBox="0 0 230 230" fill="none" xmlns="http://www.w3.org/2000/svg">
<path d="M40.5087 114.842L114.801 40.5087L185.732 111.439L205.986 91.185L114.801 0L106.335 8.46631L94.5471 20.2543L20.2543 94.5472L9.68138 105.12L0 114.842L114.801 229.644L135.056 209.389L40.5087 114.842Z" fill="#0066B5"/>
<path d="M209.397 94.5466L185.74 118.204L114.809 47.2729L94.5547 67.5273L165.485 138.458L141.828 162.115L162.083 182.369L229.651 114.841L209.397 94.5466Z" fill="#84338E"/>
<path d="M135.063 162.113L138.628 158.549L145.474 151.703C152.766 144.411 152.766 132.542 145.474 125.25L104.398 84.1747C97.1068 76.8832 85.2379 76.8832 77.9463 84.1747L70.8979 91.2232L67.5356 94.5854L66.6443 95.4766L47.2812 114.84L138.466 206.025L158.721 185.77L135.104 162.154L135.063 162.113ZM91.1925 111.437L118.212 138.456L114.85 141.819L87.8305 114.799L91.1925 111.437Z" fill="#F7AF00"/>
</svg>
