<svg width="33" height="33" viewBox="0 0 33 33" fill="none" xmlns="http://www.w3.org/2000/svg">
<mask id="path-1-outside-1_25_196" maskUnits="userSpaceOnUse" x="1.94629" y="1.94617" width="29" height="29" fill="black">
<rect fill="white" x="1.94629" y="1.94617" width="29" height="29"/>
<path d="M15.125 18.0702C16.535 18.0703 17.6784 19.2129 17.6787 20.6229V27.4989C17.6785 28.9089 16.5351 30.0515 15.125 30.0516H5.5C4.08994 30.0515 2.94653 28.9089 2.94629 27.4989V20.6229C2.94658 19.2129 4.08997 18.0703 5.5 18.0702H15.125ZM27.501 18.0702C28.9111 18.0702 30.0554 19.2129 30.0557 20.6229V27.4989C30.0554 28.909 28.9111 30.0516 27.501 30.0516H23.376C21.9661 30.0513 20.8235 28.9088 20.8232 27.4989V20.6229C20.8235 19.2131 21.9662 18.0706 23.376 18.0702H27.501ZM5.5 20.4266C5.39178 20.4267 5.304 20.5147 5.30371 20.6229V27.4989C5.30395 27.6071 5.39175 27.6941 5.5 27.6942H15.125C15.2332 27.6941 15.3211 27.6071 15.3213 27.4989V20.6229C15.321 20.5148 15.2332 20.4267 15.125 20.4266H5.5ZM23.376 20.4266C23.268 20.427 23.181 20.5149 23.1807 20.6229V27.4989C23.1809 27.607 23.268 27.6939 23.376 27.6942H27.501C27.6093 27.6942 27.698 27.6072 27.6982 27.4989V20.6229C27.698 20.5147 27.6093 20.4266 27.501 20.4266H23.376ZM27.5 2.94617C28.9101 2.94627 30.0536 4.08973 30.0537 5.49988V12.3749C30.0537 13.7851 28.9102 14.9285 27.5 14.9286H5.5C4.08979 14.9285 2.94629 13.7851 2.94629 12.3749V5.49988C2.94639 4.08973 4.08985 2.94627 5.5 2.94617H27.5ZM5.5 5.30359C5.39167 5.30369 5.30381 5.39155 5.30371 5.49988V12.3749C5.30371 12.4833 5.3916 12.5711 5.5 12.5712H27.5C27.6084 12.5711 27.6963 12.4833 27.6963 12.3749V5.49988C27.6962 5.39155 27.6083 5.30369 27.5 5.30359H5.5Z"/>
</mask>
<g filter="url(#filter0_i_25_196)">
<path d="M15.125 18.0702C16.535 18.0703 17.6784 19.2129 17.6787 20.6229V27.4989C17.6785 28.9089 16.5351 30.0515 15.125 30.0516H5.5C4.08994 30.0515 2.94653 28.9089 2.94629 27.4989V20.6229C2.94658 19.2129 4.08997 18.0703 5.5 18.0702H15.125ZM27.501 18.0702C28.9111 18.0702 30.0554 19.2129 30.0557 20.6229V27.4989C30.0554 28.909 28.9111 30.0516 27.501 30.0516H23.376C21.9661 30.0513 20.8235 28.9088 20.8232 27.4989V20.6229C20.8235 19.2131 21.9662 18.0706 23.376 18.0702H27.501ZM5.5 20.4266C5.39178 20.4267 5.304 20.5147 5.30371 20.6229V27.4989C5.30395 27.6071 5.39175 27.6941 5.5 27.6942H15.125C15.2332 27.6941 15.3211 27.6071 15.3213 27.4989V20.6229C15.321 20.5148 15.2332 20.4267 15.125 20.4266H5.5ZM23.376 20.4266C23.268 20.427 23.181 20.5149 23.1807 20.6229V27.4989C23.1809 27.607 23.268 27.6939 23.376 27.6942H27.501C27.6093 27.6942 27.698 27.6072 27.6982 27.4989V20.6229C27.698 20.5147 27.6093 20.4266 27.501 20.4266H23.376ZM27.5 2.94617C28.9101 2.94627 30.0536 4.08973 30.0537 5.49988V12.3749C30.0537 13.7851 28.9102 14.9285 27.5 14.9286H5.5C4.08979 14.9285 2.94629 13.7851 2.94629 12.3749V5.49988C2.94639 4.08973 4.08985 2.94627 5.5 2.94617H27.5ZM5.5 5.30359C5.39167 5.30369 5.30381 5.39155 5.30371 5.49988V12.3749C5.30371 12.4833 5.3916 12.5711 5.5 12.5712H27.5C27.6084 12.5711 27.6963 12.4833 27.6963 12.3749V5.49988C27.6962 5.39155 27.6083 5.30369 27.5 5.30359H5.5Z" fill="url(#paint0_linear_25_196)"/>
</g>
<path d="M15.125 18.0702L15.125 17.5702H15.125V18.0702ZM17.6787 20.6229H18.1787V20.6228L17.6787 20.6229ZM17.6787 27.4989L18.1787 27.499V27.4989H17.6787ZM15.125 30.0516V30.5516H15.125L15.125 30.0516ZM5.5 30.0516L5.49996 30.5516H5.5V30.0516ZM2.94629 27.4989H2.44629V27.499L2.94629 27.4989ZM2.94629 20.6229L2.44629 20.6228V20.6229H2.94629ZM5.5 18.0702V17.5702H5.49996L5.5 18.0702ZM30.0557 20.6229H30.5557V20.6228L30.0557 20.6229ZM30.0557 27.4989L30.5557 27.499V27.4989H30.0557ZM23.376 30.0516L23.3758 30.5516H23.376V30.0516ZM20.8232 27.4989H20.3232V27.499L20.8232 27.4989ZM20.8232 20.6229L20.3232 20.6228V20.6229H20.8232ZM23.376 18.0702V17.5702H23.3758L23.376 18.0702ZM5.5 20.4266V19.9266H5.49952L5.5 20.4266ZM5.30371 20.6229L4.80371 20.6216V20.6229H5.30371ZM5.30371 27.4989H4.80371L4.80371 27.5L5.30371 27.4989ZM5.5 27.6942L5.49952 28.1942H5.5V27.6942ZM15.125 27.6942V28.1942H15.1255L15.125 27.6942ZM15.3213 27.4989L15.8213 27.5V27.4989H15.3213ZM15.3213 20.6229H15.8213L15.8213 20.6216L15.3213 20.6229ZM15.125 20.4266L15.1255 19.9266H15.125V20.4266ZM23.376 20.4266V19.9266L23.3743 19.9266L23.376 20.4266ZM23.1807 20.6229L22.6807 20.6216V20.6229H23.1807ZM23.1807 27.4989H22.6807L22.6807 27.5L23.1807 27.4989ZM23.376 27.6942L23.3743 28.1942H23.376V27.6942ZM27.6982 27.4989L28.1982 27.5V27.4989H27.6982ZM27.6982 20.6229H28.1982L28.1982 20.6216L27.6982 20.6229ZM27.5 2.94617L27.5 2.44617H27.5V2.94617ZM30.0537 5.49988H30.5537V5.49984L30.0537 5.49988ZM27.5 14.9286V15.4286H27.5L27.5 14.9286ZM5.5 14.9286L5.49996 15.4286H5.5V14.9286ZM2.94629 5.49988L2.44629 5.49984V5.49988H2.94629ZM5.5 2.94617V2.44617H5.49996L5.5 2.94617ZM5.5 5.30359V4.80359L5.49952 4.80359L5.5 5.30359ZM5.30371 5.49988L4.80371 5.4994V5.49988H5.30371ZM5.5 12.5712L5.49952 13.0712H5.5V12.5712ZM27.5 12.5712V13.0712H27.5005L27.5 12.5712ZM27.6963 5.49988H28.1963V5.4994L27.6963 5.49988ZM27.5 5.30359L27.5005 4.80359H27.5V5.30359ZM15.125 18.0702L15.125 18.5702C16.2591 18.5703 17.1785 19.4893 17.1787 20.623L17.6787 20.6229L18.1787 20.6228C18.1784 18.9366 16.811 17.5703 15.125 17.5702L15.125 18.0702ZM17.6787 20.6229H17.1787V27.4989H17.6787H18.1787V20.6229H17.6787ZM17.6787 27.4989L17.1787 27.4988C17.1785 28.6326 16.2591 29.5516 15.125 29.5516L15.125 30.0516L15.125 30.5516C16.811 30.5515 18.1784 29.1853 18.1787 27.499L17.6787 27.4989ZM15.125 30.0516V29.5516H5.5V30.0516V30.5516H15.125V30.0516ZM5.5 30.0516L5.50004 29.5516C4.36589 29.5516 3.44648 28.6326 3.44629 27.4988L2.94629 27.4989L2.44629 27.499C2.44657 29.1853 3.81399 30.5515 5.49996 30.5516L5.5 30.0516ZM2.94629 27.4989H3.44629V20.6229H2.94629H2.44629V27.4989H2.94629ZM2.94629 20.6229L3.44629 20.623C3.44652 19.4893 4.36593 18.5703 5.50004 18.5702L5.5 18.0702L5.49996 17.5702C3.814 17.5703 2.44663 18.9366 2.44629 20.6228L2.94629 20.6229ZM5.5 18.0702V18.5702H15.125V18.0702V17.5702H5.5V18.0702ZM27.501 18.0702V18.5702C28.6354 18.5702 29.5554 19.4894 29.5557 20.623L30.0557 20.6229L30.5557 20.6228C30.5553 18.9363 29.1868 17.5702 27.501 17.5702V18.0702ZM30.0557 20.6229H29.5557V27.4989H30.0557H30.5557V20.6229H30.0557ZM30.0557 27.4989L29.5557 27.4988C29.5555 28.6324 28.6354 29.5516 27.501 29.5516V30.0516V30.5516C29.1869 30.5516 30.5554 29.1856 30.5557 27.499L30.0557 27.4989ZM27.501 30.0516V29.5516H23.376V30.0516V30.5516H27.501V30.0516ZM23.376 30.0516L23.3761 29.5516C22.2423 29.5513 21.3234 28.6326 21.3232 27.4988L20.8232 27.4989L20.3232 27.499C20.3235 29.185 21.69 30.5512 23.3758 30.5516L23.376 30.0516ZM20.8232 27.4989H21.3232V20.6229H20.8232H20.3232V27.4989H20.8232ZM20.8232 20.6229L21.3232 20.623C21.3235 19.4893 22.2423 18.5705 23.3761 18.5702L23.376 18.0702L23.3758 17.5702C21.69 17.5706 20.3236 18.9369 20.3232 20.6228L20.8232 20.6229ZM23.376 18.0702V18.5702H27.501V18.0702V17.5702H23.376V18.0702ZM5.5 20.4266L5.49952 19.9266C5.11469 19.927 4.80473 20.2392 4.80371 20.6216L5.30371 20.6229L5.80371 20.6243C5.80327 20.7903 5.66888 20.9265 5.50048 20.9266L5.5 20.4266ZM5.30371 20.6229H4.80371V27.4989H5.30371H5.80371V20.6229H5.30371ZM5.30371 27.4989L4.80371 27.5C4.80456 27.8861 5.11813 28.1938 5.49952 28.1942L5.5 27.6942L5.50048 27.1942C5.66537 27.1944 5.80334 27.3281 5.80371 27.4978L5.30371 27.4989ZM5.5 27.6942V28.1942H15.125V27.6942V27.1942H5.5V27.6942ZM15.125 27.6942L15.1255 28.1942C15.5069 28.1938 15.8204 27.8861 15.8213 27.5L15.3213 27.4989L14.8213 27.4978C14.8217 27.3281 14.9596 27.1944 15.1245 27.1942L15.125 27.6942ZM15.3213 27.4989H15.8213V20.6229H15.3213H14.8213V27.4989H15.3213ZM15.3213 20.6229L15.8213 20.6216C15.8203 20.2392 15.5103 19.927 15.1255 19.9266L15.125 20.4266L15.1245 20.9266C14.9561 20.9265 14.8217 20.7903 14.8213 20.6243L15.3213 20.6229ZM15.125 20.4266V19.9266H5.5V20.4266V20.9266H15.125V20.4266ZM23.376 20.4266L23.3743 19.9266C22.9886 19.9279 22.6817 20.2414 22.6807 20.6216L23.1807 20.6229L23.6807 20.6243C23.6802 20.7884 23.5474 20.9261 23.3777 20.9266L23.376 20.4266ZM23.1807 20.6229H22.6807V27.4989H23.1807H23.6807V20.6229H23.1807ZM23.1807 27.4989L22.6807 27.5C22.6815 27.8839 22.992 28.1929 23.3743 28.1942L23.376 27.6942L23.3777 27.1942C23.5439 27.1948 23.6803 27.33 23.6807 27.4978L23.1807 27.4989ZM23.376 27.6942V28.1942H27.501V27.6942V27.1942H23.376V27.6942ZM27.501 27.6942V28.1942C27.8801 28.1942 28.1974 27.8889 28.1982 27.5L27.6982 27.4989L27.1982 27.4978C27.1986 27.3254 27.3386 27.1942 27.501 27.1942V27.6942ZM27.6982 27.4989H28.1982V20.6229H27.6982H27.1982V27.4989H27.6982ZM27.6982 20.6229L28.1982 20.6216C28.1972 20.2364 27.8835 19.9266 27.501 19.9266V20.4266V20.9266C27.335 20.9266 27.1987 20.793 27.1982 20.6243L27.6982 20.6229ZM27.501 20.4266V19.9266H23.376V20.4266V20.9266H27.501V20.4266ZM27.5 2.94617L27.5 3.44617C28.634 3.44625 29.5536 4.36588 29.5537 5.49991L30.0537 5.49988L30.5537 5.49984C30.5536 3.81358 29.1863 2.44629 27.5 2.44617L27.5 2.94617ZM30.0537 5.49988H29.5537V12.3749H30.0537H30.5537V5.49988H30.0537ZM30.0537 12.3749H29.5537C29.5537 13.5089 28.6341 14.4285 27.5 14.4286L27.5 14.9286L27.5 15.4286C29.1863 15.4285 30.5537 14.0613 30.5537 12.3749H30.0537ZM27.5 14.9286V14.4286H5.5V14.9286V15.4286H27.5V14.9286ZM5.5 14.9286L5.50004 14.4286C4.3659 14.4285 3.44629 13.5089 3.44629 12.3749H2.94629H2.44629C2.44629 14.0613 3.81368 15.4285 5.49996 15.4286L5.5 14.9286ZM2.94629 12.3749H3.44629V5.49988H2.94629H2.44629V12.3749H2.94629ZM2.94629 5.49988L3.44629 5.49991C3.44637 4.36588 4.366 3.44625 5.50004 3.44617L5.5 2.94617L5.49996 2.44617C3.8137 2.44629 2.44641 3.81358 2.44629 5.49984L2.94629 5.49988ZM5.5 2.94617V3.44617H27.5V2.94617V2.44617H5.5V2.94617ZM5.5 5.30359L5.49952 4.80359C5.11542 4.80396 4.80408 5.1153 4.80371 5.4994L5.30371 5.49988L5.80371 5.50036C5.80355 5.66779 5.66791 5.80343 5.50048 5.80359L5.5 5.30359ZM5.30371 5.49988H4.80371V12.3749H5.30371H5.80371V5.49988H5.30371ZM5.30371 12.3749H4.80371C4.80371 12.7599 5.11583 13.0708 5.49952 13.0712L5.5 12.5712L5.50048 12.0712C5.66737 12.0713 5.80371 12.2067 5.80371 12.3749H5.30371ZM5.5 12.5712V13.0712H27.5V12.5712V12.0712H5.5V12.5712ZM27.5 12.5712L27.5005 13.0712C27.8842 13.0708 28.1963 12.7599 28.1963 12.3749H27.6963H27.1963C27.1963 12.2067 27.3326 12.0713 27.4995 12.0712L27.5 12.5712ZM27.6963 12.3749H28.1963V5.49988H27.6963H27.1963V12.3749H27.6963ZM27.6963 5.49988L28.1963 5.4994C28.1959 5.1153 27.8846 4.80396 27.5005 4.80359L27.5 5.30359L27.4995 5.80359C27.3321 5.80343 27.1964 5.66779 27.1963 5.50036L27.6963 5.49988ZM27.5 5.30359V4.80359H5.5V5.30359V5.80359H27.5V5.30359Z" fill="black" fill-opacity="0.1" mask="url(#path-1-outside-1_25_196)"/>
<path d="M15.125 18.0702L15.125 17.5702H15.125V18.0702ZM17.6787 20.6229H18.1787V20.6228L17.6787 20.6229ZM17.6787 27.4989L18.1787 27.499V27.4989H17.6787ZM15.125 30.0516V30.5516H15.125L15.125 30.0516ZM5.5 30.0516L5.49996 30.5516H5.5V30.0516ZM2.94629 27.4989H2.44629V27.499L2.94629 27.4989ZM2.94629 20.6229L2.44629 20.6228V20.6229H2.94629ZM5.5 18.0702V17.5702H5.49996L5.5 18.0702ZM30.0557 20.6229H30.5557V20.6228L30.0557 20.6229ZM30.0557 27.4989L30.5557 27.499V27.4989H30.0557ZM23.376 30.0516L23.3758 30.5516H23.376V30.0516ZM20.8232 27.4989H20.3232V27.499L20.8232 27.4989ZM20.8232 20.6229L20.3232 20.6228V20.6229H20.8232ZM23.376 18.0702V17.5702H23.3758L23.376 18.0702ZM5.5 20.4266V19.9266H5.49952L5.5 20.4266ZM5.30371 20.6229L4.80371 20.6216V20.6229H5.30371ZM5.30371 27.4989H4.80371L4.80371 27.5L5.30371 27.4989ZM5.5 27.6942L5.49952 28.1942H5.5V27.6942ZM15.125 27.6942V28.1942H15.1255L15.125 27.6942ZM15.3213 27.4989L15.8213 27.5V27.4989H15.3213ZM15.3213 20.6229H15.8213L15.8213 20.6216L15.3213 20.6229ZM15.125 20.4266L15.1255 19.9266H15.125V20.4266ZM23.376 20.4266V19.9266L23.3743 19.9266L23.376 20.4266ZM23.1807 20.6229L22.6807 20.6216V20.6229H23.1807ZM23.1807 27.4989H22.6807L22.6807 27.5L23.1807 27.4989ZM23.376 27.6942L23.3743 28.1942H23.376V27.6942ZM27.6982 27.4989L28.1982 27.5V27.4989H27.6982ZM27.6982 20.6229H28.1982L28.1982 20.6216L27.6982 20.6229ZM27.5 2.94617L27.5 2.44617H27.5V2.94617ZM30.0537 5.49988H30.5537V5.49984L30.0537 5.49988ZM27.5 14.9286V15.4286H27.5L27.5 14.9286ZM5.5 14.9286L5.49996 15.4286H5.5V14.9286ZM2.94629 5.49988L2.44629 5.49984V5.49988H2.94629ZM5.5 2.94617V2.44617H5.49996L5.5 2.94617ZM5.5 5.30359V4.80359L5.49952 4.80359L5.5 5.30359ZM5.30371 5.49988L4.80371 5.4994V5.49988H5.30371ZM5.5 12.5712L5.49952 13.0712H5.5V12.5712ZM27.5 12.5712V13.0712H27.5005L27.5 12.5712ZM27.6963 5.49988H28.1963V5.4994L27.6963 5.49988ZM27.5 5.30359L27.5005 4.80359H27.5V5.30359ZM15.125 18.0702L15.125 18.5702C16.2591 18.5703 17.1785 19.4893 17.1787 20.623L17.6787 20.6229L18.1787 20.6228C18.1784 18.9366 16.811 17.5703 15.125 17.5702L15.125 18.0702ZM17.6787 20.6229H17.1787V27.4989H17.6787H18.1787V20.6229H17.6787ZM17.6787 27.4989L17.1787 27.4988C17.1785 28.6326 16.2591 29.5516 15.125 29.5516L15.125 30.0516L15.125 30.5516C16.811 30.5515 18.1784 29.1853 18.1787 27.499L17.6787 27.4989ZM15.125 30.0516V29.5516H5.5V30.0516V30.5516H15.125V30.0516ZM5.5 30.0516L5.50004 29.5516C4.36589 29.5516 3.44648 28.6326 3.44629 27.4988L2.94629 27.4989L2.44629 27.499C2.44657 29.1853 3.81399 30.5515 5.49996 30.5516L5.5 30.0516ZM2.94629 27.4989H3.44629V20.6229H2.94629H2.44629V27.4989H2.94629ZM2.94629 20.6229L3.44629 20.623C3.44652 19.4893 4.36593 18.5703 5.50004 18.5702L5.5 18.0702L5.49996 17.5702C3.814 17.5703 2.44663 18.9366 2.44629 20.6228L2.94629 20.6229ZM5.5 18.0702V18.5702H15.125V18.0702V17.5702H5.5V18.0702ZM27.501 18.0702V18.5702C28.6354 18.5702 29.5554 19.4894 29.5557 20.623L30.0557 20.6229L30.5557 20.6228C30.5553 18.9363 29.1868 17.5702 27.501 17.5702V18.0702ZM30.0557 20.6229H29.5557V27.4989H30.0557H30.5557V20.6229H30.0557ZM30.0557 27.4989L29.5557 27.4988C29.5555 28.6324 28.6354 29.5516 27.501 29.5516V30.0516V30.5516C29.1869 30.5516 30.5554 29.1856 30.5557 27.499L30.0557 27.4989ZM27.501 30.0516V29.5516H23.376V30.0516V30.5516H27.501V30.0516ZM23.376 30.0516L23.3761 29.5516C22.2423 29.5513 21.3234 28.6326 21.3232 27.4988L20.8232 27.4989L20.3232 27.499C20.3235 29.185 21.69 30.5512 23.3758 30.5516L23.376 30.0516ZM20.8232 27.4989H21.3232V20.6229H20.8232H20.3232V27.4989H20.8232ZM20.8232 20.6229L21.3232 20.623C21.3235 19.4893 22.2423 18.5705 23.3761 18.5702L23.376 18.0702L23.3758 17.5702C21.69 17.5706 20.3236 18.9369 20.3232 20.6228L20.8232 20.6229ZM23.376 18.0702V18.5702H27.501V18.0702V17.5702H23.376V18.0702ZM5.5 20.4266L5.49952 19.9266C5.11469 19.927 4.80473 20.2392 4.80371 20.6216L5.30371 20.6229L5.80371 20.6243C5.80327 20.7903 5.66888 20.9265 5.50048 20.9266L5.5 20.4266ZM5.30371 20.6229H4.80371V27.4989H5.30371H5.80371V20.6229H5.30371ZM5.30371 27.4989L4.80371 27.5C4.80456 27.8861 5.11813 28.1938 5.49952 28.1942L5.5 27.6942L5.50048 27.1942C5.66537 27.1944 5.80334 27.3281 5.80371 27.4978L5.30371 27.4989ZM5.5 27.6942V28.1942H15.125V27.6942V27.1942H5.5V27.6942ZM15.125 27.6942L15.1255 28.1942C15.5069 28.1938 15.8204 27.8861 15.8213 27.5L15.3213 27.4989L14.8213 27.4978C14.8217 27.3281 14.9596 27.1944 15.1245 27.1942L15.125 27.6942ZM15.3213 27.4989H15.8213V20.6229H15.3213H14.8213V27.4989H15.3213ZM15.3213 20.6229L15.8213 20.6216C15.8203 20.2392 15.5103 19.927 15.1255 19.9266L15.125 20.4266L15.1245 20.9266C14.9561 20.9265 14.8217 20.7903 14.8213 20.6243L15.3213 20.6229ZM15.125 20.4266V19.9266H5.5V20.4266V20.9266H15.125V20.4266ZM23.376 20.4266L23.3743 19.9266C22.9886 19.9279 22.6817 20.2414 22.6807 20.6216L23.1807 20.6229L23.6807 20.6243C23.6802 20.7884 23.5474 20.9261 23.3777 20.9266L23.376 20.4266ZM23.1807 20.6229H22.6807V27.4989H23.1807H23.6807V20.6229H23.1807ZM23.1807 27.4989L22.6807 27.5C22.6815 27.8839 22.992 28.1929 23.3743 28.1942L23.376 27.6942L23.3777 27.1942C23.5439 27.1948 23.6803 27.33 23.6807 27.4978L23.1807 27.4989ZM23.376 27.6942V28.1942H27.501V27.6942V27.1942H23.376V27.6942ZM27.501 27.6942V28.1942C27.8801 28.1942 28.1974 27.8889 28.1982 27.5L27.6982 27.4989L27.1982 27.4978C27.1986 27.3254 27.3386 27.1942 27.501 27.1942V27.6942ZM27.6982 27.4989H28.1982V20.6229H27.6982H27.1982V27.4989H27.6982ZM27.6982 20.6229L28.1982 20.6216C28.1972 20.2364 27.8835 19.9266 27.501 19.9266V20.4266V20.9266C27.335 20.9266 27.1987 20.793 27.1982 20.6243L27.6982 20.6229ZM27.501 20.4266V19.9266H23.376V20.4266V20.9266H27.501V20.4266ZM27.5 2.94617L27.5 3.44617C28.634 3.44625 29.5536 4.36588 29.5537 5.49991L30.0537 5.49988L30.5537 5.49984C30.5536 3.81358 29.1863 2.44629 27.5 2.44617L27.5 2.94617ZM30.0537 5.49988H29.5537V12.3749H30.0537H30.5537V5.49988H30.0537ZM30.0537 12.3749H29.5537C29.5537 13.5089 28.6341 14.4285 27.5 14.4286L27.5 14.9286L27.5 15.4286C29.1863 15.4285 30.5537 14.0613 30.5537 12.3749H30.0537ZM27.5 14.9286V14.4286H5.5V14.9286V15.4286H27.5V14.9286ZM5.5 14.9286L5.50004 14.4286C4.3659 14.4285 3.44629 13.5089 3.44629 12.3749H2.94629H2.44629C2.44629 14.0613 3.81368 15.4285 5.49996 15.4286L5.5 14.9286ZM2.94629 12.3749H3.44629V5.49988H2.94629H2.44629V12.3749H2.94629ZM2.94629 5.49988L3.44629 5.49991C3.44637 4.36588 4.366 3.44625 5.50004 3.44617L5.5 2.94617L5.49996 2.44617C3.8137 2.44629 2.44641 3.81358 2.44629 5.49984L2.94629 5.49988ZM5.5 2.94617V3.44617H27.5V2.94617V2.44617H5.5V2.94617ZM5.5 5.30359L5.49952 4.80359C5.11542 4.80396 4.80408 5.1153 4.80371 5.4994L5.30371 5.49988L5.80371 5.50036C5.80355 5.66779 5.66791 5.80343 5.50048 5.80359L5.5 5.30359ZM5.30371 5.49988H4.80371V12.3749H5.30371H5.80371V5.49988H5.30371ZM5.30371 12.3749H4.80371C4.80371 12.7599 5.11583 13.0708 5.49952 13.0712L5.5 12.5712L5.50048 12.0712C5.66737 12.0713 5.80371 12.2067 5.80371 12.3749H5.30371ZM5.5 12.5712V13.0712H27.5V12.5712V12.0712H5.5V12.5712ZM27.5 12.5712L27.5005 13.0712C27.8842 13.0708 28.1963 12.7599 28.1963 12.3749H27.6963H27.1963C27.1963 12.2067 27.3326 12.0713 27.4995 12.0712L27.5 12.5712ZM27.6963 12.3749H28.1963V5.49988H27.6963H27.1963V12.3749H27.6963ZM27.6963 5.49988L28.1963 5.4994C28.1959 5.1153 27.8846 4.80396 27.5005 4.80359L27.5 5.30359L27.4995 5.80359C27.3321 5.80343 27.1964 5.66779 27.1963 5.50036L27.6963 5.49988ZM27.5 5.30359V4.80359H5.5V5.30359V5.80359H27.5V5.30359Z" fill="black" fill-opacity="0.15" mask="url(#path-1-outside-1_25_196)"/>
<defs>
<filter id="filter0_i_25_196" x="2.44629" y="2.44617" width="28.698" height="28.6941" filterUnits="userSpaceOnUse" color-interpolation-filters="sRGB">
<feFlood flood-opacity="0" result="BackgroundImageFix"/>
<feBlend mode="normal" in="SourceGraphic" in2="BackgroundImageFix" result="shape"/>
<feColorMatrix in="SourceAlpha" type="matrix" values="0 0 0 0 0 0 0 0 0 0 0 0 0 0 0 0 0 0 127 0" result="hardAlpha"/>
<feOffset dx="0.588649" dy="0.588649"/>
<feGaussianBlur stdDeviation="0.294324"/>
<feComposite in2="hardAlpha" operator="arithmetic" k2="-1" k3="1"/>
<feColorMatrix type="matrix" values="0 0 0 0 0.0823529 0 0 0 0 0.211765 0 0 0 0 0.180392 0 0 0 0.55 0"/>
<feBlend mode="normal" in2="shape" result="effect1_innerShadow_25_196"/>
</filter>
<linearGradient id="paint0_linear_25_196" x1="3.18056" y1="5.28846" x2="27.0722" y2="27.3098" gradientUnits="userSpaceOnUse">
<stop stop-color="#4E2E09"/>
<stop offset="1" stop-color="#4C351A"/>
</linearGradient>
</defs>
</svg>
