<svg width="33" height="33" viewBox="0 0 33 33" fill="none" xmlns="http://www.w3.org/2000/svg">
<mask id="path-1-outside-1_25_191" maskUnits="userSpaceOnUse" x="0.570068" y="0.57019" width="32" height="32" fill="black">
<rect fill="white" x="0.570068" y="0.57019" width="32" height="32"/>
<path d="M30.239 22.1952C30.8897 22.1902 31.4223 22.7134 31.4275 23.3641C31.4314 23.8595 31.2906 24.3455 31.0232 24.7626C30.7565 25.1785 30.3739 25.5075 29.9236 25.7108L29.9246 25.7118L18.1277 31.0741H18.1257C17.6166 31.3046 17.0635 31.4247 16.5046 31.4247C15.946 31.4246 15.3935 31.3046 14.8845 31.0741H14.8826L3.05836 25.6981L3.05152 25.6942C2.60832 25.4891 2.232 25.1617 1.96949 24.7499C1.70706 24.3381 1.56893 23.8592 1.57008 23.371C1.57169 22.7201 2.10083 22.1936 2.75172 22.1952C3.40241 22.197 3.92811 22.7261 3.92652 23.3768C3.92651 23.4141 3.93777 23.4508 3.95777 23.4823C3.97784 23.5137 4.00699 23.5388 4.04078 23.5546L15.8582 28.9276C16.0613 29.0194 16.2818 29.0672 16.5046 29.0673C16.7277 29.0673 16.9489 29.0194 17.1521 28.9276L28.95 23.5653L28.9539 23.5634C28.9886 23.5477 29.0183 23.5222 29.0388 23.4901C29.0593 23.4581 29.0704 23.4207 29.0701 23.3827C29.065 22.732 29.5884 22.2005 30.239 22.1952ZM30.239 15.3212C30.8898 15.3162 31.4224 15.8403 31.4275 16.4911C31.4313 16.9864 31.2906 17.4725 31.0232 17.8895C30.7565 18.3054 30.3738 18.6345 29.9236 18.8378H29.9246L18.1277 24.2001L18.1257 24.201C17.6166 24.4316 17.0635 24.5507 16.5046 24.5507C15.946 24.5506 15.3935 24.4315 14.8845 24.201L14.8826 24.2001L3.05836 18.8241L3.05152 18.8212C2.60827 18.616 2.232 18.2877 1.96949 17.8759C1.70712 17.4641 1.56888 16.9852 1.57008 16.4969C1.57182 15.8462 2.10092 15.3196 2.75172 15.3212C3.40237 15.323 3.92803 15.8521 3.92652 16.5028C3.92643 16.5403 3.93769 16.5776 3.95777 16.6093C3.97783 16.6405 4.0071 16.6658 4.04078 16.6815L15.8582 22.0546C16.0613 22.1463 16.2818 22.1941 16.5046 22.1942C16.7277 22.1942 16.9489 22.1463 17.1521 22.0546L28.95 16.6923L28.9539 16.6903C28.9886 16.6747 29.0183 16.6491 29.0388 16.6171C29.0593 16.5851 29.0703 16.5476 29.0701 16.5096C29.065 15.8589 29.5883 15.3265 30.239 15.3212ZM16.4978 1.57019C17.06 1.57019 17.6161 1.69151 18.1277 1.92468V1.92371L29.9382 7.29968C30.386 7.49993 30.7669 7.82517 31.0349 8.23621C31.3053 8.65097 31.4499 9.13563 31.45 9.63074C31.4499 10.1259 31.3053 10.6105 31.0349 11.0253C30.7669 11.4363 30.386 11.7605 29.9382 11.9608V11.9618L29.9255 11.9667L18.1404 17.3241C17.6292 17.557 17.0742 17.6775 16.5125 17.6776C15.9501 17.6776 15.3943 17.5564 14.8826 17.3231V17.3241L3.09742 11.953C2.64452 11.7532 2.25938 11.4263 1.98902 11.0116C1.71862 10.5968 1.57403 10.1122 1.57398 9.61707C1.57404 9.12194 1.71861 8.6373 1.98902 8.22253C2.25692 7.81164 2.63719 7.4863 3.08472 7.28601L14.8689 1.92371C15.3803 1.69063 15.9358 1.57025 16.4978 1.57019ZM16.4978 3.92664C16.2731 3.9267 16.0509 3.97506 15.8464 4.06824L15.8455 4.06921L4.06129 9.43152C4.05724 9.43336 4.05265 9.43559 4.04859 9.43738C4.01399 9.45272 3.98436 9.47797 3.96363 9.50964C3.9429 9.54146 3.93146 9.57909 3.9314 9.61707C3.93145 9.65503 3.94291 9.69267 3.96363 9.72449C3.97399 9.74033 3.98646 9.75532 4.00074 9.76746L4.04859 9.79675L4.06226 9.80261L15.8601 15.1796C16.0648 15.2728 16.2876 15.3212 16.5125 15.3212C16.7372 15.3211 16.9593 15.2728 17.1638 15.1796L17.1658 15.1786L28.9627 9.81628C28.9666 9.81447 28.9713 9.81219 28.9753 9.81042C29.0101 9.79504 29.0406 9.76996 29.0613 9.73816C29.0819 9.70636 29.0925 9.66866 29.0925 9.63074C29.0925 9.59279 29.082 9.55512 29.0613 9.52332C29.0405 9.49148 29.0101 9.46643 28.9753 9.45105C28.9712 9.44922 28.9668 9.44707 28.9627 9.44519L17.1511 4.06921L17.1502 4.06824C16.9455 3.97498 16.7227 3.92664 16.4978 3.92664Z"/>
</mask>
<g filter="url(#filter0_i_25_191)">
<path d="M30.239 22.1952C30.8897 22.1902 31.4223 22.7134 31.4275 23.3641C31.4314 23.8595 31.2906 24.3455 31.0232 24.7626C30.7565 25.1785 30.3739 25.5075 29.9236 25.7108L29.9246 25.7118L18.1277 31.0741H18.1257C17.6166 31.3046 17.0635 31.4247 16.5046 31.4247C15.946 31.4246 15.3935 31.3046 14.8845 31.0741H14.8826L3.05836 25.6981L3.05152 25.6942C2.60832 25.4891 2.232 25.1617 1.96949 24.7499C1.70706 24.3381 1.56893 23.8592 1.57008 23.371C1.57169 22.7201 2.10083 22.1936 2.75172 22.1952C3.40241 22.197 3.92811 22.7261 3.92652 23.3768C3.92651 23.4141 3.93777 23.4508 3.95777 23.4823C3.97784 23.5137 4.00699 23.5388 4.04078 23.5546L15.8582 28.9276C16.0613 29.0194 16.2818 29.0672 16.5046 29.0673C16.7277 29.0673 16.9489 29.0194 17.1521 28.9276L28.95 23.5653L28.9539 23.5634C28.9886 23.5477 29.0183 23.5222 29.0388 23.4901C29.0593 23.4581 29.0704 23.4207 29.0701 23.3827C29.065 22.732 29.5884 22.2005 30.239 22.1952ZM30.239 15.3212C30.8898 15.3162 31.4224 15.8403 31.4275 16.4911C31.4313 16.9864 31.2906 17.4725 31.0232 17.8895C30.7565 18.3054 30.3738 18.6345 29.9236 18.8378H29.9246L18.1277 24.2001L18.1257 24.201C17.6166 24.4316 17.0635 24.5507 16.5046 24.5507C15.946 24.5506 15.3935 24.4315 14.8845 24.201L14.8826 24.2001L3.05836 18.8241L3.05152 18.8212C2.60827 18.616 2.232 18.2877 1.96949 17.8759C1.70712 17.4641 1.56888 16.9852 1.57008 16.4969C1.57182 15.8462 2.10092 15.3196 2.75172 15.3212C3.40237 15.323 3.92803 15.8521 3.92652 16.5028C3.92643 16.5403 3.93769 16.5776 3.95777 16.6093C3.97783 16.6405 4.0071 16.6658 4.04078 16.6815L15.8582 22.0546C16.0613 22.1463 16.2818 22.1941 16.5046 22.1942C16.7277 22.1942 16.9489 22.1463 17.1521 22.0546L28.95 16.6923L28.9539 16.6903C28.9886 16.6747 29.0183 16.6491 29.0388 16.6171C29.0593 16.5851 29.0703 16.5476 29.0701 16.5096C29.065 15.8589 29.5883 15.3265 30.239 15.3212ZM16.4978 1.57019C17.06 1.57019 17.6161 1.69151 18.1277 1.92468V1.92371L29.9382 7.29968C30.386 7.49993 30.7669 7.82517 31.0349 8.23621C31.3053 8.65097 31.4499 9.13563 31.45 9.63074C31.4499 10.1259 31.3053 10.6105 31.0349 11.0253C30.7669 11.4363 30.386 11.7605 29.9382 11.9608V11.9618L29.9255 11.9667L18.1404 17.3241C17.6292 17.557 17.0742 17.6775 16.5125 17.6776C15.9501 17.6776 15.3943 17.5564 14.8826 17.3231V17.3241L3.09742 11.953C2.64452 11.7532 2.25938 11.4263 1.98902 11.0116C1.71862 10.5968 1.57403 10.1122 1.57398 9.61707C1.57404 9.12194 1.71861 8.6373 1.98902 8.22253C2.25692 7.81164 2.63719 7.4863 3.08472 7.28601L14.8689 1.92371C15.3803 1.69063 15.9358 1.57025 16.4978 1.57019ZM16.4978 3.92664C16.2731 3.9267 16.0509 3.97506 15.8464 4.06824L15.8455 4.06921L4.06129 9.43152C4.05724 9.43336 4.05265 9.43559 4.04859 9.43738C4.01399 9.45272 3.98436 9.47797 3.96363 9.50964C3.9429 9.54146 3.93146 9.57909 3.9314 9.61707C3.93145 9.65503 3.94291 9.69267 3.96363 9.72449C3.97399 9.74033 3.98646 9.75532 4.00074 9.76746L4.04859 9.79675L4.06226 9.80261L15.8601 15.1796C16.0648 15.2728 16.2876 15.3212 16.5125 15.3212C16.7372 15.3211 16.9593 15.2728 17.1638 15.1796L17.1658 15.1786L28.9627 9.81628C28.9666 9.81447 28.9713 9.81219 28.9753 9.81042C29.0101 9.79504 29.0406 9.76996 29.0613 9.73816C29.0819 9.70636 29.0925 9.66866 29.0925 9.63074C29.0925 9.59279 29.082 9.55512 29.0613 9.52332C29.0405 9.49148 29.0101 9.46643 28.9753 9.45105C28.9712 9.44922 28.9668 9.44707 28.9627 9.44519L17.1511 4.06921L17.1502 4.06824C16.9455 3.97498 16.7227 3.92664 16.4978 3.92664Z" fill="url(#paint0_linear_25_191)"/>
</g>
<path d="M30.239 22.1952L30.2352 21.6952L30.2349 21.6952L30.239 22.1952ZM31.4275 23.3641L31.9275 23.3602V23.3601L31.4275 23.3641ZM31.0232 24.7626L31.4441 25.0325L31.4441 25.0324L31.0232 24.7626ZM29.9236 25.7108L29.7178 25.2551C29.5682 25.3227 29.4612 25.4594 29.4317 25.621C29.4022 25.7825 29.4539 25.9483 29.57 26.0644L29.9236 25.7108ZM29.9246 25.7118L30.1315 26.167C30.2808 26.0991 30.3873 25.9624 30.4165 25.801C30.4458 25.6396 30.3941 25.4742 30.2781 25.3582L29.9246 25.7118ZM18.1277 31.0741V31.5741C18.1991 31.5741 18.2696 31.5588 18.3346 31.5293L18.1277 31.0741ZM18.1257 31.0741V30.5741C18.0546 30.5741 17.9843 30.5893 17.9195 30.6186L18.1257 31.0741ZM16.5046 31.4247L16.5046 31.9247H16.5046V31.4247ZM14.8845 31.0741L15.0908 30.6186C15.026 30.5893 14.9557 30.5741 14.8845 30.5741V31.0741ZM14.8826 31.0741L14.6756 31.5293C14.7406 31.5588 14.8112 31.5741 14.8826 31.5741V31.0741ZM3.05836 25.6981L2.81029 26.1322C2.82366 26.1399 2.83739 26.1469 2.85141 26.1533L3.05836 25.6981ZM3.05152 25.6942L3.29959 25.2601C3.28719 25.253 3.27448 25.2465 3.26152 25.2405L3.05152 25.6942ZM1.96949 24.7499L1.54784 25.0186L1.54787 25.0186L1.96949 24.7499ZM1.57008 23.371L1.07008 23.3697L1.07008 23.3698L1.57008 23.371ZM2.75172 22.1952L2.75313 21.6952H2.75294L2.75172 22.1952ZM3.92652 23.3768L3.42652 23.3756L3.42652 23.3766L3.92652 23.3768ZM3.95777 23.4823L3.53568 23.7503L3.53634 23.7514L3.95777 23.4823ZM4.04078 23.5546L3.82922 24.0076L3.83383 24.0097L4.04078 23.5546ZM15.8582 28.9276L15.6512 29.3828L15.6523 29.3833L15.8582 28.9276ZM16.5046 29.0673L16.5044 29.5673H16.5046V29.0673ZM17.1521 28.9276L17.3579 29.3833L17.359 29.3828L17.1521 28.9276ZM28.95 23.5653L29.1568 24.0205C29.1625 24.0179 29.168 24.0153 29.1736 24.0125L28.95 23.5653ZM28.9539 23.5634L28.7486 23.1074C28.7425 23.1102 28.7363 23.1131 28.7303 23.1161L28.9539 23.5634ZM29.0388 23.4901L29.4597 23.76L29.4601 23.7594L29.0388 23.4901ZM29.0701 23.3827L28.5701 23.3866V23.3866L29.0701 23.3827ZM30.239 15.3212L30.2352 14.8212L30.2349 14.8212L30.239 15.3212ZM31.4275 16.4911L31.9275 16.4872V16.4871L31.4275 16.4911ZM31.0232 17.8895L31.4441 18.1595L31.4441 18.1594L31.0232 17.8895ZM29.9236 18.8378L29.7178 18.3821C29.5031 18.479 29.3852 18.7127 29.4348 18.943C29.4844 19.1733 29.688 19.3378 29.9236 19.3378V18.8378ZM29.9246 18.8378L30.1315 19.2929C30.3457 19.1956 30.4631 18.9619 30.4132 18.7319C30.3634 18.5019 30.1599 18.3378 29.9246 18.3378V18.8378ZM18.1277 24.2001L17.9208 23.7449C17.9152 23.7474 17.9096 23.7501 17.9041 23.7529L18.1277 24.2001ZM18.1257 24.201L18.332 24.6565C18.3378 24.6539 18.3436 24.6511 18.3493 24.6483L18.1257 24.201ZM16.5046 24.5507L16.5046 25.0507H16.5046V24.5507ZM14.8845 24.201L14.6609 24.6483C14.6667 24.6511 14.6724 24.6539 14.6783 24.6565L14.8845 24.201ZM14.8826 24.2001L15.1062 23.7529C15.1007 23.7501 15.0951 23.7475 15.0895 23.7449L14.8826 24.2001ZM3.05836 18.8241L3.26535 18.3688L3.25532 18.3645L3.05836 18.8241ZM3.05152 18.8212L2.84152 19.2749C2.84584 19.2769 2.85019 19.2789 2.85456 19.2807L3.05152 18.8212ZM1.96949 17.8759L1.54781 18.1445L1.54785 18.1446L1.96949 17.8759ZM1.57008 16.4969L1.07008 16.4956L1.07008 16.4957L1.57008 16.4969ZM2.75172 15.3212L2.75313 14.8212H2.75294L2.75172 15.3212ZM3.92652 16.5028L4.42652 16.504L4.42652 16.504L3.92652 16.5028ZM3.95777 16.6093L3.53567 16.8773L3.53683 16.8791L3.95777 16.6093ZM4.04078 16.6815L3.82922 17.1346L3.83383 17.1367L4.04078 16.6815ZM15.8582 22.0546L15.6512 22.5097L15.6523 22.5102L15.8582 22.0546ZM16.5046 22.1942L16.5044 22.6942H16.5046V22.1942ZM17.1521 22.0546L17.3579 22.5103L17.359 22.5098L17.1521 22.0546ZM28.95 16.6923L29.1568 17.1474C29.1625 17.1449 29.168 17.1422 29.1736 17.1395L28.95 16.6923ZM28.9539 16.6903L28.7489 16.2343C28.7426 16.2371 28.7364 16.24 28.7303 16.2431L28.9539 16.6903ZM29.0388 16.6171L29.4594 16.8874L29.4599 16.8867L29.0388 16.6171ZM29.0701 16.5096L29.5701 16.5066L29.5701 16.5057L29.0701 16.5096ZM16.4978 1.57019V1.07019H16.4978L16.4978 1.57019ZM18.1277 1.92468L17.9203 2.37965C18.0751 2.4502 18.2551 2.43722 18.3982 2.34521C18.5412 2.2532 18.6277 2.09478 18.6277 1.92468H18.1277ZM18.1277 1.92371L18.3348 1.46863C18.1801 1.39818 18.0001 1.41122 17.8571 1.50325C17.7141 1.59527 17.6277 1.75366 17.6277 1.92371H18.1277ZM29.9382 7.29968L29.7311 7.75477L29.7341 7.75612L29.9382 7.29968ZM31.0349 8.23621L31.4538 7.96314L31.4537 7.9631L31.0349 8.23621ZM31.45 9.63074L31.95 9.63076V9.63068L31.45 9.63074ZM31.0349 11.0253L31.4538 11.2983L31.4538 11.2983L31.0349 11.0253ZM29.9382 11.9608L29.7341 11.5044C29.5541 11.5849 29.4382 11.7637 29.4382 11.9608H29.9382ZM29.9382 11.9618L30.1177 12.4285C30.3108 12.3542 30.4382 12.1687 30.4382 11.9618H29.9382ZM29.9255 11.9667L29.7461 11.5C29.7368 11.5036 29.7277 11.5074 29.7186 11.5115L29.9255 11.9667ZM18.1404 17.3241L17.9335 16.8689L17.9331 16.8691L18.1404 17.3241ZM16.5125 17.6776V18.1776H16.5125L16.5125 17.6776ZM14.8826 17.3231L15.09 16.8682C14.9352 16.7976 14.7552 16.8106 14.6121 16.9026C14.4691 16.9946 14.3826 17.153 14.3826 17.3231H14.8826ZM14.8826 17.3241L14.6752 17.7791C14.83 17.8496 15.01 17.8366 15.1531 17.7446C15.2961 17.6526 15.3826 17.4942 15.3826 17.3241H14.8826ZM3.09742 11.953L3.30479 11.498L3.29925 11.4955L3.09742 11.953ZM1.98902 11.0116L1.57017 11.2847L1.57018 11.2847L1.98902 11.0116ZM1.57398 9.61707L1.07398 9.61701V9.61711L1.57398 9.61707ZM1.98902 8.22253L1.57018 7.94946L1.57018 7.94946L1.98902 8.22253ZM3.08472 7.28601L3.28898 7.7424L3.29181 7.74111L3.08472 7.28601ZM14.8689 1.92371L15.076 2.3788L15.0763 2.37868L14.8689 1.92371ZM16.4978 3.92664V3.42664H16.4977L16.4978 3.92664ZM15.8464 4.06824L15.6391 3.61326C15.5847 3.63805 15.5352 3.67241 15.4929 3.71468L15.8464 4.06824ZM15.8455 4.06921L16.0526 4.52431C16.1071 4.49951 16.1567 4.46511 16.199 4.42277L15.8455 4.06921ZM4.06129 9.43152L3.8542 8.97642L3.85394 8.97654L4.06129 9.43152ZM4.04859 9.43738L3.84676 8.97992L3.84593 8.98029L4.04859 9.43738ZM3.96363 9.50964L3.54523 9.23589L3.54471 9.23668L3.96363 9.50964ZM3.9314 9.61707L3.4314 9.61631L3.4314 9.61769L3.9314 9.61707ZM3.96363 9.72449L3.54462 9.9973L3.54518 9.99816L3.96363 9.72449ZM4.00074 9.76746L3.67694 10.1484C3.69664 10.1652 3.71761 10.1804 3.73966 10.1939L4.00074 9.76746ZM4.04859 9.79675L3.78751 10.2232C3.80806 10.2358 3.82949 10.2468 3.85163 10.2563L4.04859 9.79675ZM4.06226 9.80261L4.26968 9.34752L4.25922 9.34304L4.06226 9.80261ZM15.8601 15.1796L16.0675 14.7246L16.0675 14.7246L15.8601 15.1796ZM16.5125 15.3212V15.8212H16.5126L16.5125 15.3212ZM17.1638 15.1796L17.3712 15.6345C17.3767 15.632 17.3821 15.6295 17.3874 15.6268L17.1638 15.1796ZM17.1658 15.1786L16.9589 14.7234C16.9533 14.726 16.9477 14.7286 16.9422 14.7314L17.1658 15.1786ZM28.9627 9.81628L28.7558 9.3611L28.7558 9.3611L28.9627 9.81628ZM28.9753 9.81042L29.1772 10.2679L29.1779 10.2675L28.9753 9.81042ZM29.0613 9.73816L29.4801 10.0112L29.4807 10.0104L29.0613 9.73816ZM29.0925 9.63074L29.5925 9.63107L29.5925 9.63005L29.0925 9.63074ZM29.0613 9.52332L29.4804 9.25058L29.4801 9.25025L29.0613 9.52332ZM28.9753 9.45105L29.1776 8.9938L29.1772 8.99359L28.9753 9.45105ZM28.9627 9.44519L29.1698 8.99014L29.1698 8.99011L28.9627 9.44519ZM17.1511 4.06921L16.7976 4.42277C16.8399 4.4651 16.8895 4.49949 16.944 4.52429L17.1511 4.06921ZM17.1502 4.06824L17.5037 3.71468C17.4614 3.67241 17.4119 3.63806 17.3575 3.61327L17.1502 4.06824ZM30.239 22.1952L30.2429 22.6952C30.618 22.6923 30.9245 22.9941 30.9275 23.3682L31.4275 23.3641L31.9275 23.3601C31.92 22.4328 31.1614 21.6881 30.2352 21.6952L30.239 22.1952ZM31.4275 23.3641L30.9275 23.3681C30.9306 23.7661 30.8175 24.1571 30.6023 24.4927L31.0232 24.7626L31.4441 25.0324C31.7637 24.534 31.9321 23.9529 31.9275 23.3602L31.4275 23.3641ZM31.0232 24.7626L30.6023 24.4927C30.3882 24.8265 30.0806 25.0913 29.7178 25.2551L29.9236 25.7108L30.1294 26.1665C30.6671 25.9237 31.1247 25.5305 31.4441 25.0325L31.0232 24.7626ZM29.9236 25.7108L29.57 26.0644L29.571 26.0653L29.9246 25.7118L30.2781 25.3582L30.2771 25.3573L29.9236 25.7108ZM29.9246 25.7118L29.7177 25.2566L17.9208 30.6189L18.1277 31.0741L18.3346 31.5293L30.1315 26.167L29.9246 25.7118ZM18.1277 31.0741V30.5741H18.1257V31.0741V31.5741H18.1277V31.0741ZM18.1257 31.0741L17.9195 30.6186C17.4748 30.82 16.992 30.9247 16.5046 30.9247V31.4247V31.9247C17.1351 31.9247 17.7584 31.7893 18.332 31.5296L18.1257 31.0741ZM16.5046 31.4247L16.5047 30.9247C16.0176 30.9246 15.5353 30.8199 15.0908 30.6186L14.8845 31.0741L14.6783 31.5296C15.2516 31.7892 15.8743 31.9246 16.5046 31.9247L16.5046 31.4247ZM14.8845 31.0741V30.5741H14.8826V31.0741V31.5741H14.8845V31.0741ZM14.8826 31.0741L15.0895 30.6189L3.2653 25.243L3.05836 25.6981L2.85141 26.1533L14.6756 31.5293L14.8826 31.0741ZM3.05836 25.6981L3.30643 25.264L3.29959 25.2601L3.05152 25.6942L2.80345 26.1283L2.81029 26.1322L3.05836 25.6981ZM3.05152 25.6942L3.26152 25.2405C2.90433 25.0751 2.60177 24.8116 2.39111 24.4811L1.96949 24.7499L1.54787 25.0186C1.86223 25.5118 2.31231 25.9031 2.84152 26.148L3.05152 25.6942ZM1.96949 24.7499L2.39114 24.4812C2.18042 24.1505 2.06915 23.7654 2.07007 23.3721L1.57008 23.371L1.07008 23.3698C1.06871 23.9531 1.2337 24.5257 1.54784 25.0186L1.96949 24.7499ZM1.57008 23.371L2.07007 23.3722C2.071 22.9975 2.37571 22.6943 2.7505 22.6952L2.75172 22.1952L2.75294 21.6952C1.82596 21.6929 1.07237 22.4427 1.07008 23.3697L1.57008 23.371ZM2.75172 22.1952L2.7503 22.6952C3.1246 22.6962 3.42744 23.0006 3.42652 23.3756L3.92652 23.3768L4.42652 23.3781C4.42878 22.4516 3.68023 21.6978 2.75313 21.6952L2.75172 22.1952ZM3.92652 23.3768L3.42652 23.3766C3.42647 23.5144 3.46776 23.6434 3.53568 23.7503L3.95777 23.4823L4.37987 23.2143C4.40777 23.2582 4.42655 23.3139 4.42652 23.377L3.92652 23.3768ZM3.95777 23.4823L3.53634 23.7514C3.60936 23.8657 3.71265 23.9532 3.82923 24.0076L4.04078 23.5546L4.25233 23.1015C4.30134 23.1244 4.34632 23.1617 4.3792 23.2132L3.95777 23.4823ZM4.04078 23.5546L3.83383 24.0097L15.6512 29.3828L15.8582 28.9276L16.0651 28.4725L4.24773 23.0994L4.04078 23.5546ZM15.8582 28.9276L15.6523 29.3833C15.9197 29.5041 16.2103 29.5671 16.5044 29.5673L16.5046 29.0673L16.5049 28.5673C16.3533 28.5672 16.2029 28.5347 16.064 28.472L15.8582 28.9276ZM16.5046 29.0673V29.5673C16.799 29.5673 17.0903 29.5041 17.3579 29.3833L17.1521 28.9276L16.9463 28.4719C16.8074 28.5346 16.6563 28.5673 16.5046 28.5673V29.0673ZM17.1521 28.9276L17.359 29.3828L29.1568 24.0205L28.95 23.5653L28.7431 23.1101L16.9452 28.4724L17.1521 28.9276ZM28.95 23.5653L29.1736 24.0125L29.1775 24.0106L28.9539 23.5634L28.7303 23.1161L28.7264 23.1181L28.95 23.5653ZM28.9539 23.5634L29.1591 24.0193C29.2819 23.964 29.3867 23.8739 29.4597 23.76L29.0388 23.4901L28.6179 23.2202C28.6499 23.1704 28.6952 23.1314 28.7486 23.1074L28.9539 23.5634ZM29.0388 23.4901L29.4601 23.7594C29.5312 23.6482 29.5711 23.5163 29.5701 23.3787L29.0701 23.3827L28.5701 23.3866C28.5696 23.3252 28.5874 23.268 28.6176 23.2208L29.0388 23.4901ZM29.0701 23.3827L29.5701 23.3788C29.5672 23.0043 29.8684 22.6983 30.2431 22.6952L30.239 22.1952L30.2349 21.6952C29.3084 21.7028 28.5629 22.4597 28.5701 23.3866L29.0701 23.3827ZM30.239 15.3212L30.2429 15.8212C30.6176 15.8183 30.9246 16.1205 30.9275 16.495L31.4275 16.4911L31.9275 16.4871C31.9202 15.5601 31.1619 14.8141 30.2352 14.8212L30.239 15.3212ZM31.4275 16.4911L30.9275 16.495C30.9306 16.8931 30.8174 17.2841 30.6023 17.6197L31.0232 17.8895L31.4441 18.1594C31.7637 17.661 31.9321 17.0798 31.9275 16.4872L31.4275 16.4911ZM31.0232 17.8895L30.6023 17.6196C30.3882 17.9534 30.0805 18.2183 29.7178 18.3821L29.9236 18.8378L30.1294 19.2935C30.6671 19.0507 31.1247 18.6573 31.4441 18.1595L31.0232 17.8895ZM29.9236 18.8378V19.3378H29.9246V18.8378V18.3378H29.9236V18.8378ZM29.9246 18.8378L29.7177 18.3826L17.9208 23.7449L18.1277 24.2001L18.3346 24.6553L30.1315 19.2929L29.9246 18.8378ZM18.1277 24.2001L17.9041 23.7529L17.9021 23.7538L18.1257 24.201L18.3493 24.6483L18.3513 24.6473L18.1277 24.2001ZM18.1257 24.201L17.9195 23.7456C17.4753 23.9467 16.9926 24.0507 16.5046 24.0507V24.5507V25.0507C17.1345 25.0507 17.7579 24.9165 18.332 24.6565L18.1257 24.201ZM16.5046 24.5507L16.5047 24.0507C16.017 24.0506 15.5348 23.9466 15.0908 23.7456L14.8845 24.201L14.6783 24.6565C15.2521 24.9164 15.8749 25.0506 16.5046 25.0507L16.5046 24.5507ZM14.8845 24.201L15.1081 23.7538L15.1062 23.7529L14.8826 24.2001L14.659 24.6473L14.6609 24.6483L14.8845 24.201ZM14.8826 24.2001L15.0895 23.7449L3.2653 18.3689L3.05836 18.8241L2.85141 19.2793L14.6756 24.6552L14.8826 24.2001ZM3.05836 18.8241L3.25532 18.3645L3.24848 18.3616L3.05152 18.8212L2.85456 19.2807L2.8614 19.2837L3.05836 18.8241ZM3.05152 18.8212L3.26152 18.3674C2.90475 18.2023 2.60205 17.938 2.39113 17.6071L1.96949 17.8759L1.54785 18.1446C1.86195 18.6374 2.3118 19.0298 2.84152 19.2749L3.05152 18.8212ZM1.96949 17.8759L2.39117 17.6072C2.18043 17.2764 2.06911 16.8913 2.07007 16.4982L1.57008 16.4969L1.07008 16.4957C1.06864 17.0791 1.23381 17.6517 1.54781 18.1445L1.96949 17.8759ZM1.57008 16.4969L2.07007 16.4983C2.07108 16.1235 2.3759 15.8203 2.7505 15.8212L2.75172 15.3212L2.75294 14.8212C1.82594 14.8189 1.07256 15.5688 1.07008 16.4956L1.57008 16.4969ZM2.75172 15.3212L2.7503 15.8212C3.12449 15.8222 3.42739 16.1266 3.42652 16.5016L3.92652 16.5028L4.42652 16.504C4.42867 15.5777 3.68024 14.8238 2.75313 14.8212L2.75172 15.3212ZM3.92652 16.5028L3.42652 16.5016C3.42618 16.6384 3.46667 16.7686 3.53568 16.8773L3.95777 16.6093L4.37987 16.3412C4.40872 16.3867 4.42667 16.4422 4.42652 16.504L3.92652 16.5028ZM3.95777 16.6093L3.53683 16.8791C3.60932 16.9922 3.71216 17.0799 3.82923 17.1346L4.04078 16.6815L4.25233 16.2285C4.30204 16.2517 4.34634 16.2889 4.37871 16.3394L3.95777 16.6093ZM4.04078 16.6815L3.83383 17.1367L15.6512 22.5097L15.8582 22.0546L16.0651 21.5994L4.24773 16.2264L4.04078 16.6815ZM15.8582 22.0546L15.6523 22.5102C15.9197 22.631 16.2103 22.6941 16.5044 22.6942L16.5046 22.1942L16.5049 21.6942C16.3533 21.6942 16.2029 21.6616 16.064 21.5989L15.8582 22.0546ZM16.5046 22.1942V22.6942C16.799 22.6942 17.0903 22.6311 17.3579 22.5103L17.1521 22.0546L16.9463 21.5989C16.8074 21.6616 16.6563 21.6942 16.5046 21.6942V22.1942ZM17.1521 22.0546L17.359 22.5098L29.1568 17.1474L28.95 16.6923L28.7431 16.2371L16.9452 21.5994L17.1521 22.0546ZM28.95 16.6923L29.1736 17.1395L29.1775 17.1375L28.9539 16.6903L28.7303 16.2431L28.7264 16.245L28.95 16.6923ZM28.9539 16.6903L29.1588 17.1464C29.2824 17.0908 29.3868 17.0004 29.4594 16.8874L29.0388 16.6171L28.6182 16.3467C28.6497 16.2977 28.6948 16.2586 28.7489 16.2343L28.9539 16.6903ZM29.0388 16.6171L29.4599 16.8867C29.5317 16.7746 29.5709 16.6426 29.5701 16.5066L29.0701 16.5096L28.5701 16.5127C28.5697 16.4526 28.5869 16.3957 28.6177 16.3475L29.0388 16.6171ZM29.0701 16.5096L29.5701 16.5057C29.5671 16.1307 29.8688 15.8242 30.2431 15.8211L30.239 15.3212L30.2349 14.8212C29.3078 14.8288 28.5629 15.5871 28.5701 16.5135L29.0701 16.5096ZM16.4978 1.57019V2.07019C16.9881 2.07019 17.4736 2.17601 17.9203 2.37965L18.1277 1.92468L18.3351 1.46972C17.7587 1.207 17.1319 1.07019 16.4978 1.07019V1.57019ZM18.1277 1.92468H18.6277V1.92371H18.1277H17.6277V1.92468H18.1277ZM18.1277 1.92371L17.9206 2.37878L29.7311 7.75476L29.9382 7.29968L30.1454 6.84461L18.3348 1.46863L18.1277 1.92371ZM29.9382 7.29968L29.7341 7.75612C30.0942 7.91714 30.4005 8.17872 30.6161 8.50931L31.0349 8.23621L31.4537 7.9631C31.1333 7.47163 30.6779 7.08272 30.1424 6.84325L29.9382 7.29968ZM31.0349 8.23621L30.6161 8.50927C30.8337 8.84312 30.9499 9.23299 30.95 9.63079L31.45 9.63074L31.95 9.63068C31.9499 9.03827 31.7769 8.45882 31.4538 7.96314L31.0349 8.23621ZM31.45 9.63074L30.95 9.63071C30.9499 10.0285 30.8337 10.4183 30.6161 10.7522L31.0349 11.0253L31.4538 11.2983C31.7769 10.8026 31.9499 10.2233 31.95 9.63076L31.45 9.63074ZM31.0349 11.0253L30.6161 10.7522C30.4009 11.0823 30.0947 11.3431 29.7341 11.5044L29.9382 11.9608L30.1424 12.4172C30.6773 12.178 31.133 11.7903 31.4538 11.2983L31.0349 11.0253ZM29.9382 11.9608H29.4382V11.9618H29.9382H30.4382V11.9608H29.9382ZM29.9382 11.9618L29.7588 11.4951L29.7461 11.5L29.9255 11.9667L30.105 12.4333L30.1177 12.4285L29.9382 11.9618ZM29.9255 11.9667L29.7186 11.5115L17.9335 16.8689L18.1404 17.3241L18.3473 17.7793L30.1325 12.4219L29.9255 11.9667ZM18.1404 17.3241L17.9331 16.8691C17.4869 17.0723 17.0026 17.1776 16.5124 17.1776L16.5125 17.6776L16.5125 18.1776C17.1458 18.1775 17.7715 18.0416 18.3477 17.7791L18.1404 17.3241ZM16.5125 17.6776V17.1776C16.0219 17.1776 15.5368 17.0719 15.09 16.8682L14.8826 17.3231L14.6751 17.7781C15.2517 18.0409 15.8783 18.1776 16.5125 18.1776V17.6776ZM14.8826 17.3231H14.3826V17.3241H14.8826H15.3826V17.3231H14.8826ZM14.8826 17.3241L15.0899 16.8691L3.30478 11.498L3.09742 11.953L2.89006 12.408L14.6752 17.7791L14.8826 17.3241ZM3.09742 11.953L3.29925 11.4955C2.93487 11.3348 2.6252 11.0719 2.40787 10.7385L1.98902 11.0116L1.57018 11.2847C1.89357 11.7807 2.35416 12.1716 2.89559 12.4105L3.09742 11.953ZM1.98902 11.0116L2.40787 10.7385C2.19022 10.4047 2.07402 10.0148 2.07398 9.61702L1.57398 9.61707L1.07398 9.61711C1.07404 10.2096 1.24703 10.789 1.57017 11.2847L1.98902 11.0116ZM1.57398 9.61707L2.07398 9.61712C2.07403 9.21929 2.19022 8.82945 2.40787 8.49561L1.98902 8.22253L1.57018 7.94946C1.24701 8.44515 1.07405 9.02459 1.07398 9.61701L1.57398 9.61707ZM1.98902 8.22253L2.40786 8.49561C2.62348 8.16491 2.92936 7.90333 3.28898 7.74239L3.08472 7.28601L2.88047 6.82963C2.34502 7.06927 1.89035 7.45838 1.57018 7.94946L1.98902 8.22253ZM3.08472 7.28601L3.29181 7.74111L15.076 2.3788L14.8689 1.92371L14.6618 1.46861L2.87764 6.83091L3.08472 7.28601ZM14.8689 1.92371L15.0763 2.37868C15.5224 2.17534 16.0072 2.07025 16.4979 2.07019L16.4978 1.57019L16.4978 1.07019C15.8644 1.07026 15.2382 1.20593 14.6615 1.46873L14.8689 1.92371ZM16.4978 3.92664L16.4977 3.42664C16.2014 3.42672 15.9085 3.49048 15.6391 3.61326L15.8464 4.06824L16.0538 4.52322C16.1933 4.45964 16.3449 4.42668 16.498 4.42664L16.4978 3.92664ZM15.8464 4.06824L15.4929 3.71468L15.4919 3.71566L15.8455 4.06921L16.199 4.42277L16.2 4.42179L15.8464 4.06824ZM15.8455 4.06921L15.6384 3.61412L3.8542 8.97642L4.06129 9.43152L4.26838 9.88662L16.0526 4.52431L15.8455 4.06921ZM4.06129 9.43152L3.85394 8.97654C3.85099 8.97788 3.84843 8.97907 3.84676 8.97985C3.84558 8.9804 3.8432 8.98151 3.84313 8.98155C3.84237 8.9819 3.84246 8.98186 3.8429 8.98166C3.84335 8.98145 3.84474 8.98081 3.84676 8.97992L4.04859 9.43738L4.25042 9.89483C4.25447 9.89305 4.25796 9.89146 4.26053 9.89028C4.2631 9.8891 4.26535 9.88804 4.26676 9.88739C4.26884 9.88641 4.26863 9.88651 4.26957 9.88607C4.27003 9.88585 4.26956 9.88608 4.26863 9.8865L4.06129 9.43152ZM4.04859 9.43738L3.84593 8.98029C3.72283 9.03487 3.61845 9.12398 3.54523 9.23589L3.96363 9.50964L4.38203 9.7834C4.35026 9.83195 4.30515 9.87057 4.25126 9.89446L4.04859 9.43738ZM3.96363 9.50964L3.54471 9.23668C3.47231 9.3478 3.43161 9.47967 3.4314 9.61631L3.9314 9.61707L4.4314 9.61782C4.43131 9.67851 4.41349 9.73513 4.38255 9.78261L3.96363 9.50964ZM3.9314 9.61707L3.4314 9.61769C3.43158 9.75462 3.47244 9.88645 3.54462 9.9973L3.96363 9.72449L4.38264 9.45167C4.41338 9.49889 4.43133 9.55544 4.4314 9.61644L3.9314 9.61707ZM3.96363 9.72449L3.54518 9.99816C3.57591 10.0451 3.61876 10.099 3.67694 10.1484L4.00074 9.76746L4.32454 9.38647C4.35416 9.41164 4.37208 9.43552 4.38209 9.45082L3.96363 9.72449ZM4.00074 9.76746L3.73966 10.1939L3.78751 10.2232L4.04859 9.79675L4.30967 9.37033L4.26182 9.34103L4.00074 9.76746ZM4.04859 9.79675L3.85163 10.2563L3.8653 10.2622L4.06226 9.80261L4.25922 9.34304L4.24555 9.33718L4.04859 9.79675ZM4.06226 9.80261L3.85491 10.2576L15.6528 15.6345L15.8601 15.1796L16.0675 14.7246L4.26962 9.34764L4.06226 9.80261ZM15.8601 15.1796L15.6527 15.6345C15.9226 15.7575 16.2161 15.8212 16.5125 15.8212V15.3212V14.8212C16.359 14.8212 16.2069 14.7882 16.0675 14.7246L15.8601 15.1796ZM16.5125 15.3212L16.5126 15.8212C16.8089 15.8211 17.1017 15.7574 17.3712 15.6345L17.1638 15.1796L16.9565 14.7246C16.8169 14.7882 16.6654 14.8211 16.5123 14.8212L16.5125 15.3212ZM17.1638 15.1796L17.3874 15.6268L17.3894 15.6258L17.1658 15.1786L16.9422 14.7314L16.9402 14.7324L17.1638 15.1796ZM17.1658 15.1786L17.3727 15.6338L29.1696 10.2715L28.9627 9.81628L28.7558 9.3611L16.9589 14.7234L17.1658 15.1786ZM28.9627 9.81628L29.1696 10.2715C29.1727 10.2701 29.1753 10.2688 29.1771 10.268C29.1785 10.2674 29.1806 10.2663 29.1809 10.2662C29.1817 10.2658 29.1816 10.2659 29.1812 10.2661C29.1808 10.2663 29.1793 10.2669 29.1772 10.2679L28.9753 9.81042L28.7735 9.35297C28.7694 9.35479 28.7658 9.35641 28.7633 9.35759C28.7607 9.35876 28.7585 9.35981 28.7571 9.36045C28.7552 9.36134 28.7552 9.36135 28.7545 9.3617C28.754 9.36189 28.7546 9.3616 28.7558 9.3611L28.9627 9.81628ZM28.9753 9.81042L29.1779 10.2675C29.2954 10.2155 29.4033 10.129 29.4801 10.0112L29.0613 9.73816L28.6424 9.46508C28.6778 9.41091 28.7248 9.37458 28.7728 9.35331L28.9753 9.81042ZM29.0613 9.73816L29.4807 10.0104C29.5567 9.89328 29.5925 9.76018 29.5925 9.63107L29.0925 9.63074L28.5925 9.6304C28.5926 9.57714 28.6072 9.51943 28.6419 9.46592L29.0613 9.73816ZM29.0925 9.63074L29.5925 9.63005C29.5924 9.50184 29.5571 9.3685 29.4804 9.25058L29.0613 9.52332L28.6422 9.79605C28.6069 9.74174 28.5926 9.68373 28.5925 9.63142L29.0925 9.63074ZM29.0613 9.52332L29.4801 9.25025C29.4034 9.1326 29.2956 9.04597 29.1776 8.9938L28.9753 9.45105L28.7731 9.9083C28.7247 9.88689 28.6776 9.85036 28.6424 9.79638L29.0613 9.52332ZM28.9753 9.45105L29.1772 8.99359C29.1806 8.9951 29.1828 8.99616 29.1809 8.99528C29.1808 8.99522 29.1785 8.99415 29.1772 8.99354C29.1755 8.99273 29.1729 8.99152 29.1698 8.99014L28.9627 9.44519L28.7555 9.90025C28.7545 9.89981 28.754 9.89956 28.7544 9.89974C28.7552 9.90012 28.755 9.90005 28.7571 9.901C28.7595 9.90212 28.766 9.90517 28.7735 9.90851L28.9753 9.45105ZM28.9627 9.44519L29.1698 8.99011L17.3583 3.61413L17.1511 4.06921L16.944 4.52429L28.7555 9.90027L28.9627 9.44519ZM17.1511 4.06921L17.5047 3.71566L17.5037 3.71468L17.1502 4.06824L16.7966 4.42179L16.7976 4.42277L17.1511 4.06921ZM17.1502 4.06824L17.3575 3.61327C17.0877 3.4903 16.7941 3.42664 16.4978 3.42664V3.92664V4.42664C16.6512 4.42664 16.8033 4.45965 16.9428 4.52321L17.1502 4.06824Z" fill="black" fill-opacity="0.1" mask="url(#path-1-outside-1_25_191)"/>
<path d="M30.239 22.1952L30.2352 21.6952L30.2349 21.6952L30.239 22.1952ZM31.4275 23.3641L31.9275 23.3602V23.3601L31.4275 23.3641ZM31.0232 24.7626L31.4441 25.0325L31.4441 25.0324L31.0232 24.7626ZM29.9236 25.7108L29.7178 25.2551C29.5682 25.3227 29.4612 25.4594 29.4317 25.621C29.4022 25.7825 29.4539 25.9483 29.57 26.0644L29.9236 25.7108ZM29.9246 25.7118L30.1315 26.167C30.2808 26.0991 30.3873 25.9624 30.4165 25.801C30.4458 25.6396 30.3941 25.4742 30.2781 25.3582L29.9246 25.7118ZM18.1277 31.0741V31.5741C18.1991 31.5741 18.2696 31.5588 18.3346 31.5293L18.1277 31.0741ZM18.1257 31.0741V30.5741C18.0546 30.5741 17.9843 30.5893 17.9195 30.6186L18.1257 31.0741ZM16.5046 31.4247L16.5046 31.9247H16.5046V31.4247ZM14.8845 31.0741L15.0908 30.6186C15.026 30.5893 14.9557 30.5741 14.8845 30.5741V31.0741ZM14.8826 31.0741L14.6756 31.5293C14.7406 31.5588 14.8112 31.5741 14.8826 31.5741V31.0741ZM3.05836 25.6981L2.81029 26.1322C2.82366 26.1399 2.83739 26.1469 2.85141 26.1533L3.05836 25.6981ZM3.05152 25.6942L3.29959 25.2601C3.28719 25.253 3.27448 25.2465 3.26152 25.2405L3.05152 25.6942ZM1.96949 24.7499L1.54784 25.0186L1.54787 25.0186L1.96949 24.7499ZM1.57008 23.371L1.07008 23.3697L1.07008 23.3698L1.57008 23.371ZM2.75172 22.1952L2.75313 21.6952H2.75294L2.75172 22.1952ZM3.92652 23.3768L3.42652 23.3756L3.42652 23.3766L3.92652 23.3768ZM3.95777 23.4823L3.53568 23.7503L3.53634 23.7514L3.95777 23.4823ZM4.04078 23.5546L3.82922 24.0076L3.83383 24.0097L4.04078 23.5546ZM15.8582 28.9276L15.6512 29.3828L15.6523 29.3833L15.8582 28.9276ZM16.5046 29.0673L16.5044 29.5673H16.5046V29.0673ZM17.1521 28.9276L17.3579 29.3833L17.359 29.3828L17.1521 28.9276ZM28.95 23.5653L29.1568 24.0205C29.1625 24.0179 29.168 24.0153 29.1736 24.0125L28.95 23.5653ZM28.9539 23.5634L28.7486 23.1074C28.7425 23.1102 28.7363 23.1131 28.7303 23.1161L28.9539 23.5634ZM29.0388 23.4901L29.4597 23.76L29.4601 23.7594L29.0388 23.4901ZM29.0701 23.3827L28.5701 23.3866V23.3866L29.0701 23.3827ZM30.239 15.3212L30.2352 14.8212L30.2349 14.8212L30.239 15.3212ZM31.4275 16.4911L31.9275 16.4872V16.4871L31.4275 16.4911ZM31.0232 17.8895L31.4441 18.1595L31.4441 18.1594L31.0232 17.8895ZM29.9236 18.8378L29.7178 18.3821C29.5031 18.479 29.3852 18.7127 29.4348 18.943C29.4844 19.1733 29.688 19.3378 29.9236 19.3378V18.8378ZM29.9246 18.8378L30.1315 19.2929C30.3457 19.1956 30.4631 18.9619 30.4132 18.7319C30.3634 18.5019 30.1599 18.3378 29.9246 18.3378V18.8378ZM18.1277 24.2001L17.9208 23.7449C17.9152 23.7474 17.9096 23.7501 17.9041 23.7529L18.1277 24.2001ZM18.1257 24.201L18.332 24.6565C18.3378 24.6539 18.3436 24.6511 18.3493 24.6483L18.1257 24.201ZM16.5046 24.5507L16.5046 25.0507H16.5046V24.5507ZM14.8845 24.201L14.6609 24.6483C14.6667 24.6511 14.6724 24.6539 14.6783 24.6565L14.8845 24.201ZM14.8826 24.2001L15.1062 23.7529C15.1007 23.7501 15.0951 23.7475 15.0895 23.7449L14.8826 24.2001ZM3.05836 18.8241L3.26535 18.3688L3.25532 18.3645L3.05836 18.8241ZM3.05152 18.8212L2.84152 19.2749C2.84584 19.2769 2.85019 19.2789 2.85456 19.2807L3.05152 18.8212ZM1.96949 17.8759L1.54781 18.1445L1.54785 18.1446L1.96949 17.8759ZM1.57008 16.4969L1.07008 16.4956L1.07008 16.4957L1.57008 16.4969ZM2.75172 15.3212L2.75313 14.8212H2.75294L2.75172 15.3212ZM3.92652 16.5028L4.42652 16.504L4.42652 16.504L3.92652 16.5028ZM3.95777 16.6093L3.53567 16.8773L3.53683 16.8791L3.95777 16.6093ZM4.04078 16.6815L3.82922 17.1346L3.83383 17.1367L4.04078 16.6815ZM15.8582 22.0546L15.6512 22.5097L15.6523 22.5102L15.8582 22.0546ZM16.5046 22.1942L16.5044 22.6942H16.5046V22.1942ZM17.1521 22.0546L17.3579 22.5103L17.359 22.5098L17.1521 22.0546ZM28.95 16.6923L29.1568 17.1474C29.1625 17.1449 29.168 17.1422 29.1736 17.1395L28.95 16.6923ZM28.9539 16.6903L28.7489 16.2343C28.7426 16.2371 28.7364 16.24 28.7303 16.2431L28.9539 16.6903ZM29.0388 16.6171L29.4594 16.8874L29.4599 16.8867L29.0388 16.6171ZM29.0701 16.5096L29.5701 16.5066L29.5701 16.5057L29.0701 16.5096ZM16.4978 1.57019V1.07019H16.4978L16.4978 1.57019ZM18.1277 1.92468L17.9203 2.37965C18.0751 2.4502 18.2551 2.43722 18.3982 2.34521C18.5412 2.2532 18.6277 2.09478 18.6277 1.92468H18.1277ZM18.1277 1.92371L18.3348 1.46863C18.1801 1.39818 18.0001 1.41122 17.8571 1.50325C17.7141 1.59527 17.6277 1.75366 17.6277 1.92371H18.1277ZM29.9382 7.29968L29.7311 7.75477L29.7341 7.75612L29.9382 7.29968ZM31.0349 8.23621L31.4538 7.96314L31.4537 7.9631L31.0349 8.23621ZM31.45 9.63074L31.95 9.63076V9.63068L31.45 9.63074ZM31.0349 11.0253L31.4538 11.2983L31.4538 11.2983L31.0349 11.0253ZM29.9382 11.9608L29.7341 11.5044C29.5541 11.5849 29.4382 11.7637 29.4382 11.9608H29.9382ZM29.9382 11.9618L30.1177 12.4285C30.3108 12.3542 30.4382 12.1687 30.4382 11.9618H29.9382ZM29.9255 11.9667L29.7461 11.5C29.7368 11.5036 29.7277 11.5074 29.7186 11.5115L29.9255 11.9667ZM18.1404 17.3241L17.9335 16.8689L17.9331 16.8691L18.1404 17.3241ZM16.5125 17.6776V18.1776H16.5125L16.5125 17.6776ZM14.8826 17.3231L15.09 16.8682C14.9352 16.7976 14.7552 16.8106 14.6121 16.9026C14.4691 16.9946 14.3826 17.153 14.3826 17.3231H14.8826ZM14.8826 17.3241L14.6752 17.7791C14.83 17.8496 15.01 17.8366 15.1531 17.7446C15.2961 17.6526 15.3826 17.4942 15.3826 17.3241H14.8826ZM3.09742 11.953L3.30479 11.498L3.29925 11.4955L3.09742 11.953ZM1.98902 11.0116L1.57017 11.2847L1.57018 11.2847L1.98902 11.0116ZM1.57398 9.61707L1.07398 9.61701V9.61711L1.57398 9.61707ZM1.98902 8.22253L1.57018 7.94946L1.57018 7.94946L1.98902 8.22253ZM3.08472 7.28601L3.28898 7.7424L3.29181 7.74111L3.08472 7.28601ZM14.8689 1.92371L15.076 2.3788L15.0763 2.37868L14.8689 1.92371ZM16.4978 3.92664V3.42664H16.4977L16.4978 3.92664ZM15.8464 4.06824L15.6391 3.61326C15.5847 3.63805 15.5352 3.67241 15.4929 3.71468L15.8464 4.06824ZM15.8455 4.06921L16.0526 4.52431C16.1071 4.49951 16.1567 4.46511 16.199 4.42277L15.8455 4.06921ZM4.06129 9.43152L3.8542 8.97642L3.85394 8.97654L4.06129 9.43152ZM4.04859 9.43738L3.84676 8.97992L3.84593 8.98029L4.04859 9.43738ZM3.96363 9.50964L3.54523 9.23589L3.54471 9.23668L3.96363 9.50964ZM3.9314 9.61707L3.4314 9.61631L3.4314 9.61769L3.9314 9.61707ZM3.96363 9.72449L3.54462 9.9973L3.54518 9.99816L3.96363 9.72449ZM4.00074 9.76746L3.67694 10.1484C3.69664 10.1652 3.71761 10.1804 3.73966 10.1939L4.00074 9.76746ZM4.04859 9.79675L3.78751 10.2232C3.80806 10.2358 3.82949 10.2468 3.85163 10.2563L4.04859 9.79675ZM4.06226 9.80261L4.26968 9.34752L4.25922 9.34304L4.06226 9.80261ZM15.8601 15.1796L16.0675 14.7246L16.0675 14.7246L15.8601 15.1796ZM16.5125 15.3212V15.8212H16.5126L16.5125 15.3212ZM17.1638 15.1796L17.3712 15.6345C17.3767 15.632 17.3821 15.6295 17.3874 15.6268L17.1638 15.1796ZM17.1658 15.1786L16.9589 14.7234C16.9533 14.726 16.9477 14.7286 16.9422 14.7314L17.1658 15.1786ZM28.9627 9.81628L28.7558 9.3611L28.7558 9.3611L28.9627 9.81628ZM28.9753 9.81042L29.1772 10.2679L29.1779 10.2675L28.9753 9.81042ZM29.0613 9.73816L29.4801 10.0112L29.4807 10.0104L29.0613 9.73816ZM29.0925 9.63074L29.5925 9.63107L29.5925 9.63005L29.0925 9.63074ZM29.0613 9.52332L29.4804 9.25058L29.4801 9.25025L29.0613 9.52332ZM28.9753 9.45105L29.1776 8.9938L29.1772 8.99359L28.9753 9.45105ZM28.9627 9.44519L29.1698 8.99014L29.1698 8.99011L28.9627 9.44519ZM17.1511 4.06921L16.7976 4.42277C16.8399 4.4651 16.8895 4.49949 16.944 4.52429L17.1511 4.06921ZM17.1502 4.06824L17.5037 3.71468C17.4614 3.67241 17.4119 3.63806 17.3575 3.61327L17.1502 4.06824ZM30.239 22.1952L30.2429 22.6952C30.618 22.6923 30.9245 22.9941 30.9275 23.3682L31.4275 23.3641L31.9275 23.3601C31.92 22.4328 31.1614 21.6881 30.2352 21.6952L30.239 22.1952ZM31.4275 23.3641L30.9275 23.3681C30.9306 23.7661 30.8175 24.1571 30.6023 24.4927L31.0232 24.7626L31.4441 25.0324C31.7637 24.534 31.9321 23.9529 31.9275 23.3602L31.4275 23.3641ZM31.0232 24.7626L30.6023 24.4927C30.3882 24.8265 30.0806 25.0913 29.7178 25.2551L29.9236 25.7108L30.1294 26.1665C30.6671 25.9237 31.1247 25.5305 31.4441 25.0325L31.0232 24.7626ZM29.9236 25.7108L29.57 26.0644L29.571 26.0653L29.9246 25.7118L30.2781 25.3582L30.2771 25.3573L29.9236 25.7108ZM29.9246 25.7118L29.7177 25.2566L17.9208 30.6189L18.1277 31.0741L18.3346 31.5293L30.1315 26.167L29.9246 25.7118ZM18.1277 31.0741V30.5741H18.1257V31.0741V31.5741H18.1277V31.0741ZM18.1257 31.0741L17.9195 30.6186C17.4748 30.82 16.992 30.9247 16.5046 30.9247V31.4247V31.9247C17.1351 31.9247 17.7584 31.7893 18.332 31.5296L18.1257 31.0741ZM16.5046 31.4247L16.5047 30.9247C16.0176 30.9246 15.5353 30.8199 15.0908 30.6186L14.8845 31.0741L14.6783 31.5296C15.2516 31.7892 15.8743 31.9246 16.5046 31.9247L16.5046 31.4247ZM14.8845 31.0741V30.5741H14.8826V31.0741V31.5741H14.8845V31.0741ZM14.8826 31.0741L15.0895 30.6189L3.2653 25.243L3.05836 25.6981L2.85141 26.1533L14.6756 31.5293L14.8826 31.0741ZM3.05836 25.6981L3.30643 25.264L3.29959 25.2601L3.05152 25.6942L2.80345 26.1283L2.81029 26.1322L3.05836 25.6981ZM3.05152 25.6942L3.26152 25.2405C2.90433 25.0751 2.60177 24.8116 2.39111 24.4811L1.96949 24.7499L1.54787 25.0186C1.86223 25.5118 2.31231 25.9031 2.84152 26.148L3.05152 25.6942ZM1.96949 24.7499L2.39114 24.4812C2.18042 24.1505 2.06915 23.7654 2.07007 23.3721L1.57008 23.371L1.07008 23.3698C1.06871 23.9531 1.2337 24.5257 1.54784 25.0186L1.96949 24.7499ZM1.57008 23.371L2.07007 23.3722C2.071 22.9975 2.37571 22.6943 2.7505 22.6952L2.75172 22.1952L2.75294 21.6952C1.82596 21.6929 1.07237 22.4427 1.07008 23.3697L1.57008 23.371ZM2.75172 22.1952L2.7503 22.6952C3.1246 22.6962 3.42744 23.0006 3.42652 23.3756L3.92652 23.3768L4.42652 23.3781C4.42878 22.4516 3.68023 21.6978 2.75313 21.6952L2.75172 22.1952ZM3.92652 23.3768L3.42652 23.3766C3.42647 23.5144 3.46776 23.6434 3.53568 23.7503L3.95777 23.4823L4.37987 23.2143C4.40777 23.2582 4.42655 23.3139 4.42652 23.377L3.92652 23.3768ZM3.95777 23.4823L3.53634 23.7514C3.60936 23.8657 3.71265 23.9532 3.82923 24.0076L4.04078 23.5546L4.25233 23.1015C4.30134 23.1244 4.34632 23.1617 4.3792 23.2132L3.95777 23.4823ZM4.04078 23.5546L3.83383 24.0097L15.6512 29.3828L15.8582 28.9276L16.0651 28.4725L4.24773 23.0994L4.04078 23.5546ZM15.8582 28.9276L15.6523 29.3833C15.9197 29.5041 16.2103 29.5671 16.5044 29.5673L16.5046 29.0673L16.5049 28.5673C16.3533 28.5672 16.2029 28.5347 16.064 28.472L15.8582 28.9276ZM16.5046 29.0673V29.5673C16.799 29.5673 17.0903 29.5041 17.3579 29.3833L17.1521 28.9276L16.9463 28.4719C16.8074 28.5346 16.6563 28.5673 16.5046 28.5673V29.0673ZM17.1521 28.9276L17.359 29.3828L29.1568 24.0205L28.95 23.5653L28.7431 23.1101L16.9452 28.4724L17.1521 28.9276ZM28.95 23.5653L29.1736 24.0125L29.1775 24.0106L28.9539 23.5634L28.7303 23.1161L28.7264 23.1181L28.95 23.5653ZM28.9539 23.5634L29.1591 24.0193C29.2819 23.964 29.3867 23.8739 29.4597 23.76L29.0388 23.4901L28.6179 23.2202C28.6499 23.1704 28.6952 23.1314 28.7486 23.1074L28.9539 23.5634ZM29.0388 23.4901L29.4601 23.7594C29.5312 23.6482 29.5711 23.5163 29.5701 23.3787L29.0701 23.3827L28.5701 23.3866C28.5696 23.3252 28.5874 23.268 28.6176 23.2208L29.0388 23.4901ZM29.0701 23.3827L29.5701 23.3788C29.5672 23.0043 29.8684 22.6983 30.2431 22.6952L30.239 22.1952L30.2349 21.6952C29.3084 21.7028 28.5629 22.4597 28.5701 23.3866L29.0701 23.3827ZM30.239 15.3212L30.2429 15.8212C30.6176 15.8183 30.9246 16.1205 30.9275 16.495L31.4275 16.4911L31.9275 16.4871C31.9202 15.5601 31.1619 14.8141 30.2352 14.8212L30.239 15.3212ZM31.4275 16.4911L30.9275 16.495C30.9306 16.8931 30.8174 17.2841 30.6023 17.6197L31.0232 17.8895L31.4441 18.1594C31.7637 17.661 31.9321 17.0798 31.9275 16.4872L31.4275 16.4911ZM31.0232 17.8895L30.6023 17.6196C30.3882 17.9534 30.0805 18.2183 29.7178 18.3821L29.9236 18.8378L30.1294 19.2935C30.6671 19.0507 31.1247 18.6573 31.4441 18.1595L31.0232 17.8895ZM29.9236 18.8378V19.3378H29.9246V18.8378V18.3378H29.9236V18.8378ZM29.9246 18.8378L29.7177 18.3826L17.9208 23.7449L18.1277 24.2001L18.3346 24.6553L30.1315 19.2929L29.9246 18.8378ZM18.1277 24.2001L17.9041 23.7529L17.9021 23.7538L18.1257 24.201L18.3493 24.6483L18.3513 24.6473L18.1277 24.2001ZM18.1257 24.201L17.9195 23.7456C17.4753 23.9467 16.9926 24.0507 16.5046 24.0507V24.5507V25.0507C17.1345 25.0507 17.7579 24.9165 18.332 24.6565L18.1257 24.201ZM16.5046 24.5507L16.5047 24.0507C16.017 24.0506 15.5348 23.9466 15.0908 23.7456L14.8845 24.201L14.6783 24.6565C15.2521 24.9164 15.8749 25.0506 16.5046 25.0507L16.5046 24.5507ZM14.8845 24.201L15.1081 23.7538L15.1062 23.7529L14.8826 24.2001L14.659 24.6473L14.6609 24.6483L14.8845 24.201ZM14.8826 24.2001L15.0895 23.7449L3.2653 18.3689L3.05836 18.8241L2.85141 19.2793L14.6756 24.6552L14.8826 24.2001ZM3.05836 18.8241L3.25532 18.3645L3.24848 18.3616L3.05152 18.8212L2.85456 19.2807L2.8614 19.2837L3.05836 18.8241ZM3.05152 18.8212L3.26152 18.3674C2.90475 18.2023 2.60205 17.938 2.39113 17.6071L1.96949 17.8759L1.54785 18.1446C1.86195 18.6374 2.3118 19.0298 2.84152 19.2749L3.05152 18.8212ZM1.96949 17.8759L2.39117 17.6072C2.18043 17.2764 2.06911 16.8913 2.07007 16.4982L1.57008 16.4969L1.07008 16.4957C1.06864 17.0791 1.23381 17.6517 1.54781 18.1445L1.96949 17.8759ZM1.57008 16.4969L2.07007 16.4983C2.07108 16.1235 2.3759 15.8203 2.7505 15.8212L2.75172 15.3212L2.75294 14.8212C1.82594 14.8189 1.07256 15.5688 1.07008 16.4956L1.57008 16.4969ZM2.75172 15.3212L2.7503 15.8212C3.12449 15.8222 3.42739 16.1266 3.42652 16.5016L3.92652 16.5028L4.42652 16.504C4.42867 15.5777 3.68024 14.8238 2.75313 14.8212L2.75172 15.3212ZM3.92652 16.5028L3.42652 16.5016C3.42618 16.6384 3.46667 16.7686 3.53568 16.8773L3.95777 16.6093L4.37987 16.3412C4.40872 16.3867 4.42667 16.4422 4.42652 16.504L3.92652 16.5028ZM3.95777 16.6093L3.53683 16.8791C3.60932 16.9922 3.71216 17.0799 3.82923 17.1346L4.04078 16.6815L4.25233 16.2285C4.30204 16.2517 4.34634 16.2889 4.37871 16.3394L3.95777 16.6093ZM4.04078 16.6815L3.83383 17.1367L15.6512 22.5097L15.8582 22.0546L16.0651 21.5994L4.24773 16.2264L4.04078 16.6815ZM15.8582 22.0546L15.6523 22.5102C15.9197 22.631 16.2103 22.6941 16.5044 22.6942L16.5046 22.1942L16.5049 21.6942C16.3533 21.6942 16.2029 21.6616 16.064 21.5989L15.8582 22.0546ZM16.5046 22.1942V22.6942C16.799 22.6942 17.0903 22.6311 17.3579 22.5103L17.1521 22.0546L16.9463 21.5989C16.8074 21.6616 16.6563 21.6942 16.5046 21.6942V22.1942ZM17.1521 22.0546L17.359 22.5098L29.1568 17.1474L28.95 16.6923L28.7431 16.2371L16.9452 21.5994L17.1521 22.0546ZM28.95 16.6923L29.1736 17.1395L29.1775 17.1375L28.9539 16.6903L28.7303 16.2431L28.7264 16.245L28.95 16.6923ZM28.9539 16.6903L29.1588 17.1464C29.2824 17.0908 29.3868 17.0004 29.4594 16.8874L29.0388 16.6171L28.6182 16.3467C28.6497 16.2977 28.6948 16.2586 28.7489 16.2343L28.9539 16.6903ZM29.0388 16.6171L29.4599 16.8867C29.5317 16.7746 29.5709 16.6426 29.5701 16.5066L29.0701 16.5096L28.5701 16.5127C28.5697 16.4526 28.5869 16.3957 28.6177 16.3475L29.0388 16.6171ZM29.0701 16.5096L29.5701 16.5057C29.5671 16.1307 29.8688 15.8242 30.2431 15.8211L30.239 15.3212L30.2349 14.8212C29.3078 14.8288 28.5629 15.5871 28.5701 16.5135L29.0701 16.5096ZM16.4978 1.57019V2.07019C16.9881 2.07019 17.4736 2.17601 17.9203 2.37965L18.1277 1.92468L18.3351 1.46972C17.7587 1.207 17.1319 1.07019 16.4978 1.07019V1.57019ZM18.1277 1.92468H18.6277V1.92371H18.1277H17.6277V1.92468H18.1277ZM18.1277 1.92371L17.9206 2.37878L29.7311 7.75476L29.9382 7.29968L30.1454 6.84461L18.3348 1.46863L18.1277 1.92371ZM29.9382 7.29968L29.7341 7.75612C30.0942 7.91714 30.4005 8.17872 30.6161 8.50931L31.0349 8.23621L31.4537 7.9631C31.1333 7.47163 30.6779 7.08272 30.1424 6.84325L29.9382 7.29968ZM31.0349 8.23621L30.6161 8.50927C30.8337 8.84312 30.9499 9.23299 30.95 9.63079L31.45 9.63074L31.95 9.63068C31.9499 9.03827 31.7769 8.45882 31.4538 7.96314L31.0349 8.23621ZM31.45 9.63074L30.95 9.63071C30.9499 10.0285 30.8337 10.4183 30.6161 10.7522L31.0349 11.0253L31.4538 11.2983C31.7769 10.8026 31.9499 10.2233 31.95 9.63076L31.45 9.63074ZM31.0349 11.0253L30.6161 10.7522C30.4009 11.0823 30.0947 11.3431 29.7341 11.5044L29.9382 11.9608L30.1424 12.4172C30.6773 12.178 31.133 11.7903 31.4538 11.2983L31.0349 11.0253ZM29.9382 11.9608H29.4382V11.9618H29.9382H30.4382V11.9608H29.9382ZM29.9382 11.9618L29.7588 11.4951L29.7461 11.5L29.9255 11.9667L30.105 12.4333L30.1177 12.4285L29.9382 11.9618ZM29.9255 11.9667L29.7186 11.5115L17.9335 16.8689L18.1404 17.3241L18.3473 17.7793L30.1325 12.4219L29.9255 11.9667ZM18.1404 17.3241L17.9331 16.8691C17.4869 17.0723 17.0026 17.1776 16.5124 17.1776L16.5125 17.6776L16.5125 18.1776C17.1458 18.1775 17.7715 18.0416 18.3477 17.7791L18.1404 17.3241ZM16.5125 17.6776V17.1776C16.0219 17.1776 15.5368 17.0719 15.09 16.8682L14.8826 17.3231L14.6751 17.7781C15.2517 18.0409 15.8783 18.1776 16.5125 18.1776V17.6776ZM14.8826 17.3231H14.3826V17.3241H14.8826H15.3826V17.3231H14.8826ZM14.8826 17.3241L15.0899 16.8691L3.30478 11.498L3.09742 11.953L2.89006 12.408L14.6752 17.7791L14.8826 17.3241ZM3.09742 11.953L3.29925 11.4955C2.93487 11.3348 2.6252 11.0719 2.40787 10.7385L1.98902 11.0116L1.57018 11.2847C1.89357 11.7807 2.35416 12.1716 2.89559 12.4105L3.09742 11.953ZM1.98902 11.0116L2.40787 10.7385C2.19022 10.4047 2.07402 10.0148 2.07398 9.61702L1.57398 9.61707L1.07398 9.61711C1.07404 10.2096 1.24703 10.789 1.57017 11.2847L1.98902 11.0116ZM1.57398 9.61707L2.07398 9.61712C2.07403 9.21929 2.19022 8.82945 2.40787 8.49561L1.98902 8.22253L1.57018 7.94946C1.24701 8.44515 1.07405 9.02459 1.07398 9.61701L1.57398 9.61707ZM1.98902 8.22253L2.40786 8.49561C2.62348 8.16491 2.92936 7.90333 3.28898 7.74239L3.08472 7.28601L2.88047 6.82963C2.34502 7.06927 1.89035 7.45838 1.57018 7.94946L1.98902 8.22253ZM3.08472 7.28601L3.29181 7.74111L15.076 2.3788L14.8689 1.92371L14.6618 1.46861L2.87764 6.83091L3.08472 7.28601ZM14.8689 1.92371L15.0763 2.37868C15.5224 2.17534 16.0072 2.07025 16.4979 2.07019L16.4978 1.57019L16.4978 1.07019C15.8644 1.07026 15.2382 1.20593 14.6615 1.46873L14.8689 1.92371ZM16.4978 3.92664L16.4977 3.42664C16.2014 3.42672 15.9085 3.49048 15.6391 3.61326L15.8464 4.06824L16.0538 4.52322C16.1933 4.45964 16.3449 4.42668 16.498 4.42664L16.4978 3.92664ZM15.8464 4.06824L15.4929 3.71468L15.4919 3.71566L15.8455 4.06921L16.199 4.42277L16.2 4.42179L15.8464 4.06824ZM15.8455 4.06921L15.6384 3.61412L3.8542 8.97642L4.06129 9.43152L4.26838 9.88662L16.0526 4.52431L15.8455 4.06921ZM4.06129 9.43152L3.85394 8.97654C3.85099 8.97788 3.84843 8.97907 3.84676 8.97985C3.84558 8.9804 3.8432 8.98151 3.84313 8.98155C3.84237 8.9819 3.84246 8.98186 3.8429 8.98166C3.84335 8.98145 3.84474 8.98081 3.84676 8.97992L4.04859 9.43738L4.25042 9.89483C4.25447 9.89305 4.25796 9.89146 4.26053 9.89028C4.2631 9.8891 4.26535 9.88804 4.26676 9.88739C4.26884 9.88641 4.26863 9.88651 4.26957 9.88607C4.27003 9.88585 4.26956 9.88608 4.26863 9.8865L4.06129 9.43152ZM4.04859 9.43738L3.84593 8.98029C3.72283 9.03487 3.61845 9.12398 3.54523 9.23589L3.96363 9.50964L4.38203 9.7834C4.35026 9.83195 4.30515 9.87057 4.25126 9.89446L4.04859 9.43738ZM3.96363 9.50964L3.54471 9.23668C3.47231 9.3478 3.43161 9.47967 3.4314 9.61631L3.9314 9.61707L4.4314 9.61782C4.43131 9.67851 4.41349 9.73513 4.38255 9.78261L3.96363 9.50964ZM3.9314 9.61707L3.4314 9.61769C3.43158 9.75462 3.47244 9.88645 3.54462 9.9973L3.96363 9.72449L4.38264 9.45167C4.41338 9.49889 4.43133 9.55544 4.4314 9.61644L3.9314 9.61707ZM3.96363 9.72449L3.54518 9.99816C3.57591 10.0451 3.61876 10.099 3.67694 10.1484L4.00074 9.76746L4.32454 9.38647C4.35416 9.41164 4.37208 9.43552 4.38209 9.45082L3.96363 9.72449ZM4.00074 9.76746L3.73966 10.1939L3.78751 10.2232L4.04859 9.79675L4.30967 9.37033L4.26182 9.34103L4.00074 9.76746ZM4.04859 9.79675L3.85163 10.2563L3.8653 10.2622L4.06226 9.80261L4.25922 9.34304L4.24555 9.33718L4.04859 9.79675ZM4.06226 9.80261L3.85491 10.2576L15.6528 15.6345L15.8601 15.1796L16.0675 14.7246L4.26962 9.34764L4.06226 9.80261ZM15.8601 15.1796L15.6527 15.6345C15.9226 15.7575 16.2161 15.8212 16.5125 15.8212V15.3212V14.8212C16.359 14.8212 16.2069 14.7882 16.0675 14.7246L15.8601 15.1796ZM16.5125 15.3212L16.5126 15.8212C16.8089 15.8211 17.1017 15.7574 17.3712 15.6345L17.1638 15.1796L16.9565 14.7246C16.8169 14.7882 16.6654 14.8211 16.5123 14.8212L16.5125 15.3212ZM17.1638 15.1796L17.3874 15.6268L17.3894 15.6258L17.1658 15.1786L16.9422 14.7314L16.9402 14.7324L17.1638 15.1796ZM17.1658 15.1786L17.3727 15.6338L29.1696 10.2715L28.9627 9.81628L28.7558 9.3611L16.9589 14.7234L17.1658 15.1786ZM28.9627 9.81628L29.1696 10.2715C29.1727 10.2701 29.1753 10.2688 29.1771 10.268C29.1785 10.2674 29.1806 10.2663 29.1809 10.2662C29.1817 10.2658 29.1816 10.2659 29.1812 10.2661C29.1808 10.2663 29.1793 10.2669 29.1772 10.2679L28.9753 9.81042L28.7735 9.35297C28.7694 9.35479 28.7658 9.35641 28.7633 9.35759C28.7607 9.35876 28.7585 9.35981 28.7571 9.36045C28.7552 9.36134 28.7552 9.36135 28.7545 9.3617C28.754 9.36189 28.7546 9.3616 28.7558 9.3611L28.9627 9.81628ZM28.9753 9.81042L29.1779 10.2675C29.2954 10.2155 29.4033 10.129 29.4801 10.0112L29.0613 9.73816L28.6424 9.46508C28.6778 9.41091 28.7248 9.37458 28.7728 9.35331L28.9753 9.81042ZM29.0613 9.73816L29.4807 10.0104C29.5567 9.89328 29.5925 9.76018 29.5925 9.63107L29.0925 9.63074L28.5925 9.6304C28.5926 9.57714 28.6072 9.51943 28.6419 9.46592L29.0613 9.73816ZM29.0925 9.63074L29.5925 9.63005C29.5924 9.50184 29.5571 9.3685 29.4804 9.25058L29.0613 9.52332L28.6422 9.79605C28.6069 9.74174 28.5926 9.68373 28.5925 9.63142L29.0925 9.63074ZM29.0613 9.52332L29.4801 9.25025C29.4034 9.1326 29.2956 9.04597 29.1776 8.9938L28.9753 9.45105L28.7731 9.9083C28.7247 9.88689 28.6776 9.85036 28.6424 9.79638L29.0613 9.52332ZM28.9753 9.45105L29.1772 8.99359C29.1806 8.9951 29.1828 8.99616 29.1809 8.99528C29.1808 8.99522 29.1785 8.99415 29.1772 8.99354C29.1755 8.99273 29.1729 8.99152 29.1698 8.99014L28.9627 9.44519L28.7555 9.90025C28.7545 9.89981 28.754 9.89956 28.7544 9.89974C28.7552 9.90012 28.755 9.90005 28.7571 9.901C28.7595 9.90212 28.766 9.90517 28.7735 9.90851L28.9753 9.45105ZM28.9627 9.44519L29.1698 8.99011L17.3583 3.61413L17.1511 4.06921L16.944 4.52429L28.7555 9.90027L28.9627 9.44519ZM17.1511 4.06921L17.5047 3.71566L17.5037 3.71468L17.1502 4.06824L16.7966 4.42179L16.7976 4.42277L17.1511 4.06921ZM17.1502 4.06824L17.3575 3.61327C17.0877 3.4903 16.7941 3.42664 16.4978 3.42664V3.92664V4.42664C16.6512 4.42664 16.8033 4.45965 16.9428 4.52321L17.1502 4.06824Z" fill="black" fill-opacity="0.15" mask="url(#path-1-outside-1_25_191)"/>
<defs>
<filter id="filter0_i_25_191" x="1.07007" y="1.07019" width="31.4685" height="31.4431" filterUnits="userSpaceOnUse" color-interpolation-filters="sRGB">
<feFlood flood-opacity="0" result="BackgroundImageFix"/>
<feBlend mode="normal" in="SourceGraphic" in2="BackgroundImageFix" result="shape"/>
<feColorMatrix in="SourceAlpha" type="matrix" values="0 0 0 0 0 0 0 0 0 0 0 0 0 0 0 0 0 0 127 0" result="hardAlpha"/>
<feOffset dx="0.588649" dy="0.588649"/>
<feGaussianBlur stdDeviation="0.294324"/>
<feComposite in2="hardAlpha" operator="arithmetic" k2="-1" k3="1"/>
<feColorMatrix type="matrix" values="0 0 0 0 0.0823529 0 0 0 0 0.211765 0 0 0 0 0.180392 0 0 0 0.55 0"/>
<feBlend mode="normal" in2="shape" result="effect1_innerShadow_25_191"/>
</filter>
<linearGradient id="paint0_linear_25_191" x1="1.82828" y1="4.15004" x2="28.1446" y2="28.4232" gradientUnits="userSpaceOnUse">
<stop stop-color="#4E2E09"/>
<stop offset="1" stop-color="#4C351A"/>
</linearGradient>
</defs>
</svg>
