<svg width="33" height="33" viewBox="0 0 33 33" fill="none" xmlns="http://www.w3.org/2000/svg">
<mask id="path-1-outside-1_25_207" maskUnits="userSpaceOnUse" x="1.94727" y="1.94714" width="29" height="29" fill="black">
<rect fill="white" x="1.94727" y="1.94714" width="29" height="29"/>
<path d="M26.125 2.94714C28.2939 2.94714 30.0527 4.70594 30.0527 6.87488V26.1249C30.0527 28.2939 28.294 30.0526 26.125 30.0526H6.875C4.70607 30.0525 2.94727 28.2938 2.94727 26.1249V6.87488C2.94733 4.70598 4.70611 2.94721 6.875 2.94714H26.125ZM5.30273 26.1249C5.30273 26.9934 6.00647 27.6971 6.875 27.6971H8.44824V23.8651H5.30273V26.1249ZM10.8037 27.6971H22.1973V17.6776H10.8037V27.6971ZM24.5527 23.8651V27.6971H26.125C26.9936 27.6971 27.6973 26.9935 27.6973 26.1249V23.8651H24.5527ZM24.5527 21.5096H27.6973V17.6776H24.5527V21.5096ZM5.30273 21.5096H8.44824V17.6776H5.30273V21.5096ZM5.30273 15.3221H8.44824V11.4901H5.30273V15.3221ZM10.8037 15.3221H22.1973V5.30261H10.8037V15.3221ZM24.5527 15.3221H27.6973V11.4901H24.5527V15.3221ZM6.875 5.30261C6.00651 5.30267 5.3028 6.00639 5.30273 6.87488V9.13464H8.44824V5.30261H6.875ZM24.5527 9.13464H27.6973V6.87488C27.6972 6.00635 26.9935 5.30261 26.125 5.30261H24.5527V9.13464Z"/>
</mask>
<g filter="url(#filter0_i_25_207)">
<path d="M26.125 2.94714C28.2939 2.94714 30.0527 4.70594 30.0527 6.87488V26.1249C30.0527 28.2939 28.294 30.0526 26.125 30.0526H6.875C4.70607 30.0525 2.94727 28.2938 2.94727 26.1249V6.87488C2.94733 4.70598 4.70611 2.94721 6.875 2.94714H26.125ZM5.30273 26.1249C5.30273 26.9934 6.00647 27.6971 6.875 27.6971H8.44824V23.8651H5.30273V26.1249ZM10.8037 27.6971H22.1973V17.6776H10.8037V27.6971ZM24.5527 23.8651V27.6971H26.125C26.9936 27.6971 27.6973 26.9935 27.6973 26.1249V23.8651H24.5527ZM24.5527 21.5096H27.6973V17.6776H24.5527V21.5096ZM5.30273 21.5096H8.44824V17.6776H5.30273V21.5096ZM5.30273 15.3221H8.44824V11.4901H5.30273V15.3221ZM10.8037 15.3221H22.1973V5.30261H10.8037V15.3221ZM24.5527 15.3221H27.6973V11.4901H24.5527V15.3221ZM6.875 5.30261C6.00651 5.30267 5.3028 6.00639 5.30273 6.87488V9.13464H8.44824V5.30261H6.875ZM24.5527 9.13464H27.6973V6.87488C27.6972 6.00635 26.9935 5.30261 26.125 5.30261H24.5527V9.13464Z" fill="url(#paint0_linear_25_207)"/>
</g>
<path d="M30.0527 6.87488H30.5527V6.87486L30.0527 6.87488ZM6.875 30.0526L6.87499 30.5526H6.875V30.0526ZM2.94727 6.87488L2.44727 6.87486V6.87488H2.94727ZM6.875 2.94714V2.44714H6.87499L6.875 2.94714ZM6.875 27.6971L6.87496 28.1971H6.875V27.6971ZM8.44824 27.6971V28.1971C8.72438 28.1971 8.94824 27.9733 8.94824 27.6971H8.44824ZM8.44824 23.8651H8.94824C8.94824 23.589 8.72438 23.3651 8.44824 23.3651V23.8651ZM5.30273 23.8651V23.3651C5.02659 23.3651 4.80273 23.589 4.80273 23.8651H5.30273ZM10.8037 27.6971H10.3037C10.3037 27.9733 10.5276 28.1971 10.8037 28.1971V27.6971ZM22.1973 27.6971V28.1971C22.4734 28.1971 22.6973 27.9733 22.6973 27.6971H22.1973ZM22.1973 17.6776H22.6973C22.6973 17.4015 22.4734 17.1776 22.1973 17.1776V17.6776ZM10.8037 17.6776V17.1776C10.5276 17.1776 10.3037 17.4015 10.3037 17.6776H10.8037ZM24.5527 23.8651V23.3651C24.2766 23.3651 24.0527 23.589 24.0527 23.8651H24.5527ZM24.5527 27.6971H24.0527C24.0527 27.9733 24.2766 28.1971 24.5527 28.1971V27.6971ZM27.6973 23.8651H28.1973C28.1973 23.589 27.9734 23.3651 27.6973 23.3651V23.8651ZM24.5527 21.5096H24.0527C24.0527 21.7858 24.2766 22.0096 24.5527 22.0096V21.5096ZM27.6973 21.5096V22.0096C27.9734 22.0096 28.1973 21.7858 28.1973 21.5096H27.6973ZM27.6973 17.6776H28.1973C28.1973 17.4015 27.9734 17.1776 27.6973 17.1776V17.6776ZM24.5527 17.6776V17.1776C24.2766 17.1776 24.0527 17.4015 24.0527 17.6776H24.5527ZM5.30273 21.5096H4.80273C4.80273 21.7858 5.02659 22.0096 5.30273 22.0096V21.5096ZM8.44824 21.5096V22.0096C8.72438 22.0096 8.94824 21.7858 8.94824 21.5096H8.44824ZM8.44824 17.6776H8.94824C8.94824 17.4015 8.72438 17.1776 8.44824 17.1776V17.6776ZM5.30273 17.6776V17.1776C5.02659 17.1776 4.80273 17.4015 4.80273 17.6776H5.30273ZM5.30273 15.3221H4.80273C4.80273 15.5983 5.02659 15.8221 5.30273 15.8221V15.3221ZM8.44824 15.3221V15.8221C8.72438 15.8221 8.94824 15.5983 8.94824 15.3221H8.44824ZM8.44824 11.4901H8.94824C8.94824 11.214 8.72438 10.9901 8.44824 10.9901V11.4901ZM5.30273 11.4901V10.9901C5.02659 10.9901 4.80273 11.214 4.80273 11.4901H5.30273ZM10.8037 15.3221H10.3037C10.3037 15.5983 10.5276 15.8221 10.8037 15.8221V15.3221ZM22.1973 15.3221V15.8221C22.4734 15.8221 22.6973 15.5983 22.6973 15.3221H22.1973ZM22.1973 5.30261H22.6973C22.6973 5.02647 22.4734 4.80261 22.1973 4.80261V5.30261ZM10.8037 5.30261V4.80261C10.5276 4.80261 10.3037 5.02647 10.3037 5.30261H10.8037ZM24.5527 15.3221H24.0527C24.0527 15.5983 24.2766 15.8221 24.5527 15.8221V15.3221ZM27.6973 15.3221V15.8221C27.9734 15.8221 28.1973 15.5983 28.1973 15.3221H27.6973ZM27.6973 11.4901H28.1973C28.1973 11.214 27.9734 10.9901 27.6973 10.9901V11.4901ZM24.5527 11.4901V10.9901C24.2766 10.9901 24.0527 11.214 24.0527 11.4901H24.5527ZM6.875 5.30261V4.80261H6.87496L6.875 5.30261ZM5.30273 6.87488L4.80273 6.87484V6.87488H5.30273ZM5.30273 9.13464H4.80273C4.80273 9.41079 5.02659 9.63464 5.30273 9.63464V9.13464ZM8.44824 9.13464V9.63464C8.72438 9.63464 8.94824 9.41079 8.94824 9.13464H8.44824ZM8.44824 5.30261H8.94824C8.94824 5.02647 8.72438 4.80261 8.44824 4.80261V5.30261ZM24.5527 9.13464H24.0527C24.0527 9.41079 24.2766 9.63464 24.5527 9.63464V9.13464ZM27.6973 9.13464V9.63464C27.9734 9.63464 28.1973 9.41079 28.1973 9.13464H27.6973ZM27.6973 6.87488H28.1973V6.87484L27.6973 6.87488ZM24.5527 5.30261V4.80261C24.2766 4.80261 24.0527 5.02647 24.0527 5.30261H24.5527ZM26.125 2.94714V3.44714C28.0178 3.44714 29.5527 4.98208 29.5527 6.87489L30.0527 6.87488L30.5527 6.87486C30.5527 4.42981 28.5701 2.44714 26.125 2.44714V2.94714ZM30.0527 6.87488H29.5527V26.1249H30.0527H30.5527V6.87488H30.0527ZM30.0527 26.1249H29.5527C29.5527 28.0177 28.0178 29.5526 26.125 29.5526V30.0526V30.5526C28.5701 30.5526 30.5527 28.57 30.5527 26.1249H30.0527ZM26.125 30.0526V29.5526H6.875V30.0526V30.5526H26.125V30.0526ZM6.875 30.0526L6.87501 29.5526C4.9822 29.5526 3.44727 28.0177 3.44727 26.1249H2.94727H2.44727C2.44727 28.57 4.42994 30.5525 6.87499 30.5526L6.875 30.0526ZM2.94727 26.1249H3.44727V6.87488H2.94727H2.44727V26.1249H2.94727ZM2.94727 6.87488L3.44727 6.87489C3.44732 4.98213 4.98225 3.4472 6.87501 3.44714L6.875 2.94714L6.87499 2.44714C4.42996 2.44721 2.44734 4.42984 2.44727 6.87486L2.94727 6.87488ZM6.875 2.94714V3.44714H26.125V2.94714V2.44714H6.875V2.94714ZM5.30273 26.1249H4.80273C4.80273 27.2696 5.73036 28.1971 6.87496 28.1971L6.875 27.6971L6.87504 27.1971C6.28259 27.1971 5.80273 26.7172 5.80273 26.1249H5.30273ZM6.875 27.6971V28.1971H8.44824V27.6971V27.1971H6.875V27.6971ZM8.44824 27.6971H8.94824V23.8651H8.44824H7.94824V27.6971H8.44824ZM8.44824 23.8651V23.3651H5.30273V23.8651V24.3651H8.44824V23.8651ZM5.30273 23.8651H4.80273V26.1249H5.30273H5.80273V23.8651H5.30273ZM10.8037 27.6971V28.1971H22.1973V27.6971V27.1971H10.8037V27.6971ZM22.1973 27.6971H22.6973V17.6776H22.1973H21.6973V27.6971H22.1973ZM22.1973 17.6776V17.1776H10.8037V17.6776V18.1776H22.1973V17.6776ZM10.8037 17.6776H10.3037V27.6971H10.8037H11.3037V17.6776H10.8037ZM24.5527 23.8651H24.0527V27.6971H24.5527H25.0527V23.8651H24.5527ZM24.5527 27.6971V28.1971H26.125V27.6971V27.1971H24.5527V27.6971ZM26.125 27.6971V28.1971C27.2697 28.1971 28.1973 27.2696 28.1973 26.1249H27.6973H27.1973C27.1973 26.7173 26.7174 27.1971 26.125 27.1971V27.6971ZM27.6973 26.1249H28.1973V23.8651H27.6973H27.1973V26.1249H27.6973ZM27.6973 23.8651V23.3651H24.5527V23.8651V24.3651H27.6973V23.8651ZM24.5527 21.5096V22.0096H27.6973V21.5096V21.0096H24.5527V21.5096ZM27.6973 21.5096H28.1973V17.6776H27.6973H27.1973V21.5096H27.6973ZM27.6973 17.6776V17.1776H24.5527V17.6776V18.1776H27.6973V17.6776ZM24.5527 17.6776H24.0527V21.5096H24.5527H25.0527V17.6776H24.5527ZM5.30273 21.5096V22.0096H8.44824V21.5096V21.0096H5.30273V21.5096ZM8.44824 21.5096H8.94824V17.6776H8.44824H7.94824V21.5096H8.44824ZM8.44824 17.6776V17.1776H5.30273V17.6776V18.1776H8.44824V17.6776ZM5.30273 17.6776H4.80273V21.5096H5.30273H5.80273V17.6776H5.30273ZM5.30273 15.3221V15.8221H8.44824V15.3221V14.8221H5.30273V15.3221ZM8.44824 15.3221H8.94824V11.4901H8.44824H7.94824V15.3221H8.44824ZM8.44824 11.4901V10.9901H5.30273V11.4901V11.9901H8.44824V11.4901ZM5.30273 11.4901H4.80273V15.3221H5.30273H5.80273V11.4901H5.30273ZM10.8037 15.3221V15.8221H22.1973V15.3221V14.8221H10.8037V15.3221ZM22.1973 15.3221H22.6973V5.30261H22.1973H21.6973V15.3221H22.1973ZM22.1973 5.30261V4.80261H10.8037V5.30261V5.80261H22.1973V5.30261ZM10.8037 5.30261H10.3037V15.3221H10.8037H11.3037V5.30261H10.8037ZM24.5527 15.3221V15.8221H27.6973V15.3221V14.8221H24.5527V15.3221ZM27.6973 15.3221H28.1973V11.4901H27.6973H27.1973V15.3221H27.6973ZM27.6973 11.4901V10.9901H24.5527V11.4901V11.9901H27.6973V11.4901ZM24.5527 11.4901H24.0527V15.3221H24.5527H25.0527V11.4901H24.5527ZM6.875 5.30261L6.87496 4.80261C5.73036 4.80269 4.80282 5.73024 4.80273 6.87484L5.30273 6.87488L5.80273 6.87491C5.80278 6.28254 6.28266 5.80265 6.87504 5.80261L6.875 5.30261ZM5.30273 6.87488H4.80273V9.13464H5.30273H5.80273V6.87488H5.30273ZM5.30273 9.13464V9.63464H8.44824V9.13464V8.63464H5.30273V9.13464ZM8.44824 9.13464H8.94824V5.30261H8.44824H7.94824V9.13464H8.44824ZM8.44824 5.30261V4.80261H6.875V5.30261V5.80261H8.44824V5.30261ZM24.5527 9.13464V9.63464H27.6973V9.13464V8.63464H24.5527V9.13464ZM27.6973 9.13464H28.1973V6.87488H27.6973H27.1973V9.13464H27.6973ZM27.6973 6.87488L28.1973 6.87484C28.1972 5.73024 27.2697 4.80261 26.125 4.80261V5.30261V5.80261C26.7174 5.80261 27.1972 6.28247 27.1973 6.87491L27.6973 6.87488ZM26.125 5.30261V4.80261H24.5527V5.30261V5.80261H26.125V5.30261ZM24.5527 5.30261H24.0527V9.13464H24.5527H25.0527V5.30261H24.5527Z" fill="black" fill-opacity="0.1" mask="url(#path-1-outside-1_25_207)"/>
<path d="M30.0527 6.87488H30.5527V6.87486L30.0527 6.87488ZM6.875 30.0526L6.87499 30.5526H6.875V30.0526ZM2.94727 6.87488L2.44727 6.87486V6.87488H2.94727ZM6.875 2.94714V2.44714H6.87499L6.875 2.94714ZM6.875 27.6971L6.87496 28.1971H6.875V27.6971ZM8.44824 27.6971V28.1971C8.72438 28.1971 8.94824 27.9733 8.94824 27.6971H8.44824ZM8.44824 23.8651H8.94824C8.94824 23.589 8.72438 23.3651 8.44824 23.3651V23.8651ZM5.30273 23.8651V23.3651C5.02659 23.3651 4.80273 23.589 4.80273 23.8651H5.30273ZM10.8037 27.6971H10.3037C10.3037 27.9733 10.5276 28.1971 10.8037 28.1971V27.6971ZM22.1973 27.6971V28.1971C22.4734 28.1971 22.6973 27.9733 22.6973 27.6971H22.1973ZM22.1973 17.6776H22.6973C22.6973 17.4015 22.4734 17.1776 22.1973 17.1776V17.6776ZM10.8037 17.6776V17.1776C10.5276 17.1776 10.3037 17.4015 10.3037 17.6776H10.8037ZM24.5527 23.8651V23.3651C24.2766 23.3651 24.0527 23.589 24.0527 23.8651H24.5527ZM24.5527 27.6971H24.0527C24.0527 27.9733 24.2766 28.1971 24.5527 28.1971V27.6971ZM27.6973 23.8651H28.1973C28.1973 23.589 27.9734 23.3651 27.6973 23.3651V23.8651ZM24.5527 21.5096H24.0527C24.0527 21.7858 24.2766 22.0096 24.5527 22.0096V21.5096ZM27.6973 21.5096V22.0096C27.9734 22.0096 28.1973 21.7858 28.1973 21.5096H27.6973ZM27.6973 17.6776H28.1973C28.1973 17.4015 27.9734 17.1776 27.6973 17.1776V17.6776ZM24.5527 17.6776V17.1776C24.2766 17.1776 24.0527 17.4015 24.0527 17.6776H24.5527ZM5.30273 21.5096H4.80273C4.80273 21.7858 5.02659 22.0096 5.30273 22.0096V21.5096ZM8.44824 21.5096V22.0096C8.72438 22.0096 8.94824 21.7858 8.94824 21.5096H8.44824ZM8.44824 17.6776H8.94824C8.94824 17.4015 8.72438 17.1776 8.44824 17.1776V17.6776ZM5.30273 17.6776V17.1776C5.02659 17.1776 4.80273 17.4015 4.80273 17.6776H5.30273ZM5.30273 15.3221H4.80273C4.80273 15.5983 5.02659 15.8221 5.30273 15.8221V15.3221ZM8.44824 15.3221V15.8221C8.72438 15.8221 8.94824 15.5983 8.94824 15.3221H8.44824ZM8.44824 11.4901H8.94824C8.94824 11.214 8.72438 10.9901 8.44824 10.9901V11.4901ZM5.30273 11.4901V10.9901C5.02659 10.9901 4.80273 11.214 4.80273 11.4901H5.30273ZM10.8037 15.3221H10.3037C10.3037 15.5983 10.5276 15.8221 10.8037 15.8221V15.3221ZM22.1973 15.3221V15.8221C22.4734 15.8221 22.6973 15.5983 22.6973 15.3221H22.1973ZM22.1973 5.30261H22.6973C22.6973 5.02647 22.4734 4.80261 22.1973 4.80261V5.30261ZM10.8037 5.30261V4.80261C10.5276 4.80261 10.3037 5.02647 10.3037 5.30261H10.8037ZM24.5527 15.3221H24.0527C24.0527 15.5983 24.2766 15.8221 24.5527 15.8221V15.3221ZM27.6973 15.3221V15.8221C27.9734 15.8221 28.1973 15.5983 28.1973 15.3221H27.6973ZM27.6973 11.4901H28.1973C28.1973 11.214 27.9734 10.9901 27.6973 10.9901V11.4901ZM24.5527 11.4901V10.9901C24.2766 10.9901 24.0527 11.214 24.0527 11.4901H24.5527ZM6.875 5.30261V4.80261H6.87496L6.875 5.30261ZM5.30273 6.87488L4.80273 6.87484V6.87488H5.30273ZM5.30273 9.13464H4.80273C4.80273 9.41079 5.02659 9.63464 5.30273 9.63464V9.13464ZM8.44824 9.13464V9.63464C8.72438 9.63464 8.94824 9.41079 8.94824 9.13464H8.44824ZM8.44824 5.30261H8.94824C8.94824 5.02647 8.72438 4.80261 8.44824 4.80261V5.30261ZM24.5527 9.13464H24.0527C24.0527 9.41079 24.2766 9.63464 24.5527 9.63464V9.13464ZM27.6973 9.13464V9.63464C27.9734 9.63464 28.1973 9.41079 28.1973 9.13464H27.6973ZM27.6973 6.87488H28.1973V6.87484L27.6973 6.87488ZM24.5527 5.30261V4.80261C24.2766 4.80261 24.0527 5.02647 24.0527 5.30261H24.5527ZM26.125 2.94714V3.44714C28.0178 3.44714 29.5527 4.98208 29.5527 6.87489L30.0527 6.87488L30.5527 6.87486C30.5527 4.42981 28.5701 2.44714 26.125 2.44714V2.94714ZM30.0527 6.87488H29.5527V26.1249H30.0527H30.5527V6.87488H30.0527ZM30.0527 26.1249H29.5527C29.5527 28.0177 28.0178 29.5526 26.125 29.5526V30.0526V30.5526C28.5701 30.5526 30.5527 28.57 30.5527 26.1249H30.0527ZM26.125 30.0526V29.5526H6.875V30.0526V30.5526H26.125V30.0526ZM6.875 30.0526L6.87501 29.5526C4.9822 29.5526 3.44727 28.0177 3.44727 26.1249H2.94727H2.44727C2.44727 28.57 4.42994 30.5525 6.87499 30.5526L6.875 30.0526ZM2.94727 26.1249H3.44727V6.87488H2.94727H2.44727V26.1249H2.94727ZM2.94727 6.87488L3.44727 6.87489C3.44732 4.98213 4.98225 3.4472 6.87501 3.44714L6.875 2.94714L6.87499 2.44714C4.42996 2.44721 2.44734 4.42984 2.44727 6.87486L2.94727 6.87488ZM6.875 2.94714V3.44714H26.125V2.94714V2.44714H6.875V2.94714ZM5.30273 26.1249H4.80273C4.80273 27.2696 5.73036 28.1971 6.87496 28.1971L6.875 27.6971L6.87504 27.1971C6.28259 27.1971 5.80273 26.7172 5.80273 26.1249H5.30273ZM6.875 27.6971V28.1971H8.44824V27.6971V27.1971H6.875V27.6971ZM8.44824 27.6971H8.94824V23.8651H8.44824H7.94824V27.6971H8.44824ZM8.44824 23.8651V23.3651H5.30273V23.8651V24.3651H8.44824V23.8651ZM5.30273 23.8651H4.80273V26.1249H5.30273H5.80273V23.8651H5.30273ZM10.8037 27.6971V28.1971H22.1973V27.6971V27.1971H10.8037V27.6971ZM22.1973 27.6971H22.6973V17.6776H22.1973H21.6973V27.6971H22.1973ZM22.1973 17.6776V17.1776H10.8037V17.6776V18.1776H22.1973V17.6776ZM10.8037 17.6776H10.3037V27.6971H10.8037H11.3037V17.6776H10.8037ZM24.5527 23.8651H24.0527V27.6971H24.5527H25.0527V23.8651H24.5527ZM24.5527 27.6971V28.1971H26.125V27.6971V27.1971H24.5527V27.6971ZM26.125 27.6971V28.1971C27.2697 28.1971 28.1973 27.2696 28.1973 26.1249H27.6973H27.1973C27.1973 26.7173 26.7174 27.1971 26.125 27.1971V27.6971ZM27.6973 26.1249H28.1973V23.8651H27.6973H27.1973V26.1249H27.6973ZM27.6973 23.8651V23.3651H24.5527V23.8651V24.3651H27.6973V23.8651ZM24.5527 21.5096V22.0096H27.6973V21.5096V21.0096H24.5527V21.5096ZM27.6973 21.5096H28.1973V17.6776H27.6973H27.1973V21.5096H27.6973ZM27.6973 17.6776V17.1776H24.5527V17.6776V18.1776H27.6973V17.6776ZM24.5527 17.6776H24.0527V21.5096H24.5527H25.0527V17.6776H24.5527ZM5.30273 21.5096V22.0096H8.44824V21.5096V21.0096H5.30273V21.5096ZM8.44824 21.5096H8.94824V17.6776H8.44824H7.94824V21.5096H8.44824ZM8.44824 17.6776V17.1776H5.30273V17.6776V18.1776H8.44824V17.6776ZM5.30273 17.6776H4.80273V21.5096H5.30273H5.80273V17.6776H5.30273ZM5.30273 15.3221V15.8221H8.44824V15.3221V14.8221H5.30273V15.3221ZM8.44824 15.3221H8.94824V11.4901H8.44824H7.94824V15.3221H8.44824ZM8.44824 11.4901V10.9901H5.30273V11.4901V11.9901H8.44824V11.4901ZM5.30273 11.4901H4.80273V15.3221H5.30273H5.80273V11.4901H5.30273ZM10.8037 15.3221V15.8221H22.1973V15.3221V14.8221H10.8037V15.3221ZM22.1973 15.3221H22.6973V5.30261H22.1973H21.6973V15.3221H22.1973ZM22.1973 5.30261V4.80261H10.8037V5.30261V5.80261H22.1973V5.30261ZM10.8037 5.30261H10.3037V15.3221H10.8037H11.3037V5.30261H10.8037ZM24.5527 15.3221V15.8221H27.6973V15.3221V14.8221H24.5527V15.3221ZM27.6973 15.3221H28.1973V11.4901H27.6973H27.1973V15.3221H27.6973ZM27.6973 11.4901V10.9901H24.5527V11.4901V11.9901H27.6973V11.4901ZM24.5527 11.4901H24.0527V15.3221H24.5527H25.0527V11.4901H24.5527ZM6.875 5.30261L6.87496 4.80261C5.73036 4.80269 4.80282 5.73024 4.80273 6.87484L5.30273 6.87488L5.80273 6.87491C5.80278 6.28254 6.28266 5.80265 6.87504 5.80261L6.875 5.30261ZM5.30273 6.87488H4.80273V9.13464H5.30273H5.80273V6.87488H5.30273ZM5.30273 9.13464V9.63464H8.44824V9.13464V8.63464H5.30273V9.13464ZM8.44824 9.13464H8.94824V5.30261H8.44824H7.94824V9.13464H8.44824ZM8.44824 5.30261V4.80261H6.875V5.30261V5.80261H8.44824V5.30261ZM24.5527 9.13464V9.63464H27.6973V9.13464V8.63464H24.5527V9.13464ZM27.6973 9.13464H28.1973V6.87488H27.6973H27.1973V9.13464H27.6973ZM27.6973 6.87488L28.1973 6.87484C28.1972 5.73024 27.2697 4.80261 26.125 4.80261V5.30261V5.80261C26.7174 5.80261 27.1972 6.28247 27.1973 6.87491L27.6973 6.87488ZM26.125 5.30261V4.80261H24.5527V5.30261V5.80261H26.125V5.30261ZM24.5527 5.30261H24.0527V9.13464H24.5527H25.0527V5.30261H24.5527Z" fill="black" fill-opacity="0.15" mask="url(#path-1-outside-1_25_207)"/>
<defs>
<filter id="filter0_i_25_207" x="2.44727" y="2.44714" width="28.6941" height="28.6941" filterUnits="userSpaceOnUse" color-interpolation-filters="sRGB">
<feFlood flood-opacity="0" result="BackgroundImageFix"/>
<feBlend mode="normal" in="SourceGraphic" in2="BackgroundImageFix" result="shape"/>
<feColorMatrix in="SourceAlpha" type="matrix" values="0 0 0 0 0 0 0 0 0 0 0 0 0 0 0 0 0 0 127 0" result="hardAlpha"/>
<feOffset dx="0.588649" dy="0.588649"/>
<feGaussianBlur stdDeviation="0.294324"/>
<feComposite in2="hardAlpha" operator="arithmetic" k2="-1" k3="1"/>
<feColorMatrix type="matrix" values="0 0 0 0 0.0823529 0 0 0 0 0.211765 0 0 0 0 0.180392 0 0 0 0.55 0"/>
<feBlend mode="normal" in2="shape" result="effect1_innerShadow_25_207"/>
</filter>
<linearGradient id="paint0_linear_25_207" x1="3.1815" y1="5.28944" x2="27.0729" y2="27.3073" gradientUnits="userSpaceOnUse">
<stop stop-color="#4E2E09"/>
<stop offset="1" stop-color="#4C351A"/>
</linearGradient>
</defs>
</svg>
