<svg width="33" height="33" viewBox="0 0 33 33" fill="none" xmlns="http://www.w3.org/2000/svg">
<mask id="path-1-outside-1_25_201" maskUnits="userSpaceOnUse" x="0.75" y="0.749878" width="31" height="31" fill="black">
<rect fill="white" x="0.75" y="0.749878" width="31" height="31"/>
<path d="M3.48135 1.83891C3.82424 1.7425 4.1845 1.72406 4.53409 1.7852L4.68252 1.81645L4.70205 1.82133L22.0868 6.38969C22.5194 6.49794 22.9133 6.7253 23.2226 7.04692C23.5364 7.37334 23.7509 7.78263 23.8398 8.22661L25.4286 16.1729C25.6522 16.1044 25.8868 16.0694 26.1249 16.0694C26.7546 16.0694 27.3593 16.3195 27.8046 16.7647L29.9853 18.9463L30.0663 19.0313C30.4605 19.4669 30.6806 20.0348 30.6806 20.625C30.6805 21.2547 30.4304 21.8594 29.9853 22.3047L22.3036 29.9854C21.8583 30.4304 21.2545 30.6807 20.6249 30.6807C20.0346 30.6807 19.4668 30.4606 19.0312 30.0665L18.9462 29.9854L16.7646 27.8038C16.3195 27.3584 16.0693 26.7547 16.0692 26.125C16.0692 25.887 16.1042 25.6523 16.1728 25.4288L8.22647 23.8399C7.78251 23.751 7.3732 23.5365 7.04678 23.2227C6.72524 22.9135 6.49685 22.5204 6.38858 22.0879L1.8212 4.70219C1.81954 4.69587 1.81785 4.68901 1.81631 4.68266C1.72077 4.28718 1.72865 3.87316 1.83877 3.48149C1.94898 3.08994 2.15759 2.73299 2.44522 2.44536C2.73284 2.15773 3.08981 1.94913 3.48135 1.83891ZM26.1249 18.0694C26.0255 18.0694 25.9306 18.1095 25.8603 18.1797L18.1796 25.8604C18.1094 25.9307 18.0693 26.0257 18.0692 26.125C18.0693 26.2242 18.1086 26.3195 18.1786 26.3897L20.3593 28.5704C20.4296 28.6407 20.5255 28.6807 20.6249 28.6807C20.7243 28.6807 20.8203 28.6406 20.8905 28.5704L28.5712 20.8897C28.6411 20.8195 28.6805 20.7241 28.6806 20.625C28.6806 20.5257 28.6404 20.4307 28.5702 20.3604L26.3896 18.1797C26.3193 18.1095 26.2242 18.0694 26.1249 18.0694ZM13.2763 11.8623C13.8219 11.5525 14.4526 11.375 15.1249 11.375C17.1959 11.375 18.8749 13.054 18.8749 15.125C18.8749 17.1961 17.196 18.875 15.1249 18.875C13.0538 18.875 11.3749 17.1961 11.3749 15.125C11.3749 14.4529 11.5515 13.822 11.8612 13.2764L4.10245 5.51665L8.32315 21.5791L8.32803 21.5987C8.34479 21.6681 8.38108 21.7318 8.43252 21.7813C8.48404 21.8308 8.54898 21.8649 8.61905 21.879L17.5458 23.6641L23.664 17.5459L21.8788 8.61918L21.8642 8.56743C21.8463 8.51747 21.8182 8.4712 21.7812 8.43266C21.7316 8.38122 21.668 8.34492 21.5985 8.32817C21.5922 8.32663 21.5854 8.32496 21.579 8.32329L5.51651 4.10258L13.2763 11.8623ZM15.1249 13.375C14.1584 13.375 13.3749 14.1586 13.3749 15.125C13.3749 16.0915 14.1584 16.875 15.1249 16.875C16.0914 16.875 16.8749 16.0915 16.8749 15.125C16.8749 14.1586 16.0914 13.375 15.1249 13.375Z"/>
</mask>
<g filter="url(#filter0_i_25_201)">
<path d="M3.48135 1.83891C3.82424 1.7425 4.1845 1.72406 4.53409 1.7852L4.68252 1.81645L4.70205 1.82133L22.0868 6.38969C22.5194 6.49794 22.9133 6.7253 23.2226 7.04692C23.5364 7.37334 23.7509 7.78263 23.8398 8.22661L25.4286 16.1729C25.6522 16.1044 25.8868 16.0694 26.1249 16.0694C26.7546 16.0694 27.3593 16.3195 27.8046 16.7647L29.9853 18.9463L30.0663 19.0313C30.4605 19.4669 30.6806 20.0348 30.6806 20.625C30.6805 21.2547 30.4304 21.8594 29.9853 22.3047L22.3036 29.9854C21.8583 30.4304 21.2545 30.6807 20.6249 30.6807C20.0346 30.6807 19.4668 30.4606 19.0312 30.0665L18.9462 29.9854L16.7646 27.8038C16.3195 27.3584 16.0693 26.7547 16.0692 26.125C16.0692 25.887 16.1042 25.6523 16.1728 25.4288L8.22647 23.8399C7.78251 23.751 7.3732 23.5365 7.04678 23.2227C6.72524 22.9135 6.49685 22.5204 6.38858 22.0879L1.8212 4.70219C1.81954 4.69587 1.81785 4.68901 1.81631 4.68266C1.72077 4.28718 1.72865 3.87316 1.83877 3.48149C1.94898 3.08994 2.15759 2.73299 2.44522 2.44536C2.73284 2.15773 3.08981 1.94913 3.48135 1.83891ZM26.1249 18.0694C26.0255 18.0694 25.9306 18.1095 25.8603 18.1797L18.1796 25.8604C18.1094 25.9307 18.0693 26.0257 18.0692 26.125C18.0693 26.2242 18.1086 26.3195 18.1786 26.3897L20.3593 28.5704C20.4296 28.6407 20.5255 28.6807 20.6249 28.6807C20.7243 28.6807 20.8203 28.6406 20.8905 28.5704L28.5712 20.8897C28.6411 20.8195 28.6805 20.7241 28.6806 20.625C28.6806 20.5257 28.6404 20.4307 28.5702 20.3604L26.3896 18.1797C26.3193 18.1095 26.2242 18.0694 26.1249 18.0694ZM13.2763 11.8623C13.8219 11.5525 14.4526 11.375 15.1249 11.375C17.1959 11.375 18.8749 13.054 18.8749 15.125C18.8749 17.1961 17.196 18.875 15.1249 18.875C13.0538 18.875 11.3749 17.1961 11.3749 15.125C11.3749 14.4529 11.5515 13.822 11.8612 13.2764L4.10245 5.51665L8.32315 21.5791L8.32803 21.5987C8.34479 21.6681 8.38108 21.7318 8.43252 21.7813C8.48404 21.8308 8.54898 21.8649 8.61905 21.879L17.5458 23.6641L23.664 17.5459L21.8788 8.61918L21.8642 8.56743C21.8463 8.51747 21.8182 8.4712 21.7812 8.43266C21.7316 8.38122 21.668 8.34492 21.5985 8.32817C21.5922 8.32663 21.5854 8.32496 21.579 8.32329L5.51651 4.10258L13.2763 11.8623ZM15.1249 13.375C14.1584 13.375 13.3749 14.1586 13.3749 15.125C13.3749 16.0915 14.1584 16.875 15.1249 16.875C16.0914 16.875 16.8749 16.0915 16.8749 15.125C16.8749 14.1586 16.0914 13.375 15.1249 13.375Z" fill="url(#paint0_linear_25_201)"/>
</g>
<path d="M3.48135 1.83891L3.34602 1.35757L3.34587 1.35762L3.48135 1.83891ZM4.53409 1.7852L4.63709 1.29593C4.63149 1.29475 4.62587 1.29366 4.62023 1.29268L4.53409 1.7852ZM4.68252 1.81645L4.80379 1.33138C4.79773 1.32986 4.79164 1.32846 4.78553 1.32718L4.68252 1.81645ZM4.70205 1.82133L4.82914 1.33772L4.82332 1.33626L4.70205 1.82133ZM22.0868 6.38969L21.9597 6.87331L21.9655 6.87474L22.0868 6.38969ZM23.2226 7.04692L23.583 6.7004L23.583 6.70035L23.2226 7.04692ZM23.8398 8.22661L24.33 8.12857L24.33 8.12845L23.8398 8.22661ZM25.4286 16.1729L24.9383 16.2709C24.966 16.4095 25.0511 16.5299 25.1724 16.6023C25.2937 16.6747 25.4401 16.6924 25.5751 16.6509L25.4286 16.1729ZM26.1249 16.0694L26.125 15.5694H26.1249V16.0694ZM27.8046 16.7647L28.1582 16.4112L28.1581 16.4111L27.8046 16.7647ZM29.9853 18.9463L30.3471 18.6011L30.3389 18.5929L29.9853 18.9463ZM30.0663 19.0313L30.4372 18.6957L30.4281 18.6862L30.0663 19.0313ZM30.6806 20.625L31.1806 20.6251V20.625L30.6806 20.625ZM29.9853 22.3047L30.3388 22.6583L30.3389 22.6582L29.9853 22.3047ZM22.3036 29.9854L22.6571 30.3391L22.6571 30.339L22.3036 29.9854ZM20.6249 30.6807V31.1807H20.625L20.6249 30.6807ZM19.0312 30.0665L18.6859 30.4283L18.6957 30.4372L19.0312 30.0665ZM18.9462 29.9854L18.5925 30.339L18.6011 30.3472L18.9462 29.9854ZM16.7646 27.8038L16.4109 28.1572L16.411 28.1573L16.7646 27.8038ZM16.0692 26.125L15.5692 26.125V26.1251L16.0692 26.125ZM16.1728 25.4288L16.6508 25.5753C16.6922 25.4402 16.6745 25.2939 16.6021 25.1725C16.5297 25.0512 16.4094 24.9662 16.2708 24.9385L16.1728 25.4288ZM8.22647 23.8399L8.12831 24.3302L8.12843 24.3302L8.22647 23.8399ZM7.04678 23.2227L6.70021 23.5831L6.70026 23.5832L7.04678 23.2227ZM6.38858 22.0879L6.87364 21.9665L6.87217 21.9609L6.38858 22.0879ZM1.8212 4.70219L1.33759 4.8292L1.3376 4.82924L1.8212 4.70219ZM1.81631 4.68266L1.33029 4.80007L1.33032 4.80016L1.81631 4.68266ZM1.83877 3.48149L1.35748 3.34602L1.35744 3.34616L1.83877 3.48149ZM2.44522 2.44536L2.09167 2.0918L2.09166 2.09181L2.44522 2.44536ZM26.1249 18.0694L26.1252 17.5694H26.1249L26.1249 18.0694ZM25.8603 18.1797L25.5069 17.826L25.5067 17.8262L25.8603 18.1797ZM18.1796 25.8604L17.826 25.5068L17.8259 25.507L18.1796 25.8604ZM18.0692 26.125L17.5692 26.1249V26.1253L18.0692 26.125ZM18.1786 26.3897L17.8245 26.7427L17.8251 26.7432L18.1786 26.3897ZM20.3593 28.5704L20.0057 28.9239L20.0058 28.924L20.3593 28.5704ZM20.6249 28.6807L20.6249 29.1807H20.6252L20.6249 28.6807ZM20.8905 28.5704L21.244 28.924L21.2441 28.9239L20.8905 28.5704ZM28.5712 20.8897L28.9247 21.2432L28.9256 21.2424L28.5712 20.8897ZM28.6806 20.625L29.1806 20.6253V20.6249L28.6806 20.625ZM28.5702 20.3604L28.9241 20.0072L28.9238 20.0068L28.5702 20.3604ZM26.3896 18.1797L26.7431 17.8262L26.7429 17.826L26.3896 18.1797ZM13.2763 11.8623L12.9227 12.2159C13.0818 12.375 13.3275 12.4082 13.5232 12.2971L13.2763 11.8623ZM15.1249 11.375V10.875V10.875V11.375ZM18.8749 15.125H19.3749V15.125L18.8749 15.125ZM15.1249 18.875V19.375V19.375V18.875ZM11.3749 15.125L10.8749 15.125V15.125H11.3749ZM11.8612 13.2764L12.2961 13.5232C12.4071 13.3276 12.3739 13.0819 12.2148 12.9229L11.8612 13.2764ZM4.10245 5.51665L4.45602 5.16311C4.29632 5.0034 4.04938 4.97057 3.85351 5.08302C3.65763 5.19547 3.56146 5.42527 3.61886 5.64372L4.10245 5.51665ZM8.32315 21.5791L8.80825 21.4579L8.80673 21.4521L8.32315 21.5791ZM8.32803 21.5987L8.81409 21.4814L8.8131 21.4774L8.32803 21.5987ZM8.43252 21.7813L8.08572 22.1415L8.086 22.1417L8.43252 21.7813ZM8.61905 21.879L8.52076 22.3692L8.521 22.3692L8.61905 21.879ZM17.5458 23.6641L17.4478 24.1544C17.6117 24.1872 17.7811 24.1359 17.8994 24.0177L17.5458 23.6641ZM23.664 17.5459L24.0175 17.8995C24.1357 17.7813 24.187 17.6118 24.1543 17.4479L23.664 17.5459ZM21.8788 8.61918L22.3691 8.52114C22.3665 8.50832 22.3635 8.4956 22.3599 8.48302L21.8788 8.61918ZM21.8642 8.56743L22.3453 8.43127C22.3422 8.42048 22.3388 8.4098 22.335 8.39924L21.8642 8.56743ZM21.7812 8.43266L22.1416 8.08614L22.1413 8.08586L21.7812 8.43266ZM21.5985 8.32817L21.4811 8.81419L21.4812 8.81421L21.5985 8.32817ZM21.579 8.32329L21.7061 7.8397V7.8397L21.579 8.32329ZM5.51651 4.10258L5.64358 3.619C5.42514 3.5616 5.19534 3.65776 5.08289 3.85363C4.97044 4.0495 5.00325 4.29643 5.16295 4.45614L5.51651 4.10258ZM15.1249 13.375V12.875H15.1249L15.1249 13.375ZM13.3749 15.125L12.8749 15.125V15.125H13.3749ZM15.1249 16.875L15.1249 17.375H15.1249V16.875ZM16.8749 15.125H17.3749V15.125L16.8749 15.125ZM3.48135 1.83891L3.61669 2.32025C3.88788 2.244 4.17246 2.22954 4.44794 2.27772L4.53409 1.7852L4.62023 1.29268C4.19654 1.21857 3.7606 1.24101 3.34602 1.35757L3.48135 1.83891ZM4.53409 1.7852L4.43108 2.27447L4.57952 2.30572L4.68252 1.81645L4.78553 1.32718L4.63709 1.29593L4.53409 1.7852ZM4.68252 1.81645L4.56126 2.30152L4.58079 2.3064L4.70205 1.82133L4.82332 1.33626L4.80379 1.33138L4.68252 1.81645ZM4.70205 1.82133L4.57498 2.30492L21.9597 6.87327L22.0868 6.38969L22.2139 5.90611L4.82913 1.33775L4.70205 1.82133ZM22.0868 6.38969L21.9655 6.87474C22.3075 6.96031 22.6183 7.13994 22.8622 7.39349L23.2226 7.04692L23.583 6.70035C23.2082 6.31066 22.7314 6.03556 22.2082 5.90465L22.0868 6.38969ZM23.2226 7.04692L22.8621 7.39344C23.1101 7.65142 23.2794 7.97464 23.3495 8.32476L23.8398 8.22661L24.33 8.12845C24.2223 7.59063 23.9626 7.09527 23.583 6.7004L23.2226 7.04692ZM23.8398 8.22661L23.3495 8.32464L24.9383 16.2709L25.4286 16.1729L25.9189 16.0749L24.33 8.12857L23.8398 8.22661ZM25.4286 16.1729L25.5751 16.6509C25.7506 16.5972 25.9358 16.5694 26.1249 16.5694V16.0694V15.5694C25.8379 15.5694 25.5538 15.6116 25.2821 15.6948L25.4286 16.1729ZM26.1249 16.0694L26.1249 16.5694C26.6222 16.5694 27.0997 16.767 27.4511 17.1183L27.8046 16.7647L28.1581 16.4111C27.6189 15.872 26.887 15.5694 26.125 15.5694L26.1249 16.0694ZM27.8046 16.7647L27.451 17.1182L29.6316 19.2998L29.9853 18.9463L30.3389 18.5929L28.1582 16.4112L27.8046 16.7647ZM29.9853 18.9463L29.6235 19.2915L29.7045 19.3764L30.0663 19.0313L30.4281 18.6862L30.347 18.6012L29.9853 18.9463ZM30.0663 19.0313L29.6956 19.3668C30.0068 19.7107 30.1806 20.1592 30.1806 20.6251L30.6806 20.625L31.1806 20.625C31.1805 19.9104 30.9142 19.223 30.437 18.6958L30.0663 19.0313ZM30.6806 20.625L30.1806 20.625C30.1805 21.1223 29.9829 21.5998 29.6316 21.9513L29.9853 22.3047L30.3389 22.6582C30.8779 22.119 31.1805 21.3871 31.1806 20.6251L30.6806 20.625ZM29.9853 22.3047L29.6317 21.9512L21.9501 29.6318L22.3036 29.9854L22.6571 30.339L30.3388 22.6583L29.9853 22.3047ZM22.3036 29.9854L21.9502 29.6317C21.5986 29.9831 21.1218 30.1807 20.6249 30.1807L20.6249 30.6807L20.625 31.1807C21.3871 31.1806 22.1181 30.8777 22.6571 30.3391L22.3036 29.9854ZM20.6249 30.6807V30.1807C20.159 30.1807 19.7106 30.007 19.3666 29.6957L19.0312 30.0665L18.6957 30.4372C19.2229 30.9143 19.9102 31.1807 20.6249 31.1807V30.6807ZM19.0312 30.0665L19.3763 29.7047L19.2913 29.6236L18.9462 29.9854L18.6011 30.3472L18.686 30.4282L19.0312 30.0665ZM18.9462 29.9854L19.2997 29.6318L17.1181 27.4502L16.7646 27.8038L16.411 28.1573L18.5926 30.3389L18.9462 29.9854ZM16.7646 27.8038L17.1182 27.4503C16.7668 27.0987 16.5693 26.622 16.5692 26.125L16.0692 26.125L15.5692 26.1251C15.5693 26.8873 15.8722 27.6182 16.4109 28.1572L16.7646 27.8038ZM16.0692 26.125L16.5692 26.1251C16.5692 25.9359 16.597 25.7507 16.6508 25.5753L16.1728 25.4288L15.6947 25.2822C15.6114 25.5539 15.5693 25.838 15.5692 26.125L16.0692 26.125ZM16.1728 25.4288L16.2708 24.9385L8.3245 23.3496L8.22647 23.8399L8.12843 24.3302L16.0747 25.9191L16.1728 25.4288ZM8.22647 23.8399L8.32463 23.3496C7.97451 23.2795 7.65127 23.1102 7.3933 22.8622L7.04678 23.2227L6.70026 23.5832C7.09512 23.9627 7.59051 24.2225 8.12831 24.3302L8.22647 23.8399ZM7.04678 23.2227L7.39335 22.8623C7.13916 22.6179 6.95897 22.3075 6.87361 21.9665L6.38858 22.0879L5.90355 22.2094C6.03474 22.7334 6.31132 23.2091 6.70021 23.5831L7.04678 23.2227ZM6.38858 22.0879L6.87217 21.9609L2.30479 4.57515L1.8212 4.70219L1.3376 4.82924L5.90499 22.215L6.38858 22.0879ZM1.8212 4.70219L2.3048 4.57519C2.3044 4.57368 2.30363 4.5706 2.30231 4.56516L1.81631 4.68266L1.33032 4.80016C1.33207 4.80742 1.33467 4.81807 1.33759 4.8292L1.8212 4.70219ZM1.81631 4.68266L2.30233 4.56525C2.22695 4.2532 2.23312 3.92621 2.32011 3.61682L1.83877 3.48149L1.35744 3.34616C1.22418 3.82012 1.2146 4.32116 1.33029 4.80007L1.81631 4.68266ZM1.83877 3.48149L2.32007 3.61696C2.40717 3.30751 2.57195 3.02574 2.79878 2.79891L2.44522 2.44536L2.09166 2.09181C1.74324 2.44024 1.49079 2.87237 1.35748 3.34602L1.83877 3.48149ZM2.44522 2.44536L2.79877 2.79891C3.02559 2.5721 3.30737 2.40732 3.61683 2.32021L3.48135 1.83891L3.34587 1.35762C2.87226 1.49094 2.4401 1.74337 2.09167 2.0918L2.44522 2.44536ZM26.1249 18.0694L26.1249 17.5694C25.8902 17.5694 25.669 17.6641 25.5069 17.826L25.8603 18.1797L26.2136 18.5335C26.1922 18.5549 26.1608 18.5694 26.1249 18.5694L26.1249 18.0694ZM25.8603 18.1797L25.5067 17.8262L17.826 25.5068L18.1796 25.8604L18.5331 26.2139L26.2138 18.5333L25.8603 18.1797ZM18.1796 25.8604L17.8259 25.507C17.6638 25.6692 17.5693 25.8905 17.5692 26.1249L18.0692 26.125L18.5692 26.1251C18.5692 26.1609 18.5549 26.1922 18.5333 26.2138L18.1796 25.8604ZM18.0692 26.125L17.5692 26.1253C17.5694 26.3565 17.6609 26.5786 17.8245 26.7427L18.1786 26.3897L18.5327 26.0367C18.5563 26.0603 18.5692 26.092 18.5692 26.1248L18.0692 26.125ZM18.1786 26.3897L17.8251 26.7432L20.0057 28.9239L20.3593 28.5704L20.7128 28.2168L18.5322 26.0361L18.1786 26.3897ZM20.3593 28.5704L20.0058 28.924C20.169 29.0872 20.3917 29.1807 20.6249 29.1807L20.6249 28.6807L20.6249 28.1807C20.6592 28.1807 20.6902 28.1942 20.7128 28.2167L20.3593 28.5704ZM20.6249 28.6807L20.6252 29.1807C20.8579 29.1806 21.0807 29.0873 21.244 28.924L20.8905 28.5704L20.537 28.2167C20.5598 28.194 20.5906 28.1807 20.6246 28.1807L20.6249 28.6807ZM20.8905 28.5704L21.2441 28.9239L28.9247 21.2432L28.5712 20.8897L28.2176 20.5361L20.537 28.2168L20.8905 28.5704ZM28.5712 20.8897L28.9256 21.2424C29.0886 21.0786 29.1804 20.8566 29.1806 20.6253L28.6806 20.625L28.1806 20.6248C28.1806 20.5916 28.1936 20.5603 28.2168 20.537L28.5712 20.8897ZM28.6806 20.625L29.1806 20.6249C29.1805 20.3903 29.0857 20.1691 28.9241 20.0072L28.5702 20.3604L28.2163 20.7136C28.195 20.6922 28.1806 20.6612 28.1806 20.6251L28.6806 20.625ZM28.5702 20.3604L28.9238 20.0068L26.7431 17.8262L26.3896 18.1797L26.036 18.5333L28.2167 20.7139L28.5702 20.3604ZM26.3896 18.1797L26.7429 17.826C26.5807 17.664 26.3594 17.5695 26.1252 17.5694L26.1249 18.0694L26.1246 18.5694C26.089 18.5694 26.0578 18.5551 26.0362 18.5335L26.3896 18.1797ZM13.2763 11.8623L13.5232 12.2971C13.9958 12.0288 14.5417 11.875 15.1249 11.875V11.375V10.875C14.3635 10.875 13.648 11.0763 13.0294 11.4276L13.2763 11.8623ZM15.1249 11.375V11.875C16.9198 11.875 18.3749 13.3301 18.3749 15.1251L18.8749 15.125L19.3749 15.125C19.3749 12.7779 17.4721 10.875 15.1249 10.875V11.375ZM18.8749 15.125H18.3749C18.3749 16.92 16.9198 18.375 15.1249 18.375V18.875V19.375C17.4721 19.375 19.3749 17.4723 19.3749 15.125H18.8749ZM15.1249 18.875V18.375C13.33 18.375 11.8749 16.92 11.8749 15.125H11.3749H10.8749C10.8749 17.4723 12.7777 19.375 15.1249 19.375V18.875ZM11.3749 15.125L11.8749 15.1251C11.8749 14.5416 12.028 13.9954 12.2961 13.5232L11.8612 13.2764L11.4264 13.0296C11.0751 13.6485 10.8749 14.3643 10.8749 15.125L11.3749 15.125ZM11.8612 13.2764L12.2148 12.9229L4.45602 5.16311L4.10245 5.51665L3.74887 5.87018L11.5077 13.6299L11.8612 13.2764ZM4.10245 5.51665L3.61886 5.64372L7.83956 21.7062L8.32315 21.5791L8.80673 21.4521L4.58603 5.38958L4.10245 5.51665ZM8.32315 21.5791L7.83808 21.7004L7.84296 21.7199L8.32803 21.5987L8.8131 21.4774L8.80822 21.4579L8.32315 21.5791ZM8.32803 21.5987L7.84199 21.716C7.88088 21.8771 7.96506 22.0253 8.08572 22.1415L8.43252 21.7813L8.77932 21.4211C8.79711 21.4382 8.80869 21.4591 8.81407 21.4814L8.32803 21.5987ZM8.43252 21.7813L8.086 22.1417C8.20581 22.2569 8.35674 22.3363 8.52076 22.3692L8.61905 21.879L8.71734 21.3887C8.74123 21.3935 8.76227 21.4047 8.77904 21.4208L8.43252 21.7813ZM8.61905 21.879L8.521 22.3692L17.4478 24.1544L17.5458 23.6641L17.6439 23.1738L8.71709 21.3887L8.61905 21.879ZM17.5458 23.6641L17.8994 24.0177L24.0175 17.8995L23.664 17.5459L23.3104 17.1924L17.1923 23.3106L17.5458 23.6641ZM23.664 17.5459L24.1543 17.4479L22.3691 8.52114L21.8788 8.61918L21.3885 8.71723L23.1737 17.644L23.664 17.5459ZM21.8788 8.61918L22.3599 8.48302L22.3453 8.43127L21.8642 8.56743L21.3831 8.70359L21.3977 8.75535L21.8788 8.61918ZM21.8642 8.56743L22.335 8.39924C22.2943 8.28521 22.2295 8.17753 22.1416 8.08614L21.7812 8.43266L21.4207 8.77918C21.4069 8.76486 21.3983 8.74974 21.3933 8.73562L21.8642 8.56743ZM21.7812 8.43266L22.1413 8.08586C22.0252 7.9652 21.877 7.88102 21.7159 7.84213L21.5985 8.32817L21.4812 8.81421C21.4589 8.80883 21.4381 8.79725 21.421 8.77946L21.7812 8.43266ZM21.5985 8.32817L21.7159 7.84215C21.7106 7.84085 21.7076 7.8401 21.7061 7.8397L21.579 8.32329L21.4519 8.80687C21.4631 8.80981 21.4737 8.8124 21.4811 8.81419L21.5985 8.32817ZM21.579 8.32329L21.7061 7.8397L5.64358 3.619L5.51651 4.10258L5.38944 4.58617L21.4519 8.80687L21.579 8.32329ZM5.51651 4.10258L5.16295 4.45614L12.9227 12.2159L13.2763 11.8623L13.6298 11.5088L5.87006 3.74903L5.51651 4.10258ZM15.1249 13.375L15.1249 12.875C13.8823 12.875 12.875 13.8825 12.8749 15.125L13.3749 15.125L13.8749 15.1251C13.8749 14.4347 14.4346 13.875 15.1249 13.875L15.1249 13.375ZM13.3749 15.125H12.8749C12.8749 16.3677 13.8823 17.375 15.1249 17.375L15.1249 16.875L15.1249 16.375C14.4346 16.375 13.8749 15.8154 13.8749 15.125H13.3749ZM15.1249 16.875V17.375C16.3675 17.375 17.3749 16.3677 17.3749 15.125H16.8749H16.3749C16.3749 15.8154 15.8153 16.375 15.1249 16.375V16.875ZM16.8749 15.125L17.3749 15.125C17.3749 13.8825 16.3675 12.875 15.1249 12.875V13.375V13.875C15.8152 13.875 16.3749 14.4347 16.3749 15.1251L16.8749 15.125Z" fill="black" fill-opacity="0.1" mask="url(#path-1-outside-1_25_201)"/>
<path d="M3.48135 1.83891L3.34602 1.35757L3.34587 1.35762L3.48135 1.83891ZM4.53409 1.7852L4.63709 1.29593C4.63149 1.29475 4.62587 1.29366 4.62023 1.29268L4.53409 1.7852ZM4.68252 1.81645L4.80379 1.33138C4.79773 1.32986 4.79164 1.32846 4.78553 1.32718L4.68252 1.81645ZM4.70205 1.82133L4.82914 1.33772L4.82332 1.33626L4.70205 1.82133ZM22.0868 6.38969L21.9597 6.87331L21.9655 6.87474L22.0868 6.38969ZM23.2226 7.04692L23.583 6.7004L23.583 6.70035L23.2226 7.04692ZM23.8398 8.22661L24.33 8.12857L24.33 8.12845L23.8398 8.22661ZM25.4286 16.1729L24.9383 16.2709C24.966 16.4095 25.0511 16.5299 25.1724 16.6023C25.2937 16.6747 25.4401 16.6924 25.5751 16.6509L25.4286 16.1729ZM26.1249 16.0694L26.125 15.5694H26.1249V16.0694ZM27.8046 16.7647L28.1582 16.4112L28.1581 16.4111L27.8046 16.7647ZM29.9853 18.9463L30.3471 18.6011L30.3389 18.5929L29.9853 18.9463ZM30.0663 19.0313L30.4372 18.6957L30.4281 18.6862L30.0663 19.0313ZM30.6806 20.625L31.1806 20.6251V20.625L30.6806 20.625ZM29.9853 22.3047L30.3388 22.6583L30.3389 22.6582L29.9853 22.3047ZM22.3036 29.9854L22.6571 30.3391L22.6571 30.339L22.3036 29.9854ZM20.6249 30.6807V31.1807H20.625L20.6249 30.6807ZM19.0312 30.0665L18.6859 30.4283L18.6957 30.4372L19.0312 30.0665ZM18.9462 29.9854L18.5925 30.339L18.6011 30.3472L18.9462 29.9854ZM16.7646 27.8038L16.4109 28.1572L16.411 28.1573L16.7646 27.8038ZM16.0692 26.125L15.5692 26.125V26.1251L16.0692 26.125ZM16.1728 25.4288L16.6508 25.5753C16.6922 25.4402 16.6745 25.2939 16.6021 25.1725C16.5297 25.0512 16.4094 24.9662 16.2708 24.9385L16.1728 25.4288ZM8.22647 23.8399L8.12831 24.3302L8.12843 24.3302L8.22647 23.8399ZM7.04678 23.2227L6.70021 23.5831L6.70026 23.5832L7.04678 23.2227ZM6.38858 22.0879L6.87364 21.9665L6.87217 21.9609L6.38858 22.0879ZM1.8212 4.70219L1.33759 4.8292L1.3376 4.82924L1.8212 4.70219ZM1.81631 4.68266L1.33029 4.80007L1.33032 4.80016L1.81631 4.68266ZM1.83877 3.48149L1.35748 3.34602L1.35744 3.34616L1.83877 3.48149ZM2.44522 2.44536L2.09167 2.0918L2.09166 2.09181L2.44522 2.44536ZM26.1249 18.0694L26.1252 17.5694H26.1249L26.1249 18.0694ZM25.8603 18.1797L25.5069 17.826L25.5067 17.8262L25.8603 18.1797ZM18.1796 25.8604L17.826 25.5068L17.8259 25.507L18.1796 25.8604ZM18.0692 26.125L17.5692 26.1249V26.1253L18.0692 26.125ZM18.1786 26.3897L17.8245 26.7427L17.8251 26.7432L18.1786 26.3897ZM20.3593 28.5704L20.0057 28.9239L20.0058 28.924L20.3593 28.5704ZM20.6249 28.6807L20.6249 29.1807H20.6252L20.6249 28.6807ZM20.8905 28.5704L21.244 28.924L21.2441 28.9239L20.8905 28.5704ZM28.5712 20.8897L28.9247 21.2432L28.9256 21.2424L28.5712 20.8897ZM28.6806 20.625L29.1806 20.6253V20.6249L28.6806 20.625ZM28.5702 20.3604L28.9241 20.0072L28.9238 20.0068L28.5702 20.3604ZM26.3896 18.1797L26.7431 17.8262L26.7429 17.826L26.3896 18.1797ZM13.2763 11.8623L12.9227 12.2159C13.0818 12.375 13.3275 12.4082 13.5232 12.2971L13.2763 11.8623ZM15.1249 11.375V10.875V10.875V11.375ZM18.8749 15.125H19.3749V15.125L18.8749 15.125ZM15.1249 18.875V19.375V19.375V18.875ZM11.3749 15.125L10.8749 15.125V15.125H11.3749ZM11.8612 13.2764L12.2961 13.5232C12.4071 13.3276 12.3739 13.0819 12.2148 12.9229L11.8612 13.2764ZM4.10245 5.51665L4.45602 5.16311C4.29632 5.0034 4.04938 4.97057 3.85351 5.08302C3.65763 5.19547 3.56146 5.42527 3.61886 5.64372L4.10245 5.51665ZM8.32315 21.5791L8.80825 21.4579L8.80673 21.4521L8.32315 21.5791ZM8.32803 21.5987L8.81409 21.4814L8.8131 21.4774L8.32803 21.5987ZM8.43252 21.7813L8.08572 22.1415L8.086 22.1417L8.43252 21.7813ZM8.61905 21.879L8.52076 22.3692L8.521 22.3692L8.61905 21.879ZM17.5458 23.6641L17.4478 24.1544C17.6117 24.1872 17.7811 24.1359 17.8994 24.0177L17.5458 23.6641ZM23.664 17.5459L24.0175 17.8995C24.1357 17.7813 24.187 17.6118 24.1543 17.4479L23.664 17.5459ZM21.8788 8.61918L22.3691 8.52114C22.3665 8.50832 22.3635 8.4956 22.3599 8.48302L21.8788 8.61918ZM21.8642 8.56743L22.3453 8.43127C22.3422 8.42048 22.3388 8.4098 22.335 8.39924L21.8642 8.56743ZM21.7812 8.43266L22.1416 8.08614L22.1413 8.08586L21.7812 8.43266ZM21.5985 8.32817L21.4811 8.81419L21.4812 8.81421L21.5985 8.32817ZM21.579 8.32329L21.7061 7.8397V7.8397L21.579 8.32329ZM5.51651 4.10258L5.64358 3.619C5.42514 3.5616 5.19534 3.65776 5.08289 3.85363C4.97044 4.0495 5.00325 4.29643 5.16295 4.45614L5.51651 4.10258ZM15.1249 13.375V12.875H15.1249L15.1249 13.375ZM13.3749 15.125L12.8749 15.125V15.125H13.3749ZM15.1249 16.875L15.1249 17.375H15.1249V16.875ZM16.8749 15.125H17.3749V15.125L16.8749 15.125ZM3.48135 1.83891L3.61669 2.32025C3.88788 2.244 4.17246 2.22954 4.44794 2.27772L4.53409 1.7852L4.62023 1.29268C4.19654 1.21857 3.7606 1.24101 3.34602 1.35757L3.48135 1.83891ZM4.53409 1.7852L4.43108 2.27447L4.57952 2.30572L4.68252 1.81645L4.78553 1.32718L4.63709 1.29593L4.53409 1.7852ZM4.68252 1.81645L4.56126 2.30152L4.58079 2.3064L4.70205 1.82133L4.82332 1.33626L4.80379 1.33138L4.68252 1.81645ZM4.70205 1.82133L4.57498 2.30492L21.9597 6.87327L22.0868 6.38969L22.2139 5.90611L4.82913 1.33775L4.70205 1.82133ZM22.0868 6.38969L21.9655 6.87474C22.3075 6.96031 22.6183 7.13994 22.8622 7.39349L23.2226 7.04692L23.583 6.70035C23.2082 6.31066 22.7314 6.03556 22.2082 5.90465L22.0868 6.38969ZM23.2226 7.04692L22.8621 7.39344C23.1101 7.65142 23.2794 7.97464 23.3495 8.32476L23.8398 8.22661L24.33 8.12845C24.2223 7.59063 23.9626 7.09527 23.583 6.7004L23.2226 7.04692ZM23.8398 8.22661L23.3495 8.32464L24.9383 16.2709L25.4286 16.1729L25.9189 16.0749L24.33 8.12857L23.8398 8.22661ZM25.4286 16.1729L25.5751 16.6509C25.7506 16.5972 25.9358 16.5694 26.1249 16.5694V16.0694V15.5694C25.8379 15.5694 25.5538 15.6116 25.2821 15.6948L25.4286 16.1729ZM26.1249 16.0694L26.1249 16.5694C26.6222 16.5694 27.0997 16.767 27.4511 17.1183L27.8046 16.7647L28.1581 16.4111C27.6189 15.872 26.887 15.5694 26.125 15.5694L26.1249 16.0694ZM27.8046 16.7647L27.451 17.1182L29.6316 19.2998L29.9853 18.9463L30.3389 18.5929L28.1582 16.4112L27.8046 16.7647ZM29.9853 18.9463L29.6235 19.2915L29.7045 19.3764L30.0663 19.0313L30.4281 18.6862L30.347 18.6012L29.9853 18.9463ZM30.0663 19.0313L29.6956 19.3668C30.0068 19.7107 30.1806 20.1592 30.1806 20.6251L30.6806 20.625L31.1806 20.625C31.1805 19.9104 30.9142 19.223 30.437 18.6958L30.0663 19.0313ZM30.6806 20.625L30.1806 20.625C30.1805 21.1223 29.9829 21.5998 29.6316 21.9513L29.9853 22.3047L30.3389 22.6582C30.8779 22.119 31.1805 21.3871 31.1806 20.6251L30.6806 20.625ZM29.9853 22.3047L29.6317 21.9512L21.9501 29.6318L22.3036 29.9854L22.6571 30.339L30.3388 22.6583L29.9853 22.3047ZM22.3036 29.9854L21.9502 29.6317C21.5986 29.9831 21.1218 30.1807 20.6249 30.1807L20.6249 30.6807L20.625 31.1807C21.3871 31.1806 22.1181 30.8777 22.6571 30.3391L22.3036 29.9854ZM20.6249 30.6807V30.1807C20.159 30.1807 19.7106 30.007 19.3666 29.6957L19.0312 30.0665L18.6957 30.4372C19.2229 30.9143 19.9102 31.1807 20.6249 31.1807V30.6807ZM19.0312 30.0665L19.3763 29.7047L19.2913 29.6236L18.9462 29.9854L18.6011 30.3472L18.686 30.4282L19.0312 30.0665ZM18.9462 29.9854L19.2997 29.6318L17.1181 27.4502L16.7646 27.8038L16.411 28.1573L18.5926 30.3389L18.9462 29.9854ZM16.7646 27.8038L17.1182 27.4503C16.7668 27.0987 16.5693 26.622 16.5692 26.125L16.0692 26.125L15.5692 26.1251C15.5693 26.8873 15.8722 27.6182 16.4109 28.1572L16.7646 27.8038ZM16.0692 26.125L16.5692 26.1251C16.5692 25.9359 16.597 25.7507 16.6508 25.5753L16.1728 25.4288L15.6947 25.2822C15.6114 25.5539 15.5693 25.838 15.5692 26.125L16.0692 26.125ZM16.1728 25.4288L16.2708 24.9385L8.3245 23.3496L8.22647 23.8399L8.12843 24.3302L16.0747 25.9191L16.1728 25.4288ZM8.22647 23.8399L8.32463 23.3496C7.97451 23.2795 7.65127 23.1102 7.3933 22.8622L7.04678 23.2227L6.70026 23.5832C7.09512 23.9627 7.59051 24.2225 8.12831 24.3302L8.22647 23.8399ZM7.04678 23.2227L7.39335 22.8623C7.13916 22.6179 6.95897 22.3075 6.87361 21.9665L6.38858 22.0879L5.90355 22.2094C6.03474 22.7334 6.31132 23.2091 6.70021 23.5831L7.04678 23.2227ZM6.38858 22.0879L6.87217 21.9609L2.30479 4.57515L1.8212 4.70219L1.3376 4.82924L5.90499 22.215L6.38858 22.0879ZM1.8212 4.70219L2.3048 4.57519C2.3044 4.57368 2.30363 4.5706 2.30231 4.56516L1.81631 4.68266L1.33032 4.80016C1.33207 4.80742 1.33467 4.81807 1.33759 4.8292L1.8212 4.70219ZM1.81631 4.68266L2.30233 4.56525C2.22695 4.2532 2.23312 3.92621 2.32011 3.61682L1.83877 3.48149L1.35744 3.34616C1.22418 3.82012 1.2146 4.32116 1.33029 4.80007L1.81631 4.68266ZM1.83877 3.48149L2.32007 3.61696C2.40717 3.30751 2.57195 3.02574 2.79878 2.79891L2.44522 2.44536L2.09166 2.09181C1.74324 2.44024 1.49079 2.87237 1.35748 3.34602L1.83877 3.48149ZM2.44522 2.44536L2.79877 2.79891C3.02559 2.5721 3.30737 2.40732 3.61683 2.32021L3.48135 1.83891L3.34587 1.35762C2.87226 1.49094 2.4401 1.74337 2.09167 2.0918L2.44522 2.44536ZM26.1249 18.0694L26.1249 17.5694C25.8902 17.5694 25.669 17.6641 25.5069 17.826L25.8603 18.1797L26.2136 18.5335C26.1922 18.5549 26.1608 18.5694 26.1249 18.5694L26.1249 18.0694ZM25.8603 18.1797L25.5067 17.8262L17.826 25.5068L18.1796 25.8604L18.5331 26.2139L26.2138 18.5333L25.8603 18.1797ZM18.1796 25.8604L17.8259 25.507C17.6638 25.6692 17.5693 25.8905 17.5692 26.1249L18.0692 26.125L18.5692 26.1251C18.5692 26.1609 18.5549 26.1922 18.5333 26.2138L18.1796 25.8604ZM18.0692 26.125L17.5692 26.1253C17.5694 26.3565 17.6609 26.5786 17.8245 26.7427L18.1786 26.3897L18.5327 26.0367C18.5563 26.0603 18.5692 26.092 18.5692 26.1248L18.0692 26.125ZM18.1786 26.3897L17.8251 26.7432L20.0057 28.9239L20.3593 28.5704L20.7128 28.2168L18.5322 26.0361L18.1786 26.3897ZM20.3593 28.5704L20.0058 28.924C20.169 29.0872 20.3917 29.1807 20.6249 29.1807L20.6249 28.6807L20.6249 28.1807C20.6592 28.1807 20.6902 28.1942 20.7128 28.2167L20.3593 28.5704ZM20.6249 28.6807L20.6252 29.1807C20.8579 29.1806 21.0807 29.0873 21.244 28.924L20.8905 28.5704L20.537 28.2167C20.5598 28.194 20.5906 28.1807 20.6246 28.1807L20.6249 28.6807ZM20.8905 28.5704L21.2441 28.9239L28.9247 21.2432L28.5712 20.8897L28.2176 20.5361L20.537 28.2168L20.8905 28.5704ZM28.5712 20.8897L28.9256 21.2424C29.0886 21.0786 29.1804 20.8566 29.1806 20.6253L28.6806 20.625L28.1806 20.6248C28.1806 20.5916 28.1936 20.5603 28.2168 20.537L28.5712 20.8897ZM28.6806 20.625L29.1806 20.6249C29.1805 20.3903 29.0857 20.1691 28.9241 20.0072L28.5702 20.3604L28.2163 20.7136C28.195 20.6922 28.1806 20.6612 28.1806 20.6251L28.6806 20.625ZM28.5702 20.3604L28.9238 20.0068L26.7431 17.8262L26.3896 18.1797L26.036 18.5333L28.2167 20.7139L28.5702 20.3604ZM26.3896 18.1797L26.7429 17.826C26.5807 17.664 26.3594 17.5695 26.1252 17.5694L26.1249 18.0694L26.1246 18.5694C26.089 18.5694 26.0578 18.5551 26.0362 18.5335L26.3896 18.1797ZM13.2763 11.8623L13.5232 12.2971C13.9958 12.0288 14.5417 11.875 15.1249 11.875V11.375V10.875C14.3635 10.875 13.648 11.0763 13.0294 11.4276L13.2763 11.8623ZM15.1249 11.375V11.875C16.9198 11.875 18.3749 13.3301 18.3749 15.1251L18.8749 15.125L19.3749 15.125C19.3749 12.7779 17.4721 10.875 15.1249 10.875V11.375ZM18.8749 15.125H18.3749C18.3749 16.92 16.9198 18.375 15.1249 18.375V18.875V19.375C17.4721 19.375 19.3749 17.4723 19.3749 15.125H18.8749ZM15.1249 18.875V18.375C13.33 18.375 11.8749 16.92 11.8749 15.125H11.3749H10.8749C10.8749 17.4723 12.7777 19.375 15.1249 19.375V18.875ZM11.3749 15.125L11.8749 15.1251C11.8749 14.5416 12.028 13.9954 12.2961 13.5232L11.8612 13.2764L11.4264 13.0296C11.0751 13.6485 10.8749 14.3643 10.8749 15.125L11.3749 15.125ZM11.8612 13.2764L12.2148 12.9229L4.45602 5.16311L4.10245 5.51665L3.74887 5.87018L11.5077 13.6299L11.8612 13.2764ZM4.10245 5.51665L3.61886 5.64372L7.83956 21.7062L8.32315 21.5791L8.80673 21.4521L4.58603 5.38958L4.10245 5.51665ZM8.32315 21.5791L7.83808 21.7004L7.84296 21.7199L8.32803 21.5987L8.8131 21.4774L8.80822 21.4579L8.32315 21.5791ZM8.32803 21.5987L7.84199 21.716C7.88088 21.8771 7.96506 22.0253 8.08572 22.1415L8.43252 21.7813L8.77932 21.4211C8.79711 21.4382 8.80869 21.4591 8.81407 21.4814L8.32803 21.5987ZM8.43252 21.7813L8.086 22.1417C8.20581 22.2569 8.35674 22.3363 8.52076 22.3692L8.61905 21.879L8.71734 21.3887C8.74123 21.3935 8.76227 21.4047 8.77904 21.4208L8.43252 21.7813ZM8.61905 21.879L8.521 22.3692L17.4478 24.1544L17.5458 23.6641L17.6439 23.1738L8.71709 21.3887L8.61905 21.879ZM17.5458 23.6641L17.8994 24.0177L24.0175 17.8995L23.664 17.5459L23.3104 17.1924L17.1923 23.3106L17.5458 23.6641ZM23.664 17.5459L24.1543 17.4479L22.3691 8.52114L21.8788 8.61918L21.3885 8.71723L23.1737 17.644L23.664 17.5459ZM21.8788 8.61918L22.3599 8.48302L22.3453 8.43127L21.8642 8.56743L21.3831 8.70359L21.3977 8.75535L21.8788 8.61918ZM21.8642 8.56743L22.335 8.39924C22.2943 8.28521 22.2295 8.17753 22.1416 8.08614L21.7812 8.43266L21.4207 8.77918C21.4069 8.76486 21.3983 8.74974 21.3933 8.73562L21.8642 8.56743ZM21.7812 8.43266L22.1413 8.08586C22.0252 7.9652 21.877 7.88102 21.7159 7.84213L21.5985 8.32817L21.4812 8.81421C21.4589 8.80883 21.4381 8.79725 21.421 8.77946L21.7812 8.43266ZM21.5985 8.32817L21.7159 7.84215C21.7106 7.84085 21.7076 7.8401 21.7061 7.8397L21.579 8.32329L21.4519 8.80687C21.4631 8.80981 21.4737 8.8124 21.4811 8.81419L21.5985 8.32817ZM21.579 8.32329L21.7061 7.8397L5.64358 3.619L5.51651 4.10258L5.38944 4.58617L21.4519 8.80687L21.579 8.32329ZM5.51651 4.10258L5.16295 4.45614L12.9227 12.2159L13.2763 11.8623L13.6298 11.5088L5.87006 3.74903L5.51651 4.10258ZM15.1249 13.375L15.1249 12.875C13.8823 12.875 12.875 13.8825 12.8749 15.125L13.3749 15.125L13.8749 15.1251C13.8749 14.4347 14.4346 13.875 15.1249 13.875L15.1249 13.375ZM13.3749 15.125H12.8749C12.8749 16.3677 13.8823 17.375 15.1249 17.375L15.1249 16.875L15.1249 16.375C14.4346 16.375 13.8749 15.8154 13.8749 15.125H13.3749ZM15.1249 16.875V17.375C16.3675 17.375 17.3749 16.3677 17.3749 15.125H16.8749H16.3749C16.3749 15.8154 15.8153 16.375 15.1249 16.375V16.875ZM16.8749 15.125L17.3749 15.125C17.3749 13.8825 16.3675 12.875 15.1249 12.875V13.375V13.875C15.8152 13.875 16.3749 14.4347 16.3749 15.1251L16.8749 15.125Z" fill="black" fill-opacity="0.15" mask="url(#path-1-outside-1_25_201)"/>
<defs>
<filter id="filter0_i_25_201" x="1.25" y="1.24988" width="30.5193" height="30.5194" filterUnits="userSpaceOnUse" color-interpolation-filters="sRGB">
<feFlood flood-opacity="0" result="BackgroundImageFix"/>
<feBlend mode="normal" in="SourceGraphic" in2="BackgroundImageFix" result="shape"/>
<feColorMatrix in="SourceAlpha" type="matrix" values="0 0 0 0 0 0 0 0 0 0 0 0 0 0 0 0 0 0 127 0" result="hardAlpha"/>
<feOffset dx="0.588649" dy="0.588649"/>
<feGaussianBlur stdDeviation="0.294324"/>
<feComposite in2="hardAlpha" operator="arithmetic" k2="-1" k3="1"/>
<feColorMatrix type="matrix" values="0 0 0 0 0.0823529 0 0 0 0 0.211765 0 0 0 0 0.180392 0 0 0 0.55 0"/>
<feBlend mode="normal" in2="shape" result="effect1_innerShadow_25_201"/>
</filter>
<linearGradient id="paint0_linear_25_201" x1="2" y1="4.24991" x2="27.5003" y2="27.7503" gradientUnits="userSpaceOnUse">
<stop stop-color="#4E2E09"/>
<stop offset="1" stop-color="#4C351A"/>
</linearGradient>
</defs>
</svg>
